<svg viewBox="0 0 2732 2048" xmlns="http://www.w3.org/2000/svg" fill-rule="evenodd" clip-rule="evenodd" stroke-linejoin="round" stroke-miterlimit="2"><path d="M357.917 1768.252l-1.56-68.82h58.152v-65.54h1960.22v65.54h46.48v69.08h35.61v69.09H299.466v-69.09h58.451v-.26zm152.94-1174.359h-96.348l991.79-475.579 991.79 475.58H2289.2v1039.998H510.856V593.893z" fill="#fff1df"/><path d="M2421.21 1768.202H357.915l-.43-19h2063.723v19zm-46.48-69.17H414.51v-19h1960.22v19zm-85.53-65.31H510.855v-19H2289.2v19zm0-1019.243l-1778.344 2.584v-20L2289.2 594.48v20z" fill="#ffbdb4"/><path d="M2289.2 609.441l-265.39 38.3v971.401h-249.55v-989.76c-46.43 5.715-160.77 19.903-267.4 34.044v955.716H1257.3V615.978l-267.402 31.763v971.401H740.345v-999.46l-229.489 28.06v-41.97s168.788 5.13 229.49 8.987v-5.609h249.552v-3.379H1284.3l-8.94 3.38h231.5v5.921l267.4-5.483v-.439h249.55v-3.379l265.39 3.354v.316z" fill="#ffbdb4"/><circle cx="1494.85" cy="372.517" r="157.821" fill="#ffcf84" transform="translate(-88.548 -3.02)"/><path d="M1406.302 246.397c67.937 0 123.1 55.16 123.1 123.1 0 67.941-55.163 123.1-123.1 123.1-2.76 0-5 2.24-5 5s2.24 5 5 5c73.457 0 133.1-59.64 133.1-133.1s-59.643-133.1-133.1-133.1c-2.76 0-5 2.24-5 5s2.24 5 5 5z" fill="#fd9909"/><path d="M1406.302 492.598c-67.946 0-123.108-55.16-123.108-123.1 0-67.942 55.162-123.101 123.108-123.101 2.76 0 5-2.24 5-5s-2.24-5-5-5c-73.466 0-133.1 59.64-133.1 133.1s59.634 133.1 133.1 133.1c2.76 0 5-2.24 5-5s-2.24-5-5-5z" fill="#fd9909"/><path d="M1425.3 526.184l-3.23-26a5.006 5.006 0 014.35-5.58c2.74-.34 5.23 1.607 5.58 4.346l3.19 25.725c-3.26.605-6.56 1.11-9.89 1.51zm29.51-6.475l-8.94-26.383a5.006 5.006 0 013.14-6.34 4.99 4.99 0 016.33 3.13l8.89 26.215a154.999 154.999 0 01-9.42 3.378zm-135.51-18.548l13.9-22.857a5 5 0 016.87-1.674 5.005 5.005 0 011.68 6.87l-13.94 22.918c-2.9-1.665-5.74-3.42-8.51-5.257zm216.85-41.99l-22.97-16.999a5.01 5.01 0 01-1.04-6.994 4.999 4.999 0 016.99-1.045l22.46 16.622a153.227 153.227 0 01-5.44 8.415zm-279.84-40.482l26.99-12.147a5.002 5.002 0 016.61 2.507 5.003 5.003 0 01-2.51 6.612l-27.66 12.451a151.868 151.868 0 01-3.43-9.423zm303.13-87.47c.8 3.221 1.51 6.481 2.11 9.776l-26.61 6.275a4.999 4.999 0 01-6.01-3.718 4.997 4.997 0 013.71-6.015l26.8-6.319zm-283.55-50.593l23.78 15.554a5.004 5.004 0 011.45 6.922 5 5 0 01-6.92 1.447l-23.68-15.49c1.7-2.873 3.5-5.685 5.37-8.433zm15.52-19.292l19.34 14.222a5.002 5.002 0 01-5.93 8.055l-20.05-14.754c2.13-2.577 4.35-5.086 6.64-7.523zm206.11-20.605c2.72 1.932 5.38 3.947 7.97 6.046l-17.29 21.8a5.01 5.01 0 01-7.03.808 5.01 5.01 0 01-.81-7.025l17.16-21.629zm-26.78-15.32c3.05 1.37 6.05 2.833 8.99 4.382l-12.19 22.865a5.008 5.008 0 01-6.77 2.06 5.003 5.003 0 01-2.05-6.766l12.02-22.54zm-99.83-9.74l7.04 25.1a5.007 5.007 0 01-3.47 6.163 4.993 4.993 0 01-6.16-3.464l-7.08-25.253c3.18-.948 6.4-1.798 9.67-2.547z" fill="#fd9909"/><g><path d="M1367.493 411.164c13.075 9.616 28.036 13.828 45.127 13.063 20.35-1.394 30.002-9.231 29.616-23.55-.672-11.654-7.865-18.3-21.58-19.936-6.4-.513-13.237-1.002-20.745-1.672-13.482-1.429-24.064-5.893-31.514-13.185-7.682-7.5-11.743-16.974-12.402-28.408-.786-13.634 2.958-24.881 11.672-33.767 8.276-8.861 20.515-13.759 36.486-14.9 19.511-.684 36.687 3.841 51.515 13.356l-12.009 20.328c-12.048-7.027-25.206-10.46-39.232-9.872-7.225.416-13.254 2.529-17.855 6.545-4.82 4.028-7.118 9.897-6.906 17.386.266 4.618 2.246 8.475 5.965 12.011 3.718 3.537 9.55 5.627 17.302 6.725 4.198.42 10.16.958 17.656 1.409 14.783 1.133 25.816 5.792 33.316 13.964 7.27 7.965 11.33 17.438 11.977 28.653 1.068 29.944-16.45 46.177-52.112 48.674-22.99 1.326-43.332-4.782-60.796-18.116l14.519-18.708z" fill="#fd9909" fill-rule="nonzero"/><path d="M1396.278 269.256l-5.347 196.979 11.856.32 5.347-196.978-11.856-.321zM1417.014 269.862l-5.347 196.979 11.856.32 5.347-196.978-11.856-.321z" fill="#fd9909"/></g><g><path d="M798.698 1126.886l35.548 193.903-171.528 35.608-34.927-196.905 170.907-32.606z" fill="#fff"/><path d="M633.576 1163.48l18.642 105.098a5.004 5.004 0 01-4.05 5.797 5.014 5.014 0 01-5.799-4.048l-19.499-109.965a4.997 4.997 0 013.986-5.782l170.906-32.606a4.97 4.97 0 013.763.785 5.027 5.027 0 012.095 3.22l17.457 95.231c.495 2.718-1.306 5.328-4.017 5.822-2.717.501-5.32-1.305-5.82-4.015l-16.55-90.278-161.114 30.74z"/><path d="M828.446 1316.888l-17.207-93.87a5.004 5.004 0 014.017-5.822 5.012 5.012 0 015.821 4.014l18.086 98.68a4.997 4.997 0 01-3.9 5.795l-171.53 35.608a4.977 4.977 0 01-3.82-.753 5.01 5.01 0 01-2.122-3.264l-15.422-86.95a5.004 5.004 0 014.05-5.796 4.996 4.996 0 015.8 4.048l14.522 81.878 161.705-33.568z"/><path d="M814.934 1307.936l-2.345-12.538-137.993 25.882 2.351 12.542 137.987-25.886zm-5.278-28.828l-2.351-12.53-137.994 25.882 2.357 12.534 137.988-25.886zm-5.284-28.82l-2.353-12.543-137.986 25.888 2.351 12.542 137.988-25.886zm-5.282-28.818l-2.351-12.542-137.99 25.885 2.351 12.542 137.99-25.885zm-5.284-28.82l-2.351-12.541-137.99 25.885 2.351 12.542 137.99-25.885zm-5.285-28.82l-2.35-12.54-137.99 25.884 2.357 12.534 137.983-25.877z"/><g><path d="M824.252 1112.509l111.457 162.6-142.143 102.398-112.113-165.597 142.8-99.401z" fill="#fff"/><path d="M930.201 1274.147l-40.115-58.526a3.996 3.996 0 011.037-5.556 3.994 3.994 0 015.562 1.036l42.325 61.744a4.005 4.005 0 01-.963 5.51l-142.143 102.398a3.975 3.975 0 01-3.038.695 3.99 3.99 0 01-2.613-1.7l-47.515-70.177a4.007 4.007 0 011.07-5.56 4.004 4.004 0 015.555 1.076l45.205 66.774 135.633-97.714z"/><path d="M686.978 1212.939l62.385 92.148a3.996 3.996 0 01-1.07 5.549 4.003 4.003 0 01-5.555-1.065l-64.597-95.419a4.004 4.004 0 011.028-5.527l142.799-99.402a3.98 3.98 0 013.004-.65 3.981 3.981 0 012.58 1.67l69.133 100.858a4.01 4.01 0 01-1.04 5.566 4.003 4.003 0 01-5.559-1.046l-66.854-97.532-136.254 94.85z"/><path d="M912.836 1271.24l-7.25-10.496-115.478 79.854 7.256 10.496 115.472-79.855zm-16.564-24.178l-7.252-10.485-115.48 79.853 7.26 10.487 115.472-79.855zm-16.566-24.167l-7.26-10.497-115.47 79.856 7.257 10.496 115.473-79.855zm-16.564-24.166l-7.257-10.496-115.475 79.854 7.257 10.496 115.475-79.854zm-16.566-24.167l-7.257-10.496-115.475 79.854 7.257 10.496 115.475-79.854zm-16.568-24.167l-7.255-10.496-115.476 79.853 7.259 10.487 115.472-79.844z"/></g></g><g><circle cx="1494.85" cy="372.517" r="157.821" fill="#ffcf84" transform="matrix(.8378 0 0 .86025 -592.24 1384.959)"/><path d="M660.134 1599.519c56.918 0 103.132 47.45 103.132 105.896s-46.214 105.897-103.132 105.897c-2.312 0-4.189 1.927-4.189 4.301s1.877 4.302 4.189 4.302c61.542 0 111.51-51.305 111.51-114.5 0-63.194-49.968-114.499-111.51-114.499-2.312 0-4.189 1.928-4.189 4.302 0 2.374 1.877 4.3 4.189 4.3z" fill="#fd9909"/><path d="M660.134 1811.312c-56.925 0-103.139-47.45-103.139-105.897 0-58.446 46.214-105.896 103.139-105.896 2.312 0 4.189-1.927 4.189-4.301s-1.877-4.302-4.189-4.302c-61.549 0-111.51 51.305-111.51 114.5 0 63.194 49.961 114.499 111.51 114.499 2.312 0 4.189-1.928 4.189-4.302 0-2.374-1.877-4.3-4.189-4.3z" fill="#fd9909"/><path d="M676.05 1840.205l-2.706-22.368c-.285-2.356 1.349-4.505 3.644-4.799 2.296-.292 4.382 1.383 4.675 3.739l2.673 22.13c-2.731.52-5.496.954-8.286 1.298zm24.723-5.57l-7.49-22.696c-.737-2.249.436-4.693 2.631-5.454 2.187-.762 4.566.445 5.303 2.692l7.448 22.552a127.645 127.645 0 01-7.892 2.906zm-113.529-15.956l11.645-19.663c1.198-2.028 3.779-2.674 5.756-1.44 1.977 1.234 2.606 3.882 1.408 5.91l-11.68 19.715a129.674 129.674 0 01-7.129-4.522zm181.675-36.123l-19.244-14.622c-1.851-1.413-2.245-4.108-.87-6.017 1.373-1.908 3.995-2.31 5.855-.899l18.817 14.3a132.274 132.274 0 01-4.558 7.238zm-234.448-34.823l22.613-10.45c2.102-.975 4.59-.008 5.537 2.157.947 2.165.009 4.713-2.103 5.688l-23.173 10.71a132.933 132.933 0 01-2.874-8.105zm253.96-75.247a139.22 139.22 0 011.768 8.41l-22.293 5.399c-2.246.545-4.508-.89-5.035-3.199-.537-2.31.863-4.629 3.108-5.174l22.453-5.436zm-237.556-43.522l19.923 13.38c1.935 1.3 2.48 3.968 1.215 5.955-1.265 1.986-3.862 2.545-5.798 1.245l-19.838-13.326c1.424-2.47 2.932-4.89 4.498-7.254zm13.003-16.596l16.203 12.235c1.86 1.406 2.262 4.101.888 6.013-1.366 1.912-3.996 2.323-5.856.916l-16.798-12.692a134.782 134.782 0 015.563-6.472zm172.678-17.725a132.499 132.499 0 016.677 5.201l-14.486 18.753c-1.44 1.86-4.08 2.17-5.89.695-1.809-1.475-2.11-4.183-.678-6.043l14.377-18.606zm-22.437-13.179a131.606 131.606 0 017.532 3.77l-10.213 19.67c-1.089 2.094-3.627 2.887-5.671 1.77-2.036-1.117-2.807-3.724-1.718-5.82l10.07-19.39zm-83.636-8.38l5.898 21.593c.62 2.285-.679 4.661-2.908 5.302-2.228.642-4.54-.693-5.16-2.98l-5.932-21.724a126.986 126.986 0 018.102-2.19z" fill="#fd9909"/><g><circle cx="1494.85" cy="372.517" r="157.821" fill="#ffcf84" transform="matrix(.21053 .80599 -.81572 .21307 1237.759 429.518)"/><path d="M1349.01 1687.49c14.303 54.756-19.08 110.969-74.5 125.445-55.421 14.476-112.029-18.231-126.332-72.988-.58-2.224-2.88-3.552-5.13-2.964-2.252.588-3.608 2.87-3.027 5.095 15.465 59.205 76.67 94.569 136.594 78.916 59.923-15.652 96.017-76.43 80.552-135.635-.581-2.225-2.88-3.553-5.131-2.965-2.251.588-3.607 2.87-3.026 5.095z" fill="#fd9909"/><path d="M1148.178 1739.947c-14.304-54.763 19.078-110.976 74.499-125.452 55.42-14.476 112.028 18.23 126.333 72.994.58 2.224 2.88 3.553 5.131 2.965 2.251-.588 3.607-2.871 3.026-5.095-15.466-59.212-76.67-94.57-136.594-78.917-59.923 15.652-96.018 76.424-80.552 135.636.581 2.224 2.88 3.552 5.131 2.964 2.252-.588 3.607-2.87 3.026-5.095z" fill="#fd9909"/><path d="M1124.78 1762.415l20.53-8.143c2.163-.858 4.612.181 5.467 2.317.854 2.136-.21 4.558-2.37 5.424l-20.313 8.052a128.934 128.934 0 01-3.313-7.65zm11.495 22.405l19.64-12.827c1.946-1.266 4.558-.743 5.832 1.18 1.272 1.915.726 4.503-1.22 5.77l-19.513 12.75a128.108 128.108 0 01-4.739-6.873zm-13.398-113.17l21.57 6.332a4.137 4.137 0 012.813 5.18c-.673 2.208-3.026 3.469-5.25 2.818l-21.63-6.352a129.212 129.212 0 012.497-7.979zm79.905 165.83l9.03-22.135c.874-2.131 3.331-3.178 5.486-2.329a4.131 4.131 0 012.324 5.412l-8.83 21.644c-2.7-.776-5.373-1.645-8.01-2.592zm-25.892-234.172l15.59 19.165c1.453 1.782 1.162 4.415-.653 5.862s-4.467 1.175-5.922-.614l-15.98-19.641a129.045 129.045 0 016.965-4.772zm135.169 225.68a134.738 134.738 0 01-7.531 3.785l-10.72-20.11c-1.082-2.026-.29-4.557 1.767-5.637 2.056-1.088 4.606-.316 5.687 1.709l10.797 20.254zm-18.426-239.316l-7.681 22.48c-.747 2.184-3.14 3.369-5.341 2.644a4.135 4.135 0 01-2.638-5.27l7.651-22.386c2.701.759 5.374 1.61 8.01 2.532zm19.004 8.398l-7.53 18.618c-.866 2.138-3.32 3.192-5.478 2.344a4.134 4.134 0 01-2.34-5.407l7.814-19.304a132.64 132.64 0 017.534 3.75zm60.2 161.732a131.512 131.512 0 01-3.254 7.712l-21.422-9.291a4.14 4.14 0 01-2.14-5.494c.944-2.106 3.437-3.067 5.56-2.15l21.256 9.223zm6.86-24.849c-.476 2.75-1.038 5.48-1.683 8.18l-21.218-4.953a4.147 4.147 0 01-3.104-5.018c.548-2.236 2.826-3.623 5.086-3.094l20.918 4.885zm-13.072-82.537l-18.992 11.022c-2.012 1.163-4.591.502-5.76-1.483-1.168-1.985-.483-4.54 1.53-5.703l19.109-11.087a127.726 127.726 0 014.113 7.251z" fill="#fd9909"/></g></g><g><path d="M948.392 721.49c-.351-.544-13.958-.047-15.014-.113-15.937-.988-31.851-2.549-47.712-4.369-52.714-6.049-115.612-10.212-159.11-43.824-49.481-38.235-7.791-94.4 46.404-84.01 66.818 12.81 117.43 79.008 174.833 112.014"/><circle cx="973.992" cy="733.752" r="66.648" fill="#abd1ce" transform="matrix(.97455 0 0 .97455 53.638 6.239)"/><path d="M974.532 746.28l-21.225 17.03c-9.611-11.323-15.414-25.985-15.414-41.99 0-35.85 29.104-64.954 64.953-64.954 33.195 0 60.605 24.956 64.485 57.117-10.86-1.273-19.88-7.98-27.16-19.87-.61 24.233-21.936 33.483-47.651 38.234-1.076-6.169-6.578-10.872-13.193-10.872-7.387 0-13.385 5.863-13.385 13.085 0 5.571 3.568 10.333 8.59 12.22z"/><path d="M1402.32 1084.416s277.86-293.196 447.87-281.452c27.24 1.881 104.85 12.44 179.83 67.134 54.1 39.456 100.34 84.911 145.21 131.266 21.95 22.692 31.74 54.512 26.32 85.612a98.743 98.743 0 01-53.71 71.69c-40.81 20.11-93.33 39.32-157.79 50.13l18.59 33.6c3.72 6.73 3.67 14.9-.13 21.58-5.87 10.01-16.9 25.25-36.03 40.38 0 0-1.09 7.12-2.13 13.9-.49 3.19-2.23 6.05-4.84 7.95a12.074 12.074 0 01-9.05 2.18 10.72 10.72 0 01-9-9.68c-.24-2.98-.1-6.13.42-8.65 0 0 12.36-85.12-54.85-155.57 0 0-18.49-28.99 9.79-47.6l105.7-63.64-66.04-55.543s-14.15 69.543-94.61 84.783c-34.65 6.57-100.03 8.62-140.39-52.86 0 0-209.93 166.82-265.12 232.78 0 0-8.4 8.04-15.72 2.83-4.1-2.92-9.52-8.98-3.5-18.16 0 0-9.88 8.92-18.58 2.97-5.8-3.97-10.27-11.75-4.3-20.89 0 0-10.1 9.24-19.22 2.71-6.14-4.41-7.56-12.18-4.54-21.04 0 0-10.68 10.6-19.77 4.45-6.36-4.3-9.43-13.24-5.09-19.74l40.34-57.91 10.34-43.21z" fill="#e9673c"/><path d="M1969.49 1321.246c-.03-.34 0-.68.06-1.03 9.98-50.78 1-104.49 1-104.49a4.013 4.013 0 013.29-4.61 4.003 4.003 0 014.6 3.29s2.33 13.98 3.34 34.53l13.68 3.82a4 4 0 012.77 4.93 3.988 3.988 0 01-4.93 2.77l-11.19-3.13c.32 12.05.12 25.76-1.21 39.93a170.36 170.36 0 01-8.42 7.1s-1.09 7.12-2.13 13.9c-.16 1.04-.45 2.04-.86 2.99z" fill="#d9512e"/><path d="M1517.08 976.733c96.12-82.318 233.23-180.669 333.11-173.769 27.24 1.881 104.85 12.44 179.83 67.134 54.1 39.456 100.34 84.911 145.21 131.266 21.95 22.692 31.74 54.512 26.32 85.612a98.743 98.743 0 01-53.71 71.69c-20.13 9.92-43.1 19.62-68.96 28.2l-94.54-129.06 24.18-14.56-66.04-55.543s-14.15 69.543-94.61 84.783c-34.65 6.57-100.03 8.62-140.39-52.86 0 0-41.2 32.73-91.9 74.95l-98.5-117.843z" fill="#d84b26"/><path d="M1410.01 1242.046l11.68-16.28a3.991 3.991 0 015.58-.92 4.01 4.01 0 01.92 5.58s-5.51 7.34-5.05 6.65c0 0-6.22 5.62-13.13 4.97zm-23.18-17.92l12.04-16.77c1.28-1.79 3.79-2.2 5.58-.92 1.79 1.29 2.2 3.79.92 5.59l-5.14 7.16c-.47.42-6.54 5.7-13.4 4.94zm-24.75-16.96l13.27-18.5c1.29-1.79 3.79-2.21 5.58-.92 1.8 1.29 2.21 3.79.92 5.58l-5.43 7.58c-.8.76-7.35 6.79-14.34 6.26z" fill="#d9512e"/><g><circle cx="1800.56" cy="725.265" r="59.788" fill="#e9673c" transform="translate(36.51 .345)"/><path d="M1807.39 673.71c8.74-5.018 18.88-7.888 29.68-7.888 33 0 59.79 26.79 59.79 59.788 0 22.145-12.07 41.494-29.98 51.825l-19.05-33.224c3.91 1.204 8.43.802 12.43-1.472 7.35-4.184 10.15-13.133 6.26-19.97-3.89-6.838-13.02-8.993-20.37-4.808-4.02 2.29-6.69 6.007-7.63 10.025l-31.13-54.276z"/></g><g><path d="M2007.34 1042.256l.22-.13s20.85 17.73 33.11 28.15c.72.61.89 1.64.41 2.45-.48.81-1.48 1.16-2.35.81l-48.97-19 18.76-11.29-1.18-.99zm-305.67-17.99l47.14-40.069a3.5 3.5 0 014.34-.153 3.5 3.5 0 011.14 4.188l-24.44 57.434c-8-7.06-15.54-15.64-22.37-26.04 0 0-2.06 1.63-5.81 4.64zM1942.6 987.8c3.8-15.559 7.73-40.957 6.24-72.442a2.856 2.856 0 012.14-2.906 2.86 2.86 0 013.28 1.504c8.52 17.48 21.88 53.317 15.67 96.84L1942.6 987.8z" fill="#76200a"/><path d="M1470.62 1845.2s14.43-31.01 43.95-36.48c17.87-192.15 52.68-379.59 112-572 23.48-76.03 100.1-122.48 178.37-108.14 22.59 4.13 43.89 13.18 60.62 29.86 7.42 7.41 60.72 72.76 40.6 174.85-6.38 32.34-19.4 70.39-28.45 95.61 0 0 157.7 188.58 178.65 213.64a5.033 5.033 0 01.46 5.8c-15.06 25.23-118.08 197.87-118.08 197.87s-18.09-17.44-11.33-53.51l-131.75-144.49s-66.94 161.6-79.01 190.72a7.277 7.277 0 01-6.68 4.5c-34.29.26-239.35 1.77-239.35 1.77z" fill="url(#_Linear1)" transform="translate(42.218 -5.197)"/><path d="M1558.38 1786.866l217.04 6.92-3.27 7.9-214.54-6.84c.25-2.66.51-5.33.77-7.98zm509.91-185.74l-102.45 182.23-5.67-6.22 102.63-182.58 5.49 6.57zm-146.17-183.56c-.75 2.11-1.48 4.16-2.19 6.14l7.28 8.7-82.28 218.33-7.05-7.73-8.05 19.44 92.29-244.88zm-41.94-283.71c3.01 1.45 5.96 3.04 8.83 4.77 1.08 4.68 3.37 9.97 7.72 15.42 6.94 8.68 59.66 50.82 50.58 154.57-.54 6.18.24 11.04 1.95 14.74-.28 1.56-.57 3.15-.89 4.74-.38 1.96-.79 3.94-1.23 5.94-.58-.58-1.15-1.18-1.69-1.84-4.32-5.18-7.1-13.01-6.11-24.28 8.75-99.96-42.17-140.51-48.85-148.87-7.36-9.2-9.86-18.07-10.31-25.19z" fill="#d9512e"/></g><g><path d="M1081.63 1401.82c-45.47 188.49-163.211 402.26-163.211 402.26 21.861-2.13 46.136 34.89 46.136 34.89H680.143a11.182 11.182 0 01-10.275-15.59c79.045-186.2 138.618-422.16 146.26-458.13 52.527-247.21 143.523-249.57 182.803-241.88 11.159 2.18 21.249 5.38 30.289 9.5 94.07 20.26 239.07 85.74 318.51 145.3 24.93 18.83 36.83 50.31 30.57 80.92-13.59 66.9-41.68 128.58-74.4 196.71 32.33 16.92 40.55 37.84 40.55 37.84s-166.99-13.01-206.65-16.09a7.284 7.284 0 01-5.28-2.94 7.234 7.234 0 01-1.23-5.91c6.93-30.53 30.87-135.95 30.87-135.95-28.75-7.7-55.97-17.48-80.53-30.93z" fill="url(#_Linear2)" transform="translate(38.29 2.296)"/><path d="M741.42 1741.746l241.649 13.96c-1.702 3.4-3.343 6.64-4.915 9.74l-240.404-13.89c1.228-3.26 2.45-6.53 3.67-9.81zm614.08-211.63l-176.45-.84 2.27-9.99 178.83.85c-1.53 3.31-3.08 6.64-4.65 9.98zm-324-405.42c2.007.28 3.919.61 5.722.97 11.159 2.18 21.249 5.38 30.289 9.5 3.86.83 7.8 1.74 11.82 2.72 9.47 7.41 19.35 17.14 28.44 29.88 29.19 40.93 50.47 113.48 20.77 240.86a281.21 281.21 0 01-8.62-4.51c-2.01 8.33-4.16 16.71-6.43 25.1-.1-.66-.07-1.35.11-2.03 36.05-136.06 15.81-211.86-13.97-253.61-28.98-40.64-66.622-48.32-66.622-48.32a5.084 5.084 0 01-1.51-.56zM1189.37 1431.946v-.05s31.77 9.29 63.35 13.29c1.68.16 3.01 1.52 3.13 3.21a3.47 3.47 0 01-2.62 3.64c-19.79 5.04-48.58 12.36-60.11 15.29l7.33-32.28c-3.72-1-7.41-2.03-11.08-3.1z" fill="#8abbb8"/></g><g><path d="M870.06 1171.806s3.558 9.07 9.603 14.79c3.42 3.24 10.165 4.69 16.2.65 11.428-7.65 19.896-26.8 17.985-47.51-.495-5.36-15.2-48.86-53.233-72.61l35.249-20.21s80.065 91.1 192.777 12.77c0 0 103.37 80.07 257.3 136.76l48.18-68.55s59.47-11.3 70.38-28.48c1.65-2.59 3.57-9.47-9.04-10.46-5.7-.45-49.46-6.32-126.89-48.49-21.24-11.58-91.21-47.098-184.49-139.723-19.62-19.486-144.2-144.918-336.221 0-33.697 25.432-166.518 128.383-227.718 225.533-25.38 40.4-20.652 92.77 11.552 127.97h-.004c29.46 32.2 77.562 39.12 114.899 16.52 67.337-40.76 163.47-98.96 163.47-98.96z" fill="#abd1ce"/><path d="M869.035 1172.426l15.395-10.28a5.008 5.008 0 016.892 1.59 5.002 5.002 0 01-1.585 6.89l-15.273 9.56c-2.831-4.37-4.404-8.38-4.404-8.38l-1.025.62zm524.696-43.99l-.33.48c-.4.07-.61.12-.61.12l-7.53 10.71c-8.49 1.17-15.56 2.09-15.56 2.09a5.008 5.008 0 01-5.6-4.33 5.004 5.004 0 014.32-5.59s13.36-1.72 25.31-3.48z" fill="#8abbb8"/><g><path d="M835.147 1192.776l-128.56 77.93c-37.33 22.63-85.448 15.73-114.915-16.48h.004c-32.192-35.19-36.92-87.54-11.553-127.92 61.192-97.15 194.036-200.129 227.737-225.563 192.022-144.918 316.6-19.486 336.22 0 93.28 92.625 163.25 128.143 184.49 139.723 10.9 5.93 21.12 11.15 30.67 15.73l-75.69 114.97c-118.83-52.54-194.91-111.48-194.91-111.48-112.711 78.33-192.776-12.77-192.776-12.77l-35.334 20.41c-42.42-30.85-96.516 5.7-96.516 5.7l71.133 119.75z" fill="#86b8b5"/><path d="M764.868 1072.476c-.561.36-.854.55-.854.55l5.077 8.55c-42.935 24.34-85.985 50.53-129.341 77.41a5.003 5.003 0 01-6.884-1.62 4.998 4.998 0 011.615-6.88c43.707-27.1 87.105-53.49 130.387-78.01zm321.473-11.21c7.88-7.55 35.48-37.49 44.36-93.68a2.558 2.558 0 015.02-.187c2.49 14.393 4.6 39.047-1.81 69.107-2.96 13.84-7.72 28.84-15.08 44.5-19.54-13.07-30.19-21.32-30.19-21.32-.76.53-1.53 1.06-2.3 1.58zm-217.42 1.21c-9-21.04-8.006-40.05-5.931-51.47a4.243 4.243 0 013.508-3.41 4.229 4.229 0 014.395 2.16c9.975 18.83 19.533 31.06 24.886 37.21l-26.858 15.51z" fill="#1f5753"/></g></g><g><path d="M1493.23 1157.146c-4.21-5.07-4.73-12.5-.8-18.18 4.72-6.84 14.11-8.56 20.95-3.83l23.16 16c6.83 4.72 8.55 14.11 3.82 20.95-4.3 6.23-12.48 8.2-19.07 4.93 3.66 4.95 3.96 11.87.27 17.21-4.22 6.12-12.23 8.07-18.7 4.88 3.61 4.86 3.92 11.68.28 16.94-4.14 6-11.99 7.92-18.35 4.81 3.57 4.79 3.87 11.51.3 16.68-4.49 6.5-13.41 8.13-19.91 3.64l-18.55-12.82c-6.49-4.49-8.13-13.41-3.64-19.9 3.85-5.56 10.94-7.56 16.98-5.2-4.08-4.89-4.58-12.09-.79-17.58 3.91-5.66 11.13-7.69 17.27-5.28-4.14-4.98-4.65-12.3-.79-17.88 3.98-5.76 11.32-7.82 17.57-5.37z" fill="#abd1ce"/><path d="M1456.83 1191.356l40.79 29.47c-3.96 1.95-8.71 2.05-12.83.03.27.36-25.04-17.68-24.82-17.6-2.77-3.32-3.89-7.71-3.14-11.9zm16.36-22.58c.08.05.15.1.22.15l41.67 30.1c.13.09.25.19.36.3a14.817 14.817 0 01-12.58-.22c.42.57-26.91-18.91-26.41-18.71-2.7-3.25-3.86-7.5-3.26-11.62zm16.77-23.69c.18.09.35.2.52.32l41.67 30.1c.71.51 1.2 1.21 1.45 1.98-3.9 1.57-8.39 1.48-12.31-.47.24.33-28.18-19.92-28.06-19.87a15.1 15.1 0 01-3.27-12.06z" fill="#8abbb8"/></g></g><g><path d="M1944.8 1649.856c0-6.36-5.15-11.51-11.5-11.51h-284.86c-6.35 0-11.5 5.15-11.5 11.51v198.4h307.86v-198.4zM1733.64 1638.346v-27.7c0-5.22 4.24-9.45 9.46-9.45h95.54c5.22 0 9.45 4.23 9.45 9.45v27.7h-18.9v-18.25h-76.64v18.25h-18.91z"/><path d="M1941.97 1642.306c1.76 2.02 2.83 4.66 2.83 7.55v2.67l-141.19 98.59a22.299 22.299 0 01-25.49.02l-141.18-98.28v-3c0-2.79.99-5.35 2.64-7.34l144.26 100.41c4.22 2.94 9.83 2.93 14.04-.01l144.09-100.61z" fill="#fff"/></g><defs><linearGradient id="_Linear1" x1="0" y1="0" x2="1" y2="0" gradientUnits="userSpaceOnUse" gradientTransform="scale(-919.662) rotate(66.804 .266 -2.263)"><stop offset="0" stop-color="#e9673c"/><stop offset="1" stop-color="#ffbdb4"/></linearGradient><linearGradient id="_Linear2" x1="0" y1="0" x2="1" y2="0" gradientUnits="userSpaceOnUse" gradientTransform="rotate(-37.652 2949.195 -767.194) scale(679.733)"><stop offset="0" stop-color="#abd1ce"/><stop offset=".52" stop-color="#bfdcd9"/><stop offset="1" stop-color="#fff"/></linearGradient></defs></svg>