<svg viewBox="0 0 2732 2048" xmlns="http://www.w3.org/2000/svg" fill-rule="evenodd" clip-rule="evenodd" stroke-linecap="round" stroke-linejoin="round" stroke-miterlimit="1.5"><path d="M381.585 1800.795h2026.039V1182.11s-227.537-8.263-405.809 284.34c-34.745 57.023-124.582 135.291-266.28 129.149-34.891-1.523-86.497-27.02-134.408-53.888-78.536-44.053-173.359-48.076-255.345-10.839a820.677 820.677 0 00-41.755 20.408c-49.654 26.043-140.993 65.107-209.262 26.018a73.884 73.884 0 00-2.162-1.193c-12.6-6.765-144.24-77.254-258.973-138.68-120.476-64.511-270.053-30.549-350.862 79.664-55.153 75.16-101.662 171.818-101.183 283.706z" fill="#ffc3bb"/><path d="M396.884 691.145c-.52.062-1.046.094-1.58.094-7.572 0-13.719-6.399-13.719-14.282 0-7.882 6.147-14.281 13.719-14.281 7.572 0 13.72 6.399 13.72 14.281 0 4.607-2.1 8.707-5.356 11.319l365.592 829.676a13.174 13.174 0 015.101-1.028c3.421 0 6.552 1.307 8.956 3.478l259.494-296.982a14.751 14.751 0 01-.434-3.566c0-7.894 6.147-14.29 13.72-14.29 7.571 0 13.718 6.396 13.718 14.29 0 1.561-.24 3.059-.686 4.468l233.655 266.876c2.438-2.271 5.657-3.655 9.18-3.655 4.376 0 8.29 2.145 10.801 5.483l700.153-520.694a15.402 15.402 0 01-.183-2.399c0-7.881 6.145-14.278 13.715-14.278 7.571 0 13.715 6.397 13.715 14.278 0 2.348-.536 4.569-1.511 6.524l54.64 94.31a13.242 13.242 0 015.938-1.409c3.51 0 6.717 1.384 9.143 3.643l276.63-229.536a14.715 14.715 0 01-1.097-5.603c0-7.883 6.145-14.283 13.716-14.283 7.582 0 13.727 6.4 13.727 14.283 0 7.882-6.145 14.281-13.727 14.281-3.012 0-5.791-1.011-8.059-2.726l-277.216 230.031c.39 1.32.598 2.729.598 4.188 0 7.882-6.145 14.29-13.715 14.29-7.571 0-13.715-6.408-13.715-14.29 0-2.855.804-5.533 2.206-7.767l-54.275-93.65a13.23 13.23 0 01-6.998 2.005c-4.12 0-7.826-1.904-10.338-4.9l-700.506 520.949c.049.507.073 1.028.073 1.548 0 7.882-6.144 14.278-13.715 14.278-7.57 0-13.727-6.396-13.727-14.278 0-1.358.182-2.665.524-3.909l-233.86-267.118c-2.383 2.082-5.455 3.338-8.805 3.338-3.626 0-6.926-1.472-9.379-3.858l-259.254 296.689a14.83 14.83 0 01.617 4.252c0 7.881-6.148 14.278-13.719 14.278-7.572 0-13.72-6.397-13.72-14.278 0-3.186.999-6.118 2.686-8.49l-366.443-831.58z" fill="#df5d4b"/><path d="M2300.329 1691.23l30.697-58.496 117.292 184.192-212.261-3.173 31.538-60.132L738.198 931.35 618.08 1135.849l-109.266-51.73L381.585 1325.7v-145.267l100.91-186.844 108.856 51.528 121.738-207.256 1587.24 853.367z" fill="#ea7049"/><path d="M555.595 1196.083s3.534-7.767 3.795-8.11c5.614-7.221 12.655-13.212 20.439-17.743 15.142-8.82 31.927-7.792 48.495-10.737 15.907-2.83 30.707-9.607 44.523-18.136 23.114-14.278 42.842-34.66 67.045-46.996 9.015-4.595 18.697-7.73 28.637-9.214 58.446-8.681 87.991 43.671 135.959 64.472 26.105 11.321 50.437 1.777 77.019 17.654 17.436 10.407 18.191 28.81 18.191 28.81H555.595zM2025.429 705.56c1.366-10.196 10.168-20.668 11.826-22.139 18.384-16.246 41.487-10.565 62.906-17.135 42.097-12.906 67.857-56.931 110.892-67.886 6.546-1.666 13.434-2.73 20.188-2.338 43.584 2.527 59.432 47.406 95.104 65.022 23.175 11.452 45.144 8.896 67.624 25.046 11.728 8.428 11.777 19.43 11.777 19.43s-283.092.48-380.317 0zM492.468 461.123c2.017-14.089 7.92-25.111 22.267-34.444 16.55-10.767 37.28-7.612 52.77-20.507 33.989-28.299 56.597-87.93 109.879-75.616 33.9 7.835 53.35 40.888 79.825 61.132 21.628 16.538 46.897 19.313 72.084 26.376 17.618 4.939 36.135 12.13 49.865 25.08 5.753 5.426 10.2 10.993 12.915 17.98.598 1.535-342.104-4.504-399.605 0z" fill="#fff1e8"/><circle cx="921.449" cy="861.229" r="165.389" fill="#ffcd80" transform="matrix(1.21912 0 0 1.26915 569.548 22.707)"/><path d="M1058.86 953.258a167.036 167.036 0 01-21.24 25.644M1037.62 978.902c-16.35 16.146-36.05 28.918-57.952 37.158M777.065 941.906a164.367 164.367 0 01-15.403-37.872c-3.654-13.655-5.603-28.004-5.603-42.805M1019.84 728.315a166.49 166.49 0 0145.23 50.883" fill="none" stroke="#ffcd80" stroke-width="5.71" transform="matrix(1.37338 0 0 1.42974 429.509 -114.488)"/><g><path d="M1864.007 1115.736c0 98.306-76.672 178.113-171.102 178.113-94.432 0-171.098-79.807-171.098-178.113 0-2.802-2.185-5.076-4.877-5.076-2.69 0-4.876 2.274-4.876 5.076 0 103.91 81.036 188.27 180.85 188.27 99.815 0 180.85-84.36 180.85-188.27 0-2.802-2.182-5.076-4.874-5.076-2.692 0-4.873 2.274-4.873 5.076z" fill="#fda31f"/><path d="M1521.807 1115.736c0-98.307 76.666-178.118 171.098-178.118 94.43 0 171.102 79.811 171.102 178.118 0 2.801 2.181 5.077 4.873 5.077s4.873-2.276 4.873-5.077c0-103.91-81.034-188.272-180.848-188.272-99.815 0-180.851 84.361-180.851 188.272 0 2.801 2.185 5.077 4.876 5.077 2.692 0 4.877-2.276 4.877-5.077z" fill="#fda31f"/><path d="M1794.156 1026.954l-4.581-4.86 6.961-7.113 7.993 8.48c1.893 2.008 1.861 5.22-.06 7.184l-11.774 12.028c6.676 7.748 12.243 16.04 16.7 24.856 5.696 11.263 9.588 23.399 11.672 36.39a5.22 5.22 0 01-1.069 4.101c-.92 1.13-2.262 1.797-3.694 1.812l-31.718.334c-2.389.022-4.439-1.75-4.853-4.203-2.155-12.71-7.117-24.324-14.878-34.849l-39.233 40.082c25.88 42.292 25.634 75.565 1.088 99.708-13.282 13.17-28.91 19.175-46.789 18.035-16.621-.75-33.2-7.465-49.673-20.308l-20.23 20.668c-1.92 1.96-5 1.928-6.894-.08l-7.846-8.324 6.954-7.105 4.435 4.706 19.792-20.22c1.763-1.8 4.532-1.945 6.46-.334 15.745 13.11 31.52 20.133 47.508 20.862 15.16.966 28.339-4.136 39.57-15.268 22.084-21.723 19.863-51.772-4.706-90.242-1.29-2.034-1.015-4.733.65-6.435l45.906-46.897a4.793 4.793 0 013.615-1.447c1.34.06 2.607.69 3.482 1.757 9.904 11.916 16.426 25.154 19.572 39.69l21.846-.228c-2.055-9.708-5.243-18.867-9.605-27.475-4.753-9.41-10.879-18.139-18.375-26.23-1.86-2.004-1.814-5.193.097-7.146l11.677-11.93zM1658.4 1179.87c6.498 3.702 12.285 5.35 17.409 4.668 3.26-.493 6.39-1.616 9.387-3.363l4.742 8.887c-4.067 2.346-8.316 3.848-12.809 4.534-8.397 1.113-18.231-1.885-29.32-9.544-1.222-.846-2.02-2.22-2.163-3.75-.134-1.52.396-3.034 1.445-4.105l24.604-25.136 6.831 7.247-20.126 20.562zm61.052-140.225c4.344-1.943 8.526-2.96 12.524-3.101.098-.005.205 0 .303-.005 8.473.238 15.973 3.145 22.482 8.702 1.065.913 1.714 2.268 1.782 3.703a5.2 5.2 0 01-1.454 3.847l-20.149 20.584-6.831-7.247 15.887-16.23c-3.603-1.994-7.54-3.057-11.82-3.199-2.861.124-5.837.917-8.95 2.308a1.988 1.988 0 01-.252.104c-3.369 1.29-6.678 3.68-9.973 7.047l-6.832-7.247c4.366-4.46 8.813-7.518 13.283-9.266z" fill="#fda31f"/><path d="M1696.678 1069.216c.547-7.567 3.668-14.355 9.491-20.304l6.832 7.247c-3.994 4.08-6.235 8.673-6.598 13.863l-.015.186c-.45 4.231.682 9.15 3.193 14.85l18.528-18.929 6.831 7.247-23.228 23.73a4.77 4.77 0 01-4.094 1.403c-1.487-.214-2.815-1.143-3.564-2.51-5.793-10.575-8.103-19.546-7.376-26.783zM1695.18 1142.296l-16.654 17.013-6.831-7.247 20.877-21.328a4.773 4.773 0 013.846-1.435c1.43.139 2.726.91 3.55 2.125 7.955 11.737 11.188 21.688 10.403 29.575l-.031.184c-1.093 8.01-4.506 14.983-10.293 20.894-3.235 3.306-6.617 5.96-10.11 7.986l-4.741-8.887c2.781-1.603 5.454-3.724 8.02-6.346 4.157-4.247 6.646-9.227 7.455-14.967.463-4.93-1.477-10.737-5.492-17.567z" fill="#fda31f"/><path d="M1678.797 1116.507c-24.542-41.012-23.934-73.017-.028-95.935 14.25-13.986 29.574-20.482 45.845-19.794 14.89.633 30.704 7.387 47.332 20.566l12.101-12.363a4.74 4.74 0 016.892.063l5.597 5.937-6.961 7.112-2.177-2.309-11.677 11.93c-1.77 1.808-4.556 1.95-6.486.322-15.909-13.36-30.862-20.519-45.02-21.118-13.788-.579-26.67 5.193-38.801 17.09-21.415 20.527-19.522 49.33 3.696 86.476 1.264 2.022.988 4.703-.663 6.39l-48.114 49.155a4.804 4.804 0 01-3.69 1.445c-1.375-.08-2.646-.762-3.517-1.872-7.732-9.907-13.026-19.581-15.925-28.96-2.833-7.962-4.544-15.926-5.136-23.91l-24.317-2.41c1.752 11.37 4.905 22.737 9.422 34.08 5.374 13.136 12.921 24.984 22.637 35.569 1.845 2.02 1.798 5.19-.106 7.136l-19.792 20.22 2.323 2.463-6.954 7.105-5.744-6.093c-1.883-1.998-1.856-5.206.063-7.167l19.903-20.333a128.171 128.171 0 01-21.316-34.957c-5.734-14.385-9.37-28.743-10.952-43.106a5.207 5.207 0 011.37-4.123 4.738 4.738 0 013.937-1.508l34.645 3.437c2.455.235 4.36 2.364 4.41 4.941.175 8.41 1.783 16.823 4.782 25.224l.08.223c2.135 6.96 5.801 14.07 10.958 21.352l41.383-42.278z" fill="#fda31f"/></g><g><circle cx="921.449" cy="861.229" r="165.389" fill="#ffcd80" transform="scale(1.21912 1.26915) rotate(-40.878 548.641 799.52)"/><path d="M1191.116 647.707c61.8 74.33 53.997 186.91-17.403 251.245-71.4 64.336-179.54 56.226-241.339-18.104-1.761-2.119-4.843-2.35-6.878-.516-2.035 1.833-2.257 5.042-.496 7.16 65.323 78.568 179.628 87.144 255.099 19.14 75.47-68.004 83.708-186.998 18.386-265.565-1.762-2.12-4.84-2.353-6.876-.519-2.036 1.834-2.255 5.04-.493 7.159z" fill="#fda31f"/><path d="M932.374 880.848c-61.8-74.33-54.005-186.91 17.396-251.246 71.4-64.336 179.545-56.226 241.346 18.105 1.76 2.118 4.84 2.352 6.875.518 2.036-1.834 2.255-5.04.494-7.158-65.323-78.568-179.628-87.147-255.098-19.143-75.471 68.004-83.71 187-18.387 265.569 1.761 2.118 4.844 2.35 6.879.516 2.035-1.834 2.256-5.043.495-7.16z" fill="#fda31f"/><path d="M1082.488 628.167l-6.52-.554.793-10.12 11.374.965c2.694.23 4.69 2.68 4.47 5.474l-1.34 17.116c9.919 1.31 19.34 3.786 28.252 7.416 11.388 4.635 21.96 11.16 31.702 19.563 1.106.942 1.742 2.346 1.77 3.829.015 1.481-.58 2.9-1.654 3.887l-23.772 21.862c-1.793 1.644-4.457 1.7-6.312.128-9.62-8.142-20.672-13.543-33.157-16.213l-4.467 57.036c46.154 14.345 66.886 39.67 63.504 74.649-1.764 19.007-9.805 34.194-24.04 45.513-13.04 10.757-29.797 16.976-50.325 18.487l-2.304 29.41c-.218 2.79-2.569 4.865-5.262 4.637l-11.166-.948.792-10.11 6.312.536 2.253-28.772c.201-2.563 2.205-4.559 4.675-4.654 20.146-.815 36.488-6.252 49.036-16.594 12.07-9.598 18.827-22.434 20.321-38.503 3.042-31.47-17.528-52.678-60.288-65.027-2.254-.66-3.743-2.886-3.554-5.308l5.228-66.735a5.163 5.163 0 011.824-3.557 4.705 4.705 0 013.737-1.043c14.98 2.262 28.233 7.828 39.75 16.675l16.375-15.056c-7.657-5.94-15.826-10.694-24.536-14.23-9.508-3.877-19.628-6.303-30.382-7.314-2.666-.248-4.636-2.69-4.419-5.47l1.33-16.975zm-6.516 208.113c7.24-1.628 12.653-4.325 16.097-8.332 2.155-2.592 3.817-5.575 4.984-8.937l9.172 3.489c-1.6 4.544-3.868 8.575-6.834 12.154-5.65 6.563-14.97 10.996-28.169 12.76a4.778 4.778 0 01-3.994-1.362 5.225 5.225 0 01-1.487-4.088l2.802-35.768 9.72.825-2.291 29.259zm-41.99-147.62c2.063-4.43 4.587-8.047 7.52-10.878.071-.07.155-.14.226-.21 6.556-5.593 14.055-8.504 22.47-8.737 1.378-.035 2.721.547 3.675 1.585a5.214 5.214 0 011.319 3.9l-2.295 29.291-9.72-.825 1.808-23.095c-3.978.946-7.622 2.825-10.947 5.634-2.086 2.043-3.838 4.67-5.317 7.842-.033.084-.079.168-.125.25-1.736 3.271-2.736 7.333-3.11 12.123l-9.722-.825c.497-6.347 1.937-11.689 4.218-16.056z" fill="#fda31f"/><path d="M1035.352 726.534c-4.344-6.094-6.251-13.353-5.588-21.82l9.721.826c-.455 5.807.739 10.806 3.726 14.978l.106.15c2.32 3.506 6.268 6.454 11.75 9.052l2.11-26.934 9.72.825-2.645 33.768c-.123 1.568-.941 2.99-2.214 3.85a4.721 4.721 0 01-4.273.53c-11.027-4.049-18.414-9.258-22.413-15.225zM1080.16 782.812l-1.896 24.209-9.721-.825 2.377-30.351a5.136 5.136 0 012.006-3.705c1.169-.87 2.633-1.17 4.02-.812 13.393 3.455 22.094 8.776 26.458 15.275l.092.16c4.21 6.8 6.012 14.399 5.353 22.81-.369 4.704-1.257 9.015-2.624 12.927l-9.172-3.49c1.095-3.106 1.783-6.531 2.075-10.261.473-6.045-.776-11.506-3.772-16.397-2.75-4.043-7.867-7.111-15.196-9.54z" fill="#fda31f"/><path d="M1051.56 774.474c-44.337-14.29-63.998-38.903-60.33-72.519 1.982-20.283 9.486-35.636 22.221-46.2 11.657-9.667 27.86-15.334 48.717-16.698l1.378-17.592c.22-2.794 2.57-4.876 5.25-4.648l7.965.676-.793 10.12-3.097-.263-1.33 16.976c-.201 2.574-2.219 4.58-4.701 4.662-20.428.737-36.234 5.512-47.316 14.705-10.789 8.956-16.901 22.097-18.594 39.358-3.289 30.11 16.25 50.599 57.157 62.866 2.227.668 3.704 2.883 3.516 5.284l-5.48 69.946a5.174 5.174 0 01-1.88 3.607 4.75 4.75 0 01-3.836.98c-12.075-2.222-22.16-5.93-30.248-11.047-7.146-4.09-13.447-8.945-18.914-14.58l-19.9 14.746c8.471 7.403 18.001 13.85 28.548 19.35 12.32 6.27 25.475 10.086 39.476 11.47 2.664.27 4.622 2.7 4.405 5.468l-2.253 28.773 3.305.28-.792 10.11-8.172-.694c-2.681-.227-4.677-2.672-4.459-5.461l2.267-28.935c-13.428-1.836-26.112-5.808-38.093-11.909-13.379-6.97-25.154-15.349-35.38-25.131-1.072-1.027-1.649-2.524-1.555-4.05a5.098 5.098 0 012.028-3.823l28.357-21.005c2.003-1.495 4.782-1.183 6.44.732 5.42 6.24 11.924 11.504 19.473 15.813l.2.115c5.99 3.807 13.232 6.686 21.708 8.679l4.713-60.161z" fill="#fda31f"/><g><path d="M1037.62 978.902c-16.35 16.146-36.05 28.918-57.952 37.158" fill="none" stroke="#ffcd80" stroke-width="5.6" transform="matrix(-.82719 -1.14131 1.09632 -.86114 877.764 2556.747)"/><path d="M777.065 941.906a164.367 164.367 0 01-15.403-37.872c-3.654-13.655-5.603-28.004-5.603-42.805" fill="none" stroke="#ffcd80" stroke-width="5.68" transform="matrix(-.14377 -1.42188 1.36583 -.14967 11.744 2204.959)"/><path d="M1019.84 728.315a166.49 166.49 0 0145.23 50.883" fill="none" stroke="#ffcd80" stroke-width="5.6" transform="matrix(-.82719 -1.14131 1.09632 -.86114 877.764 2556.747)"/></g></g><g><path d="M1300.26 796.275l1.78 10.066c5.267 2.072 8.62 7.765 7.73 13.79-.452 3.045-1.902 5.671-3.963 7.567l3.901 22.076.098.646.06.642.038.64v.634l-.025.63-.06.623-.074.617-.122.608-.146.597-.17.59-.196.578-.22.566-.243.553-.28.54-.293.525-.317.51-.342.493-.365.476-.39.457-.415.437-.427.418-.45.397-.464.375-.488.351-.5.328-.524.303-.548.277-.549.25-.573.223-.585.194-.597.165-.622.135-.61.101-.621.069-.622.035-.61.003-.597-.028-.597-.06-.598-.089-.585-.119-.573-.148-.56-.177-.562-.204-.548-.232-.524-.258-.525-.284-.5-.309-.487-.333-.476-.358-.45-.381-.452-.404-.414-.425-.403-.447-.377-.467-.366-.487-.33-.508-.316-.525-.293-.545-.268-.56-.244-.58-.207-.593-.183-.61-.17-.625-.123-.64-4.584-25.959-227.607-36.308c-4.756-.759-8.638-4.36-9.911-9.19-1.272-4.831.305-9.99 4.025-13.167l193.88-165.601-24.661-139.625c-1.217-6.889 3.167-13.511 9.785-14.778 6.618-1.266 12.978 3.299 14.195 10.188l14.998 84.942c.402.167.78.357 1.158.572l547.677 307.648 17.52-39.03c2.852-6.346 10.106-9.09 16.201-6.125 6.108 2.965 8.741 10.525 5.889 16.871l-130.398 290.538c-2.852 6.345-10.118 9.087-16.214 6.13-6.095-2.97-8.729-10.534-5.888-16.88l86.704-193.14-478.237-115.175zm-4.803-27.212l493.585 118.877 5.303-11.819-532.853-299.324 33.965 192.266zm-22.566 12.602l-26.32-148.998-162.325 138.65 192.23 30.664-3.524-19.942a3.922 3.922 0 01-.061-.374z" fill="#ea7049"/><path d="M1864.908 819.545c2.5-5.135.512-11.41-4.426-14.002l-53.47-28.11c-4.925-2.592-10.96-.529-13.447 4.606l-9.022 18.609c-2.499 5.134-.512 11.41 4.426 14.002l53.47 28.11c4.926 2.592 10.96.528 13.447-4.607l9.022-18.608zm-564.1-326.677c5.487-11.295 1.122-25.1-9.728-30.81l-108.219-56.953c-10.849-5.708-24.11-1.175-29.594 10.12-5.485 11.295-1.129 25.1 9.72 30.81l108.222 56.952c10.85 5.71 24.114 1.176 29.6-10.119z"/><path d="M1449.03 968.994c-37.184 57.86-70.32 82.012-70.32 82.012 16.568 11.918 20.835 32.44 16.312 44.141l-188.052-121c91.023-127.885 94.034-210.53 89.645-243.75-32.21-244.043-31.868-292.125-21.322-335.254 23.54-96.311 75.146-127.41 119.803-134.842 51.849-8.588 102.71 19.571 125.008 68.664l.012-.062.086.258c.573 1.264 1.121 2.54 1.658 3.829 6.449 15.602 11.435 32.35 15.031 49.141l89.825 285c31.16 98.9-9.984 206.863-97.81 256.618l-79.877 45.245z" fill="#a8cfcc"/><path d="M1534.965 373.672a343.623 343.623 0 011.926 8.46l14.215 45.083c10.253 105.674 18.848 348.06-87.606 533.58l-14.47 8.199c-9.924 15.433-19.555 28.48-28.333 39.293.17-.546.427-1.066.78-1.536.317-.419.634-.838.951-1.269l.11-.14.158-.203.305-.419.44-.596.158-.203.06-.089c.305-.419.622-.838.927-1.256l.061-.077.134-.19.463-.634.293-.394.146-.203.11-.152.195-.28.707-.964.025-.038.938-1.282.086-.14.146-.19.317-.457.439-.609.122-.178.06-.076c.318-.431.622-.876.927-1.307l.037-.05.097-.128.512-.736.293-.419.11-.152.097-.14c.622-.888 1.231-1.776 1.853-2.665l.061-.089.098-.127.365-.545.464-.673.073-.101.036-.051c.317-.47.634-.927.951-1.396l.61-.901.305-.457.073-.102.06-.089c.623-.926 1.244-1.853 1.866-2.78l.024-.05.061-.076.403-.622.463-.698.049-.063.012-.038a218.7 218.7 0 001.84-2.805l.062-.102.073-.089c.585-.926 1.182-1.84 1.768-2.754l.06-.101.11-.178.354-.546.341-.545.146-.216.074-.114c.256-.42.524-.825.78-1.244a522.257 522.257 0 005.303-8.605c145.587-241.467 85.217-589.028 85.217-589.028a5.194 5.194 0 01.11-2.258zm-268.413 499.363l183.087 91.923-5.669 8.427.366.178-.78 1.244-.22.33-.695 1.091-.17.28-.89 1.37-.878 1.383-.134.19-.89 1.371-.951 1.435-.061.101-.866 1.32-.085.127-.95 1.409-.915 1.37-.134.19-.902 1.346-.013.013-.95 1.396-.11.152-.83 1.218-.158.216-.938 1.358-.915 1.307-.207.292-.805 1.155-.134.178-.926 1.307-.183.254-.756 1.066-.232.33-.938 1.282-.025.038-.902 1.244-.256.355-.756 1.028-.195.267-.926 1.256-.22.292-.744 1.015-.268.343-.95 1.27 22.492-33.367-181.71-91.231a506.406 506.406 0 004.292-9.12z" fill="#82b5b2"/><path d="M1796.064 889.63l-508.41-122.444c-6.546-1.578-13.105 2.68-14.617 9.505-1.524 6.824 2.573 13.647 9.12 15.226l508.409 122.44c6.559 1.586 13.118-2.678 14.63-9.5 1.511-6.825-2.573-13.648-9.132-15.227zm11.643-34.85l-550.701-309.342c-5.917-3.326-13.318-1.023-16.513 5.143-3.195 6.164-.981 13.869 4.94 17.195l550.692 309.342c5.913 3.326 13.325 1.023 16.52-5.143 3.193-6.164.975-13.87-4.938-17.196z" fill="#ea7049"/><g><path d="M1208.35 521.165c-13.25-19.851-35.33-32.686-59.78-34.757-39.68-3.419-104.87 7.533-130.26 107.308-8.65 33.983-8.93 71.868 17.49 264.157 3.6 26.175 1.13 91.293-73.533 192.057l154.253 95.34c3.71-9.22.21-25.39-13.38-34.78-2.92 4.42 166.89-104.24 134.13-501.252-2.5-30.214-12.26-63.223-28.92-88.073z" fill="url(#_Linear1)" transform="matrix(1.21912 0 0 1.26915 33.85 -358.372)"/><path d="M1268.429 868.872l183.087 97.177a445.767 445.767 0 01-5.29 8.593l-182.003-96.606a446.747 446.747 0 004.206-9.164z" fill="#82b5b2"/></g><g><path d="M1821.739 668.964c31.831-53.647 51.325-108.758 65.954-164.449a134.935 134.935 0 00-.914-71.97c-14.934-51.501-58.847-131.116-187.61-145.693l-13.813-1.281c-43.864-4.068-83.985 24.914-93.909 67.836-15.824 69.13-13.483 167.836 107.722 210.778 0 0-10.144 36.149-19.86 70.733-11.813 42.104 4.218 87.085 40 112.22 42.998 30.228 93.189 52.121 145.416 62.411-4.95 10.867-7.363 15.226-12.96 32.678-1.157 3.612-.78 6.562.379 9.01a11.922 11.922 0 008.9 6.624c3.876.61 7.802-.724 10.496-3.568 3.877-4.234 7.315-9.11 11.874-16.431l21.908-4.693a21.043 21.043 0 0013.483-9.524 21.034 21.034 0 002.438-16.328c-6.497-25.335-13.386-56.328-31.685-82.186-17.97-25.402-41.706-41.938-67.82-56.167z" fill="#a8cfcc"/><path d="M1904.09 751.415c4.255 9.893 7.535 19.99 10.326 29.82-1.987 13.77-7.095 31.91-18.628 53.977l-12.374 2.65c-.95 1.529-1.853 2.95-2.719 4.282.086-.221.196-.44.317-.651 33.331-56.377 23.322-87.941 23.322-87.941a5.161 5.161 0 01-.244-2.137zM1828.956 673c-13.947-7.132-30.307-13.756-48.326-19.327-2.572-.799-4.047-3.626-3.28-6.312.769-2.687 3.487-4.22 6.06-3.422 15.775 4.88 30.32 10.555 43.18 16.667a532.585 532.585 0 01-4.851 8.357 387.443 387.443 0 017.217 4.037z" fill="#82b5b2"/><circle cx="1592.38" cy="682.349" r="49.607" fill="#a8cfcc" transform="matrix(1.21912 0 0 1.26915 31.515 -374.55)"/><path d="M1950.734 487.86l-38.195-1.562c2.523-32.338 28.564-57.803 60.273-57.803 33.307 0 60.359 28.092 60.48 62.741l-68.538-2.803c2.255-2.34 3.694-5.833 3.694-9.735 0-7.038-4.682-12.753-10.448-12.753-5.767 0-10.448 5.715-10.448 12.753 0 3.595 1.22 6.842 3.182 9.162z"/><g><path d="M1360.43 745.959l5.57-19.05c-87.18-29.67-99.39-93.123-92.29-145.018 6.22-45.2 46.84-77.548 92.29-73.5 69.1 7.513 108.4 36.959 130.75 67.794a134.922 134.922 0 0119.98 117.478c-9.2 31.236-20.77 62.204-36.92 92.643l-119.38-40.347z" fill="url(#_Linear2)" transform="matrix(1.21912 0 0 1.26915 33.85 -358.372)"/><path d="M1665.13 549.092l53.483-65.581c.817-1.001 2.195-1.264 3.304-.63 1.098.635 1.622 1.992 1.244 3.244-8.205 27.071-26.333 86.912-26.333 86.912l-.134-.018 2.475-8.834c-12.594-4.463-23.907-9.527-34.038-15.093z" fill="#04433f"/></g></g></g><defs><linearGradient id="_Linear1" x1="0" y1="0" x2="1" y2="0" gradientUnits="userSpaceOnUse" gradientTransform="matrix(13.5706 -452.62 471.195 13.0356 1049.32 795.526)"><stop offset="0" stop-color="#a8cfcc"/><stop offset=".6" stop-color="#b8d5d1"/><stop offset=".81" stop-color="#dbe3dc"/><stop offset="1" stop-color="#fff1e8"/></linearGradient><linearGradient id="_Linear2" x1="0" y1="0" x2="1" y2="0" gradientUnits="userSpaceOnUse" gradientTransform="matrix(8.41691 -297.098 309.291 8.0851 1397.17 647.178)"><stop offset="0" stop-color="#82b5b2"/><stop offset="1" stop-color="#a8cfcc"/></linearGradient></defs></svg>