<svg viewBox="0 0 2732 2048" xmlns="http://www.w3.org/2000/svg" fill-rule="evenodd" clip-rule="evenodd" stroke-linejoin="round" stroke-miterlimit="2"><path d="M673.084 1432.476h355.47v31.71H684.64l86.318 243.02H738.52l-223.43-615.66 29.79-10.86 128.204 351.79z"/><path d="M374.466 1669l7.737-363.34c2.147-100.9 81.629-183.13 182.398-188.7 222.667-12.43 442.489-15.59 657.779-4.02 104.57 5.64 190.92 83.72 207.01 187.2l.06-.01a204.05 204.05 0 01-42.39 158.99c-45.45 56.51-122.19 135.24-241.01 210.34 0 0 43.94 12.7 48.43 32.33 0 0-334.326-.39-419.529-.48a7.623 7.623 0 01-7.087-4.87 7.6 7.6 0 011.961-8.36c59.853-54.71 285.255-260.73 285.255-260.73l-380.201 3.86-7.542 262.48c-.166 5.78-4.925 10.38-10.713 10.34-57.141-.4-330.012-2.27-330.012-2.27s-1.881-19.95 47.854-32.76z" fill="url(#_Linear1)" transform="translate(38.29 2.296)"/><path d="M1273.55 1609.116l-291.043-78.14 8.756-8.01 292.078 78.42c-3.22 2.57-6.48 5.15-9.79 7.73zm-562.832-90.27l-294.866 7.12.213-10.01 294.94-7.12-.287 10.01z" fill="#82b5b2"/><path d="M1092.88 1430.086l103.45-.24a2 2 0 011.98 1.7c.15.98-.43 1.92-1.38 2.22l-164.284 51.38 60.235-55.06zm-379.72 3.72l-1.338 46.62-87.26-39.28a3.93 3.93 0 01-2.228-4.41 3.914 3.914 0 013.848-3.1l86.979.17z" fill="#346864"/><path d="M1180.33 683.486s-100.47-135.655-326.481-76.409c-30.436 7.979-271.508 84.49-366.607 299.454-9.299 21.02-59.437 116.589 13.249 167.679 50.714 35.66 105.094 29.05 295.641-34.72 16.124-5.4 115.446-26.38 97.49-49.318 0 0 8.014 1.622 11.862-3.711l.766 4.779a6.65 6.65 0 001.874 3.662l26.842 26.758a5.755 5.755 0 005.65 1.45 5.735 5.735 0 004.018-4.23l6.242-26.877s90.394 19.617 144.874-68.469c0 0 2.27 87.006 69.62 122.126 19.67 10.26 128.89 32.05 157.55-80.591 20.04-78.788 34.68-219.568 47.49-320.718 0 0 66.93-42.015 71.99-62.139 1.82-7.228-5.52-19.1-21.88-7.094 0 0 24.43-20.773 16.28-30.562-4.54-5.445-13.83-5.73-32.23 10.025 0 0 22.92-23.474 12.45-32.868-11.26-10.089-24.33 10.662-36.31 21.832 0 0 26.66-40.936 11.58-48.005-6.39-2.995-13.29-3.372-36.56 25.932-21.55 27.137-52.11 29.937-74.26 27.275 0 0 8.72-51.129-1.27-56.083-11.28-5.598-21.45 4.41-45.96 54.688-24.2 49.618-36.27 98.78-53.91 136.134z" fill="url(#_Linear2)" transform="translate(38.29 2.296)"/><path d="M952.678 597.544c174.773-21.965 257.863 77.946 265.383 87.51-11.4 40.665-30.95 127.54-30.95 127.54l-20.57-.288c.33 50.763-32.4 111.433-32.4 111.433l-.13 2.135c-51.8 83.702-137.193 69.821-145.257 68.622l2.635-13.237-6.846-19.205-2.13-5.44 17.814-23.876c7.06-9.464 5.41-22.81-3.741-30.272l-45.407-37.016-.471-.36a103.057 103.057 0 00-76.455-20.277c-57.574 7.797-173.331 23.477-173.331 23.477l-69.887-108.054c81.534-78.659 177.172-121.522 228.102-140.119l93.64-22.573z" fill="#82b5b2"/><path d="M943.807 988.957c1.95-2.37 8.395-11.32 2.615-19.96l-8.135-9.836s11.41 1.646 16.048 1.205c0 0-.637 11.424 8.798 13.41a6.976 6.976 0 006.882-2.497c4.552-5.719 14.748-18.575 14.748-18.575l6.713 28.972a3.1 3.1 0 01.007 1.37l-5.901 26.69-2.657 11.44a5.735 5.735 0 01-4.018 4.23c-2.008.58-4.17.02-5.65-1.45l-26.842-26.758a6.65 6.65 0 01-1.874-3.662l-.734-4.579zM903.515 844.81s36.212 5.304 59.449 31.068l-16.01-77.26-53.047.307 9.608 45.885z" fill="#ffbf2f"/><path d="M985.859 1008.486l-.277 1.25-2.657 11.44a5.735 5.735 0 01-4.018 4.23c-2.008.58-4.17.02-5.65-1.45l-12.176-12.14 24.778-3.33zm-35.95-48.12c1.708.09 3.275.11 4.426 0 0 0-.637 11.424 8.798 13.41a6.97 6.97 0 003.044-.048l1.468 6.827 22.083-6.425 1.748 7.546c.054.233.08.47.08.707l-46.104 13.601a6.652 6.652 0 01-.911-2.448l-.734-4.579c.35-.425.844-1.06 1.386-1.87l9.869-2.87-5.152-23.85zm-23.537-108.964l-11.361-52.599 13.53-.078 12.898 59.971c-5.173-3.005-10.315-5.4-15.067-7.294z"/><path d="M933.85 999.942l-30.42-2.432a4.002 4.002 0 01-3.668-4.306 4.002 4.002 0 014.306-3.668l34.265 2.738c-3.288.828-6.42.194-6.42.194 1.974 2.521 2.53 5.02 1.937 7.474zm13.779-37.72c.28-.21.594-.387.936-.52l7.915-3.106a15.672 15.672 0 009.546-11.052v-.002a25.098 25.098 0 00-10.725-26.68l-20.742-13.55a4.001 4.001 0 01-1.161-5.537 4.001 4.001 0 015.536-1.16l19.95 13.03.534-4.535a4.002 4.002 0 014.44-3.505 4.002 4.002 0 013.505 4.44l-1.146 9.728a33.103 33.103 0 017.603 29.575l-.001.002a23.672 23.672 0 01-14.418 16.694l-7.915 3.104a4.002 4.002 0 01-4.066-.688 3.996 3.996 0 01-3.65.596l-34.13-11.26a4 4 0 012.506-7.597l34.13 11.26c.513.17.968.431 1.353.762zm240.892-193.444s-29.14 122.188-35.53 176.76a3.997 3.997 0 003.51 4.437 3.992 3.992 0 004.43-3.507c6.37-54.286 35.38-175.833 35.38-175.833a4.006 4.006 0 00-2.97-4.819c-2.14-.512-4.3.815-4.82 2.962zM722.339 852.28c-69.373 15.55-111.76 28.76-132.362 40.228a5 5 0 004.864 8.737c20.176-11.23 61.745-23.978 129.686-39.207a5.002 5.002 0 003.785-5.972 5.004 5.004 0 00-5.973-3.786zm687.602-206.426l-1.24.793a4723.39 4723.39 0 00-2.81 22.552l-20.52-5.397a1.98 1.98 0 01-1.46-1.668c-.11-.802.28-1.589.98-1.99l25.05-14.29zm66.45-96.66c3.37 10.408-17.58 28.22-17.58 28.22.6-.44 1.19-.849 1.76-1.226-14.61 13.394-34.34 29.286-53.39 37.671a3.998 3.998 0 11-3.22-7.32c32.07-14.119 66.08-50.38 72.43-57.345zm-18.35-18.523c-.18 10.842-15.18 26.206-15.18 26.206 1.1-.95 2.18-1.842 3.23-2.677-14.72 14.154-36.04 32.86-54.77 42.371-1.97 1-4.38.213-5.38-1.755a4.002 4.002 0 011.76-5.378c30.21-15.342 67.3-55.44 70.34-58.767zm-24.43-14.775c-4.07 13.77-14.61 29.945-14.61 29.945.33-.304.66-.615.98-.93-12.2 12.767-28.67 26.745-47.2 33.774a4.001 4.001 0 01-5.16-2.322 4.008 4.008 0 012.32-5.159c31.99-12.13 57.37-46.267 63.67-55.308z" fill="#82b5b2"/><path d="M823.479 851.676l30.927-32.833a4.903 4.903 0 018.472 3.471l-.53 24.098-38.87 5.264zm342.992-34.425c-.09-4.36-.71-30.163-3.37-47.869-.2-.837.26-1.69 1.07-1.99.8-.3 1.71.048 2.1.813 5.78 11.01 14.56 28.86 19.59 44.371l-19.32-.27c.01 1.64-.02 3.29-.07 4.945z" fill="#346864"/><circle cx="910.065" cy="487.928" r="76.828" fill="#99c3c0" transform="matrix(1.01592 0 0 1.01932 20.6 -7.655)"/><path d="M893.266 548.178c-16.05-14.35-26.162-35.24-26.162-58.48 0-43.222 34.974-78.312 78.05-78.312 26.386 0 49.73 13.164 63.863 33.301l-63.921 57.151a22.02 22.02 0 00-3.516-6.468c-6.678-8.537-18.17-10.72-25.644-4.874-7.475 5.847-8.122 17.525-1.444 26.062 2.075 2.653 4.614 4.692 7.354 6.068l-28.58 25.552z"/><path fill="#fff" d="M1754.43 625.308h59.642l25.148 86.628h-59.642z"/><path d="M1781.056 709.96h18.827a1.98 1.98 0 011.975 1.976c0 1.091-.89 1.976-1.981 1.976h-20.306c-.875 0-1.647-.58-1.893-1.425l-25.147-86.628a1.974 1.974 0 011.899-2.527h41.835c1.092 0 1.976.885 1.975 1.976 0 1.09-.882 1.976-1.973 1.976h-39.212l24 82.677z"/><path d="M1812.586 627.284h-16.32a1.975 1.975 0 01-1.974-1.976c0-1.09.882-1.976 1.973-1.976h17.806c.875 0 1.647.58 1.892 1.425l25.148 86.629a1.973 1.973 0 01-1.891 2.526h-39.343a1.975 1.975 0 01-1.975-1.976c0-1.09.89-1.975 1.981-1.975h36.703l-24-82.677z"/><path d="M1762.138 633.091h49.379l3.31 9.582h-49.378zM1766.98 648.823h49.38l3.31 9.581h-49.378zM1771.824 664.555h49.378l3.311 9.581h-49.379zM1776.666 680.286h49.379l3.31 9.581h-49.378zM1781.508 696.017h49.379l3.31 9.582h-49.378z"/><g><path d="M1789.51 672.758c-1.95-5.498-13.59-39.904-4.6-54.513a4.111 4.111 0 012.68-1.822c3.2-.518 10.02.831 19.67 16.389 0 0 87.62 131.595 119.25 151.256 0 0 .84-100.484 119.15-116.913 16.42-2.281 131.84-24.715 196.53 135.43 21.4 52.983 21.16 95.346 20.78 140.628-.25 35.895-18.88 69.157-49.37 88.107-39.95 24.84-89.49 28.72-132.82 10.39-29.07-12.25-66.59-24.7-109.18-30.97l-93.5-9.04s4.67 25.55-34.04 20.63c0 0-30.48-4.02-24.39-24.463 0 0-20.54-3.322-16.3-23.176 0 0-19.47-15.192-2.18-33.738 0 0-56.21-.676-67.64-27.445a9.967 9.967 0 01-.15-7.268c1.05-2.911 3.77-6.011 10.4-6.238 0 0 77.76-1.195 98.22-7.054l-44.45-75.621s-34.62-19.029-42.6-49.448c-8.22.038-15.2-6.302-15.83-14.629-.54-7.123 3.74-13.507 10.08-15.952l-3.64.275c-8.6.648-16.1-5.804-16.75-14.399-.52-6.937 3.58-13.163 9.7-15.648-8.3.383-15.45-5.911-16.08-14.246-.64-8.487 5.73-15.897 14.21-16.537l52.85-3.985z" fill="url(#_Linear3)" transform="translate(38.29 2.296)"/><path d="M1915.11 1013.846c-18.3-1.05-32.99 3.34-32.99 3.34-2.65.8-5.44-.71-6.23-3.35s.71-5.43 3.36-6.23c0 0 21.37-6.408 45.62-2.79l-8.48-.82s.88 4.81-1.28 9.85zm-66.56-17.596c3.5-10.613 15.41-34.023 53.25-39.797a4.997 4.997 0 015.69 4.19 5 5 0 01-4.19 5.696c-33.37 5.092-43.01 26.062-45.47 33.802-.78-.145-5.19-1.06-9.28-3.89zm-14.11-28.42c4.89-10.43 18.22-27.379 54.04-34.05 2.71-.506 5.33 1.286 5.83 4 .51 2.712-1.29 5.325-4 5.83-44.69 8.324-48.79 34.008-48.65 33.377 0 0-4.47-3.487-7.22-9.158zm-7.37-25.446c5.85-7.583 24.37-28.685 51.7-32.6a5.003 5.003 0 015.66 4.24 5.005 5.005 0 01-4.24 5.658c-19.24 2.756-33.34 15.366-40.78 23.608-.93-.018-5.75-.187-12.34-.906zm290.83-50.61l61.05 21.461a5.01 5.01 0 006.38-3.059 5.01 5.01 0 00-3.06-6.375l-61.05-21.462a5.007 5.007 0 00-6.38 3.06 5.01 5.01 0 003.06 6.375zm-242.8-5.405c6.41-1.267 76.96-14.966 128.42-14.413a5.005 5.005 0 014.95 5.054 5.009 5.009 0 01-5.06 4.946c-53.08-.57-124.47 13.682-123.1 13.288l-5.21-8.875zm-39.24-66.746l15.47 6.96a4.009 4.009 0 011.95 5.313 4.012 4.012 0 01-5.32 1.941l-5.15-2.397-6.95-11.817zm-10.68-152.705c9.05 1.474 15.49 6.307 17.83 10.13 5.23 8.53 3.16 16.903-1.84 22.867.32 1.59.87 4.014 1.7 6.968 1.21.851 2.23 1.737 3.08 2.621 4.63 4.81 4.93 9.914 5.02 11.49.1 1.897-.07 3.662-.47 5.3 4.36 8.206 10.5 16.3 19.17 20.956a4.009 4.009 0 011.63 5.416 4.004 4.004 0 01-5.42 1.632c-3.67-1.974-6.97-4.463-9.94-7.292l.03.113c3.25 10.157-1.96 21.122-11.92 25.003-15.16 5.95-36.4 6.344-48.01 6.026a53.983 53.983 0 01-2.78-7.973c-1.02.005 30.38 1.362 47.87-5.504 6.1-2.376 9.25-9.128 7.16-15.329a1.654 1.654 0 01-.07-.209 9.658 9.658 0 00-9.98-6.317l-8.24.78c-1.58.468-2.58.673-2.58.673-.8.164-1.6.075-2.3-.213l-46.6 4.404a15.89 15.89 0 018.99-8.866l41.02-3.895c2.43-.769 6.1-2.2 9.23-4.548 2.94-2.209 5.47-5.3 5.22-9.717-.05-.874-.22-3.707-2.79-6.379-3.18-3.293-9.42-6.067-21.35-6.343a3.876 3.876 0 01-.92-.13c-13.97.462-28.29.677-42.53 1.24-5.23-.242-9.86-3.122-12.47-7.416 20.69-1.175 41.81-1.258 61.99-2.087 2.85-.117 5.96-1.587 8.45-3.814.34-.604.84-1.116 1.45-1.473 3.1-3.579 4.42-8.559 1.38-13.807-2.82-4.862-8.39-6.17-8.39-6.17-.46-1.305-1.47-4.234-2.62-8.137zm25.29 77.477c-1.35.57-1.56 1.165-1.66 1.358.21-.303.47-.579.76-.815.27-.215.57-.398.9-.542l.07-.028-.07.027zm-4.49-9.908c-.38.417-.79.82-1.2 1.208.95.321 1.87.721 2.75 1.195a67.041 67.041 0 01-1.55-2.403z" fill="#fd9500"/><path d="M1964.47 786.158l.33.206s.84-100.484 119.15-116.913c16.42-2.28 131.84-24.715 196.53 135.43.23.557.45 1.112.67 1.665-38.34 40.355-80.49 9.938-80.49 9.938-20.61 63.005-86.51 35.935-86.51 35.935l21.32 45.52c-49.79-18.286-146.64-15.632-146.64-15.632-20.08-25.304-23.89-70.875-24.36-96.149z" fill="#fd9500"/><path d="M2112.16 891.216s-12.86-41.508-22.12-71.36a2.712 2.712 0 011.56-3.3 2.71 2.71 0 013.43 1.27c16.39 32.048 41.1 80.341 41.1 80.341l-23.97-6.95z" fill="#e86135"/><g><path d="M1708.24 1157.65c92.83-112.6 285.06-70.83 327.38-65.25 273.89 36.11 213.14 246.5 203.24 273.37-21.74 58.97-74.08 81.78-152.19 89.71v228.87s-23.84-21.29-29.32-45.47c0 0-9.4-.58-25.66-2.21 0 0 12.37 33.57 18.88 51.25.9 2.42.55 5.12-.93 7.23a7.853 7.853 0 01-6.46 3.38h-311.02c16.94-30.92 50.29-30.66 50.29-30.66-13.03-32.64-26.47-64.38-39.7-96.78-85.18-34.03-160.29-84.55-183.2-159.14-8.89-28.94-14.14-156.27 148.69-254.3z" fill="url(#_Linear4)" transform="translate(38.29 2.296)"/><path d="M1790.33 1595.976c30.97 15.63 84.58 30.13 120.11-29.5a5.003 5.003 0 013.47-2.38 5.03 5.03 0 014.06 1.12s22.22 18.79 49.55 28.07c15.76 5.35 33.28 7.61 49.02.51 10.42-4.71 19.98-13.54 27.79-28.07a4.995 4.995 0 118.8 4.73c-9.07 16.89-20.36 26.98-32.48 32.45-18.09 8.17-38.24 6-56.35-.15-21.51-7.31-40.05-20.14-48.27-26.35-35.73 54.95-86.33 47.18-120.19 32.9l-2.36-5.69-2.49-6.03-.66-1.61zM2014.86 1459.856s-84.9-.35-131.62-.54a3.81 3.81 0 00-3.79 3.31 3.81 3.81 0 002.81 4.17c48.96 12.84 142.74 37.44 142.74 37.44l-10.14-44.38z" fill="#fd9500"/><path d="M2131.08 1457.116c-2.03.23-4.06.45-6.12.66v9.76c-37.28 2.34-71.82 2.92-105.5 2.46l61.2 169.98c-3.12-.28-6.7-.61-10.68-1.01l8.92 24.22c-.51-.51-.93-1.14-1.19-1.87l-68.94-191.49c-6.3-.13-12.57-.29-18.84-.48-2.75-.08-4.92-2.39-4.84-5.14a5.002 5.002 0 015.14-4.85c44.86 1.35 90.25 1.19 140.85-2.24zm-359.43-322.2c-56.99 50.82-79.47 106.28-63.75 202.9 10.7 65.8 38.92 150.36 85.78 264.85.31.75.42 1.54.36 2.3-4.34-10.49-8.68-21-13-31.58-3.99-1.59-7.95-3.22-11.89-4.89-38.15-96.48-61.55-170.23-71.12-229.07-11.71-71.94-2.98-121.99 24.53-164.03a451.9 451.9 0 0123.97-15.45c7.73-9.38 16.15-17.69 25.12-25.03z" fill="#fd9500"/></g><g><circle cx="1957.8" cy="606.84" r="70.296" fill="#ffbf2f" transform="matrix(1.0436 0 0 1.05132 -49.706 -47.961)"/><path d="M1936.5 543.46c13.46-16.679 33.98-27.344 56.96-27.344 40.49 0 73.36 33.114 73.36 73.903a74.19 74.19 0 01-3.9 23.827c-12.94-1.133-20.29-10.769-22.82-14.798 4.73-2.436 8.02-7.806 8.02-14.032 0-8.514-6.15-15.427-13.73-15.427s-13.73 6.913-13.73 15.427c0 2.012.34 3.936.97 5.7-46.48 5.007-76.04-33.366-85.13-47.257zm33.32-39.107c1.9.64 3.99-.092 5.08-1.777a4.383 4.383 0 00-.48-5.358 24.11 24.11 0 00-1.29-1.43c-11.56-12.056-24.58-22.996-38.45-32.25-42.66-28.47-93.49-49.767-143.46-61.067-51.62-11.672-116.05-12.329-161.66 17.878-30.01 19.871-52.45 61.917-26.58 94.751 9.28 11.777 22.61 19.962 36.39 25.474 55.78 22.312 113.94 8.236 166.93-14.106 30.17-12.72 60.17-29.584 93.03-34.817 20.63-3.285 52.46 6.317 70.49 12.702z"/></g></g><g><path d="M2252.734 1460.29l139.59-376.87 29.79 10.86-221.66 608.22h-37.43l77.97-210.51h-222.08v-31.7h233.82z"/></g><g><path d="M1297.336 690.98h419.632l49.649 294.713h-419.632z"/><path d="M1515.73 971.008h93.69l13.63 80.9h-93.691z"/><path fill="#eaeaeb" d="M1326.953 713.447h367.056l41.044 243.638h-367.056z"/><g><path fill="#fff" d="M1557.646 734.972h124.72l18.232 108.221h-124.72z"/><path d="M1561.194 737.972l6.306 37.435a3.001 3.001 0 01-5.917.997l-6.896-40.934a2.998 2.998 0 012.957-3.498h124.722a3 3 0 012.958 2.502l6.896 40.933a2.999 2.999 0 11-5.915.996l-6.474-38.43h-118.637z"/><path d="M1697.051 840.194l-10.746-63.79a3 3 0 115.915-.997l11.335 67.288a2.998 2.998 0 01-2.957 3.498h-124.722a3 3 0 01-2.957-2.501l-11.336-67.288a3.002 3.002 0 012.46-3.457 3.002 3.002 0 013.457 2.46l10.914 64.787h118.637z"/><path d="M1621.05 843.194h-6.08l-18.35-108.222h6.09l18.34 108.222zm44.37 0h-6.09l-18.34-108.222h6.08l18.35 108.222z"/><path d="M1696.4 818.291h-124.72l-1.01-6h124.72l1.01 6zm-4.49-26.675h-124.72l-1.01-6h124.72l1.01 6zm-4.83-28.686h-124.72l-1.02-6h124.73l1.01 6z"/></g><g><path d="M1526.005 935.588h99.536l-27.657-164.176h-71.879" fill="#fff"/><path d="M1595.35 774.412h-69.348a3.001 3.001 0 01.001-6h71.883a3 3 0 012.958 2.502l27.658 164.175a3.005 3.005 0 01-.667 2.436 3.009 3.009 0 01-2.292 1.062h-99.541a3.001 3.001 0 01.001-6h95.993l-26.647-158.175z"/><path d="M1526.005 771.412h-144.226l27.657 164.176h116.569" fill="#fff"/><path d="M1411.97 932.587h114.033a3.005 3.005 0 013.002 3 3.004 3.004 0 01-3.003 3h-116.568a3 3 0 01-2.958-2.501l-27.658-164.175a3.007 3.007 0 01.667-2.436 3.009 3.009 0 012.292-1.063h144.226a3.005 3.005 0 013.003 3 3.004 3.004 0 01-3.004 3h-140.678l26.647 158.175z"/><path d="M1381.78 771.412h216.107l3.321 19.715h-216.107zM1617.76 889.394h-216.11l-1.01-6h216.11l1.01 6zm-8.91-52.874h-216.1l-1.02-6h216.11l1.01 6z"/><path d="M1464.82 935.587h-6.08l-27.83-164.175h6.08l27.83 164.175zm58.89 0h-6.09l-27.83-164.175h6.09l27.83 164.175zm58.15 0h-6.08l-27.83-164.175h6.08l27.83 164.175z"/><g><path d="M1601.86 866.497c.13 1.637-.185 3.156-.942 4.556-.799 1.366-1.97 2.492-3.593 3.385-1.627.855-3.593 1.392-5.901 1.573-2.779.218-5.087-.1-6.968-.987a9.025 9.025 0 01-3.32-2.69c-.918-1.155-1.402-2.305-1.491-3.448-.054-.685.136-1.275.61-1.771.43-.532 1-.807 1.743-.865a2.399 2.399 0 011.568.414c.46.347.857.89 1.187 1.593.421.848.87 1.541 1.344 2.079.436.54 1.062.99 1.835 1.312.813.32 1.806.433 3.02.339 1.682-.132 3.022-.62 4.019-1.464.997-.845 1.431-1.837 1.342-2.98-.072-.913-.403-1.615-1.034-2.14-.593-.529-1.37-.89-2.293-1.124-.924-.234-2.16-.444-3.675-.67-2.031-.301-3.756-.703-5.173-1.205-1.417-.502-2.54-1.257-3.445-2.26-.866-1.004-1.359-2.268-1.484-3.868a6.871 6.871 0 01.94-4.097c.771-1.21 1.913-2.218 3.43-2.95 1.554-.773 3.409-1.225 5.561-1.393 1.722-.135 3.224-.06 4.509.26 1.285.321 2.386.81 3.262 1.43.875.622 1.519 1.3 1.97 2.03.45.732.703 1.44.76 2.163a2.512 2.512 0 01-.568 1.807c-.467.573-1.033.886-1.737.941-.666.052-1.147-.064-1.523-.34-.38-.316-.77-.783-1.218-1.476-.59-.989-1.278-1.74-2.027-2.256-.75-.516-1.908-.732-3.512-.606-1.448.113-2.598.51-3.448 1.228-.852.68-1.262 1.478-1.194 2.354.042.533.237 1.016.58 1.372.346.394.761.669 1.333.93.569.224 1.134.41 1.697.557.56.11 1.478.268 2.754.474 1.595.259 3.073.526 4.397.844 1.288.36 2.426.807 3.373 1.345a6.552 6.552 0 012.298 2.196c.583.912.908 2.037 1.015 3.408z" fill-rule="nonzero"/><path d="M1585.34 846.568l4.27 31.108a3.002 3.002 0 003.376 2.565 3.007 3.007 0 002.571-3.38l-4.27-31.108a2.996 2.996 0 00-3.375-2.565 3.008 3.008 0 00-2.572 3.38z"/></g><path d="M1409.62 800.726l3.43 19.941a3.007 3.007 0 003.47 2.448 2.991 2.991 0 002.44-3.466l-3.43-19.94a2.997 2.997 0 00-3.46-2.448 3.005 3.005 0 00-2.45 3.465z"/><g><path d="M1428.564 902.608l3.43 19.941a3.007 3.007 0 003.47 2.448 2.991 2.991 0 002.44-3.466l-3.43-19.94a2.997 2.997 0 00-3.46-2.448 3.005 3.005 0 00-2.45 3.465z"/></g><g><path d="M1478.666 852.049c.916-.133 1.684.621 2.425 1.55 1.227 1.526 2.13 3.758 2.499 6.302.37 2.544.138 4.94-.605 6.752-.446 1.1-.968 2.042-1.884 2.175a2.998 2.998 0 00-2.535 3.4 2.998 2.998 0 003.397 2.538c2.31-.335 4.36-1.798 5.782-4.214 1.627-2.78 2.442-6.979 1.784-11.513-.658-4.535-2.633-8.327-4.983-10.53-2.05-1.912-4.43-2.733-6.742-2.398a2.997 2.997 0 00-2.534 3.4 2.997 2.997 0 003.396 2.538z"/><path d="M1481.1 868.828c-.906.132-1.683-.621-2.424-1.55-1.219-1.527-2.121-3.759-2.49-6.303-.37-2.543-.139-4.94.596-6.75.446-1.102.977-2.045 1.884-2.176a3.005 3.005 0 002.543-3.4 3.005 3.005 0 00-3.405-2.538c-2.311.336-4.352 1.798-5.773 4.213-1.636 2.783-2.443 6.979-1.785 11.513.658 4.534 2.625 8.329 4.984 10.531 2.05 1.912 4.421 2.734 6.733 2.398a3.005 3.005 0 002.543-3.4 3.005 3.005 0 00-3.405-2.538z"/></g><g><path d="M1486.843 904.697c.915-.133 1.684.621 2.424 1.55 1.228 1.526 2.13 3.758 2.5 6.302.369 2.544.138 4.94-.606 6.752-.445 1.1-.968 2.042-1.883 2.175a2.998 2.998 0 00-2.535 3.4 2.998 2.998 0 003.396 2.538c2.312-.335 4.361-1.798 5.783-4.214 1.626-2.78 2.442-6.979 1.784-11.513-.658-4.535-2.633-8.327-4.983-10.53-2.05-1.912-4.43-2.733-6.742-2.398a2.997 2.997 0 00-2.535 3.4 2.997 2.997 0 003.397 2.538z"/><path d="M1489.278 921.476c-.907.132-1.685-.621-2.425-1.55-1.219-1.527-2.122-3.759-2.49-6.303-.37-2.543-.139-4.94.596-6.75.445-1.102.977-2.045 1.884-2.176a3.005 3.005 0 002.543-3.4 3.005 3.005 0 00-3.405-2.538c-2.311.336-4.352 1.798-5.774 4.213-1.635 2.783-2.442 6.979-1.784 11.513.658 4.534 2.624 8.329 4.983 10.531 2.05 1.912 4.422 2.734 6.733 2.398a3.005 3.005 0 002.543-3.4 3.005 3.005 0 00-3.404-2.538z"/></g><g><path d="M1545.287 904.666c.915-.133 1.684.621 2.424 1.55 1.228 1.526 2.13 3.758 2.5 6.302.369 2.544.138 4.94-.606 6.752-.445 1.1-.968 2.042-1.883 2.175a2.998 2.998 0 00-2.535 3.4 2.998 2.998 0 003.396 2.538c2.312-.335 4.361-1.798 5.783-4.214 1.626-2.78 2.442-6.979 1.784-11.513-.658-4.535-2.633-8.327-4.983-10.53-2.05-1.912-4.43-2.733-6.742-2.398a2.997 2.997 0 00-2.535 3.4 2.997 2.997 0 003.397 2.538z"/><path d="M1547.722 921.445c-.907.132-1.685-.621-2.425-1.55-1.219-1.527-2.122-3.759-2.49-6.303-.37-2.543-.139-4.94.596-6.75.445-1.102.977-2.045 1.884-2.176a3.005 3.005 0 002.543-3.4 3.005 3.005 0 00-3.405-2.538c-2.311.336-4.352 1.798-5.774 4.213-1.635 2.783-2.442 6.979-1.784 11.513.658 4.534 2.624 8.329 4.983 10.531 2.05 1.912 4.422 2.734 6.733 2.398a3.005 3.005 0 002.543-3.4 3.005 3.005 0 00-3.404-2.538z"/></g></g></g><g><path fill="#dd6140" d="M1363.259 462.136l116.566 48.208-66.935 146.664-116.566-48.208z"/><path fill="#fff" d="M1366.667 481.518l96.27 39.815-8.7 19.065-96.271-39.815zM1363.175 517.523c4.057 1.756 6.007 6.339 4.315 10.248-1.692 3.91-6.368 5.624-10.425 3.868l-1.192 2.752c5.6 2.425 12.03-.029 14.367-5.43 2.338-5.4-.273-11.767-5.873-14.19l-1.192 2.752z"/><path d="M1357.065 531.639c-4.057-1.756-6.007-6.339-4.315-10.248 1.692-3.91 6.368-5.624 10.425-3.868l1.192-2.753c-5.61-2.428-12.038.026-14.376 5.426-2.338 5.4.273 11.767 5.882 14.195l1.192-2.752zM1352.945 541.157c4.057 1.756 6.007 6.339 4.315 10.248-1.692 3.91-6.368 5.624-10.425 3.868l-1.192 2.752c5.6 2.425 12.03-.029 14.367-5.43 2.338-5.4-.273-11.767-5.873-14.19l-1.192 2.752z" fill="#fff"/><path d="M1346.835 555.273c-4.057-1.756-6.007-6.339-4.315-10.248 1.692-3.91 6.368-5.624 10.425-3.868l1.192-2.753c-5.61-2.428-12.038.026-14.376 5.426-2.338 5.4.273 11.767 5.882 14.195l1.192-2.752zM1342.715 564.79c4.057 1.756 6.007 6.339 4.315 10.248-1.692 3.91-6.368 5.624-10.425 3.868l-1.192 2.752c5.6 2.425 12.03-.029 14.367-5.43 2.338-5.4-.273-11.767-5.873-14.19l-1.192 2.752z" fill="#fff"/><path d="M1336.605 578.906c-4.057-1.756-6.007-6.339-4.315-10.248 1.692-3.91 6.368-5.624 10.425-3.868l1.192-2.753c-5.61-2.428-12.038.026-14.376 5.426-2.338 5.4.273 11.767 5.882 14.195l1.192-2.752zM1332.484 588.424c4.057 1.756 6.007 6.339 4.315 10.248-1.692 3.91-6.368 5.624-10.425 3.868l-1.192 2.752c5.6 2.425 12.03-.029 14.367-5.43 2.338-5.4-.273-11.767-5.873-14.19l-1.192 2.752z" fill="#fff"/><path d="M1326.374 602.54c-4.057-1.756-6.007-6.339-4.315-10.248 1.692-3.91 6.368-5.624 10.425-3.868l1.192-2.753c-5.61-2.428-12.038.026-14.376 5.426-2.338 5.4.273 11.767 5.882 14.195l1.192-2.752zM1387.08 527.871c4.057 1.756 6.007 6.339 4.315 10.248-1.692 3.91-6.368 5.624-10.425 3.868l-1.192 2.752c5.6 2.425 12.03-.029 14.367-5.43 2.338-5.4-.273-11.767-5.873-14.19l-1.192 2.752z" fill="#fff"/><path d="M1380.97 541.987c-4.057-1.756-6.007-6.339-4.315-10.248 1.692-3.91 6.368-5.624 10.425-3.868l1.192-2.753c-5.61-2.428-12.038.026-14.376 5.426-2.338 5.4.273 11.767 5.882 14.195l1.192-2.752zM1376.85 551.504c4.056 1.756 6.006 6.339 4.314 10.248-1.692 3.91-6.368 5.624-10.425 3.868l-1.192 2.752c5.6 2.425 12.03-.029 14.367-5.43 2.338-5.4-.273-11.767-5.873-14.19l-1.192 2.752z" fill="#fff"/><path d="M1370.739 565.62c-4.057-1.756-6.007-6.339-4.315-10.248 1.692-3.91 6.368-5.624 10.425-3.868l1.192-2.753c-5.61-2.428-12.038.026-14.376 5.426-2.338 5.4.273 11.767 5.882 14.195l1.192-2.752zM1366.62 575.138c4.056 1.756 6.006 6.339 4.314 10.248-1.692 3.91-6.368 5.624-10.425 3.868l-1.192 2.752c5.6 2.425 12.03-.029 14.367-5.43 2.338-5.4-.273-11.767-5.873-14.19l-1.192 2.752z" fill="#fff"/><path d="M1360.509 589.254c-4.057-1.756-6.007-6.339-4.315-10.248 1.692-3.91 6.368-5.624 10.425-3.868l1.192-2.753c-5.61-2.428-12.038.026-14.376 5.426-2.338 5.4.273 11.767 5.882 14.195l1.192-2.752zM1356.388 598.771c4.057 1.756 6.007 6.339 4.315 10.248-1.692 3.91-6.368 5.624-10.425 3.868l-1.192 2.752c5.6 2.425 12.03-.029 14.367-5.43 2.338-5.4-.273-11.767-5.873-14.19l-1.192 2.752z" fill="#fff"/><path d="M1350.278 612.887c-4.057-1.756-6.007-6.339-4.315-10.248 1.692-3.91 6.368-5.624 10.425-3.868l1.192-2.753c-5.61-2.428-12.038.026-14.376 5.426-2.338 5.4.273 11.767 5.882 14.195l1.192-2.752z" fill="#fff"/><g><path d="M1410.984 538.218c4.057 1.756 6.007 6.339 4.315 10.248-1.692 3.91-6.368 5.624-10.425 3.868l-1.192 2.752c5.6 2.425 12.03-.029 14.367-5.43 2.338-5.4-.273-11.767-5.873-14.19l-1.192 2.752z" fill="#fff"/><path d="M1404.874 552.334c-4.057-1.756-6.007-6.339-4.315-10.248 1.692-3.91 6.368-5.624 10.425-3.868l1.192-2.753c-5.61-2.428-12.038.026-14.376 5.426-2.338 5.4.273 11.767 5.882 14.195l1.192-2.752z" fill="#fff"/></g><g><path d="M1400.754 561.852c4.057 1.756 6.007 6.339 4.315 10.248-1.692 3.91-6.368 5.624-10.425 3.868l-1.192 2.752c5.6 2.425 12.03-.029 14.367-5.43 2.338-5.4-.273-11.767-5.873-14.19l-1.192 2.752z" fill="#fff"/><path d="M1394.644 575.968c-4.057-1.756-6.007-6.339-4.315-10.248 1.692-3.91 6.368-5.624 10.425-3.868l1.192-2.753c-5.61-2.428-12.038.026-14.376 5.426-2.338 5.4.273 11.767 5.882 14.195l1.192-2.752z" fill="#fff"/></g><g><path d="M1390.523 585.485c4.057 1.756 6.007 6.339 4.315 10.248-1.692 3.91-6.368 5.624-10.425 3.868l-1.192 2.752c5.6 2.425 12.03-.029 14.367-5.43 2.338-5.4-.273-11.767-5.873-14.19l-1.192 2.752z" fill="#fff"/><path d="M1384.413 599.6c-4.057-1.755-6.007-6.338-4.315-10.247 1.692-3.91 6.368-5.624 10.425-3.868l1.192-2.753c-5.61-2.428-12.038.026-14.376 5.426-2.338 5.4.273 11.767 5.882 14.195l1.192-2.752z" fill="#fff"/></g><g><path d="M1380.293 609.12c4.057 1.755 6.007 6.338 4.315 10.247-1.692 3.91-6.368 5.624-10.425 3.868l-1.192 2.752c5.6 2.425 12.03-.029 14.367-5.43 2.338-5.4-.273-11.767-5.873-14.19l-1.192 2.752z" fill="#fff"/><path d="M1374.183 623.235c-4.057-1.756-6.007-6.339-4.315-10.248 1.692-3.91 6.368-5.624 10.425-3.868l1.192-2.753c-5.61-2.428-12.038.026-14.376 5.426-2.338 5.4.273 11.767 5.882 14.195l1.192-2.752z" fill="#fff"/></g><g><path d="M1434.888 548.566c4.057 1.756 6.007 6.339 4.315 10.248-1.692 3.91-6.368 5.624-10.425 3.868l-1.192 2.752c5.6 2.425 12.03-.029 14.367-5.43 2.338-5.4-.273-11.767-5.873-14.19l-1.192 2.752z" fill="#fff"/><path d="M1428.778 562.682c-4.057-1.756-6.007-6.339-4.315-10.248 1.692-3.91 6.368-5.624 10.425-3.868l1.192-2.753c-5.61-2.428-12.038.026-14.376 5.426-2.338 5.4.273 11.767 5.882 14.195l1.192-2.752z" fill="#fff"/></g><g><path d="M1424.658 572.2c4.057 1.756 6.007 6.339 4.315 10.248-1.692 3.91-6.368 5.624-10.425 3.868l-1.192 2.752c5.6 2.425 12.03-.029 14.367-5.43 2.338-5.4-.273-11.767-5.873-14.19l-1.192 2.752z" fill="#fff"/><path d="M1418.548 586.316c-4.057-1.756-6.007-6.339-4.315-10.248 1.692-3.91 6.368-5.624 10.425-3.868l1.192-2.753c-5.61-2.428-12.038.026-14.376 5.426-2.338 5.4.273 11.767 5.882 14.195l1.192-2.752z" fill="#fff"/></g><g><path d="M1414.427 595.833c4.057 1.756 6.007 6.339 4.315 10.248-1.692 3.91-6.368 5.624-10.425 3.868l-1.192 2.752c5.6 2.425 12.03-.029 14.367-5.43 2.338-5.4-.273-11.767-5.873-14.19l-1.192 2.752z" fill="#fff"/><path d="M1408.317 609.949c-4.057-1.756-6.007-6.339-4.315-10.248 1.692-3.91 6.368-5.624 10.425-3.868l1.192-2.753c-5.61-2.428-12.038.026-14.376 5.426-2.338 5.4.273 11.767 5.882 14.195l1.192-2.752z" fill="#fff"/></g><g><path d="M1404.197 619.467c4.057 1.756 6.007 6.339 4.315 10.248-1.692 3.91-6.368 5.624-10.425 3.868l-1.192 2.752c5.6 2.425 12.03-.029 14.367-5.43 2.338-5.4-.273-11.767-5.873-14.19l-1.192 2.752z" fill="#fff"/><path d="M1398.087 633.583c-4.057-1.756-6.007-6.339-4.315-10.248 1.692-3.91 6.368-5.624 10.425-3.868l1.192-2.753c-5.61-2.428-12.038.026-14.376 5.426-2.338 5.4.273 11.767 5.882 14.195l1.192-2.752z" fill="#fff"/></g></g><g><path d="M765.902 1048.735h1340.43v37.948H765.902z"/></g><g><path d="M1725.895 1028.602h17.09v-7.16h26.68v7.16h18.19v-7.16h26.68v7.16h18.2v-7.16h26.68v7.16h5.68a9.84 9.84 0 016.96 2.89 9.832 9.832 0 012.88 6.95v9.98h-193.28v-9.98c0-2.61 1.04-5.11 2.88-6.95a9.84 9.84 0 016.96-2.89h7.72v-7.16h26.68v7.16z" fill="#d2d3d5"/></g><g><path fill="#fff" d="M829.921 1024.599h234.647v26.775H829.921z"/><path d="M956.857 1020.206v8H835.249v17.21h121.608v8H831.249a4 4 0 01-4-4v-25.21a4 4 0 014-4h125.608z"/><path d="M956.857 1020.206h111.114c2.21 0 4 1.79 4 4v25.21c0 2.21-1.79 4-4 4H956.857c-3.722-3.92-2.3-6.11 0-8h107.114v-17.21H956.857c-1.516-2.95-1.888-5.69 0-8z"/><path d="M971.386 1025.426l.654 25.12a4.01 4.01 0 004.103 3.9 4.009 4.009 0 003.895-4.11l-.655-25.12a4.001 4.001 0 00-4.103-3.89 4.005 4.005 0 00-3.894 4.1zm50.225-11.7v35.28a4 4 0 008 0v-35.28a4 4 0 00-8 0zm-24.65.58v32.43a4 4 0 008 0v-32.43a4 4 0 00-8 0zm48.16-.23v31.81c0 2.2 1.79 4 4 4s4-1.8 4-4v-31.81c0-2.2-1.79-4-4-4s-4 1.8-4 4z"/></g><g><path d="M1122.579 834.586h-7.08c-3.94 0-7.14-3.2-7.14-7.14 0-3.941 3.2-7.14 7.14-7.14h177.58c3.95 0 7.14 3.199 7.14 7.14 0 3.94-3.19 7.14-7.14 7.14h-3.3a25.619 25.619 0 019.64 6.068 25.638 25.638 0 017.52 18.147v189.658h-201.53V858.801a25.68 25.68 0 017.52-18.147 25.656 25.656 0 019.65-6.068z" fill="#fff4e5"/><path d="M1289.779 834.586c2.56.898 4.97 2.202 7.14 3.869l-186.93 5.72a25.656 25.656 0 0112.59-9.589h167.2zM1111.474 887.328l64.965-19.691 34.136 112.618-64.966 19.692z" fill="#f4978b"/><path d="M1162.088 921.827c7.62 0 13.81 6.19 13.81 13.814s-6.19 13.813-13.81 13.813c-1.66 0-3 1.344-3 3s1.34 3 3 3c10.93 0 19.81-8.878 19.81-19.813 0-10.935-8.88-19.814-19.81-19.814a3 3 0 100 6z" fill="#de6647"/><path d="M1162.088 949.454c-7.63 0-13.81-6.189-13.81-13.813 0-7.624 6.18-13.814 13.81-13.814 1.65 0 3-1.344 3-3 0-1.655-1.35-3-3-3-10.94 0-19.81 8.88-19.81 19.814 0 10.935 8.87 19.813 19.81 19.813 1.65 0 3-1.344 3-3s-1.35-3-3-3zM1168.479 993.014l-5.18-15.855a4.012 4.012 0 012.56-5.043 4.01 4.01 0 015.05 2.561l5.23 16.016-7.66 2.321zm10.77-3.265l-3.49-11.283a4.004 4.004 0 012.64-5.004c2.11-.652 4.35.53 5 2.639l3.51 11.327-7.66 2.321zm-25.42-115.259l5.65 18.264a4.003 4.003 0 01-2.64 5.003 3.996 3.996 0 01-5-2.639l-5.67-18.307 7.66-2.321zm-12.53 3.797l4.75 13.847a4.001 4.001 0 01-7.57 2.594l-4.84-14.119 7.66-2.322z" fill="#de6647"/><g><path fill="#f4978b" d="M1238.243 915.862l65.58 17.54-30.405 113.682-65.58-17.54z"/><path d="M1263.045 971.87c6.474 4.019 8.468 12.543 4.446 19.02-4.021 6.477-12.545 8.47-19.019 4.45a2.999 2.999 0 00-4.13.967 2.999 2.999 0 00.966 4.13c9.285 5.766 21.512 2.908 27.28-6.382 5.769-9.29 2.908-21.517-6.378-27.283a3 3 0 10-3.165 5.098z" fill="#de6647"/><path d="M1248.472 995.34c-6.482-4.024-8.467-12.542-4.446-19.02 4.022-6.476 12.537-8.475 19.02-4.45 1.401.87 3.257.44 4.13-.967a3.006 3.006 0 00-.966-4.13c-9.294-5.772-21.513-2.907-27.281 6.383-5.768 9.29-2.916 21.511 6.379 27.282 1.401.87 3.257.44 4.13-.966a3.005 3.005 0 00-.966-4.132zM1230.925 1035.718l3.963-16.202a4.012 4.012 0 014.835-2.934 4.01 4.01 0 012.939 4.84l-4.005 16.365-7.732-2.069zm10.872 2.907l2.987-11.426a4.004 4.004 0 014.882-2.859 3.997 3.997 0 012.856 4.88l-2.993 11.474-7.732-2.069zm39.202-111.328l-4.834 18.497a4.003 4.003 0 01-4.882 2.857 3.996 3.996 0 01-2.856-4.88l4.84-18.543 7.732 2.069zm-12.648-3.384l-3.27 14.27a4.001 4.001 0 01-7.8-1.79l3.337-14.548 7.733 2.068z" fill="#de6647"/></g><g><circle cx="1494.85" cy="372.517" r="157.821" fill="#ffcf84" transform="translate(1011.014 822.685) scale(.15348)"/><path d="M1240.76 864.427c8.752 0 15.863 7.112 15.863 15.872s-7.11 15.872-15.863 15.872c-.842 0-1.535.684-1.535 1.525 0 .841.693 1.524 1.535 1.524 10.437 0 18.912-8.478 18.912-18.921s-8.475-18.921-18.912-18.921c-.842 0-1.535.683-1.535 1.524 0 .842.693 1.525 1.535 1.525z" fill="#fda92f"/><path d="M1240.76 896.171c-8.763 0-15.874-7.111-15.874-15.872 0-8.76 7.11-15.872 15.874-15.872.831 0 1.514-.683 1.514-1.525 0-.84-.683-1.524-1.514-1.524-10.448 0-18.923 8.478-18.923 18.92 0 10.444 8.475 18.922 18.923 18.922.831 0 1.514-.683 1.514-1.524s-.683-1.525-1.514-1.525z" fill="#fda92f"/><path d="M1236.838 903.814l.22-5.792c.03-.84.74-1.497 1.58-1.464.85.032 1.5.741 1.47 1.582l-.23 5.935a24.274 24.274 0 01-3.04-.26zm8.87-.308l-1.49-5.917c-.2-.816.29-1.645 1.11-1.85a1.53 1.53 0 011.85 1.106l1.46 5.812c-.95.343-1.93.627-2.93.85zm-25.41-10.2l4.56-3.6a1.523 1.523 0 111.89 2.391l-4.6 3.632a25.82 25.82 0 01-1.85-2.423zm-3.08-6.547l5.7-3.089a1.528 1.528 0 012.07.614c.4.74.12 1.665-.62 2.066l-6.08 3.3c-.42-.935-.77-1.9-1.07-2.89zm47.18-3.323l-5.5-.255a1.524 1.524 0 01.14-3.046l5.62.261c-.02 1.03-.11 2.044-.26 3.04zm-7.01-20.877c.73.713 1.41 1.471 2.05 2.271l-4.47 4.59c-.59.603-1.55.617-2.15.03a1.516 1.516 0 01-.03-2.156l4.6-4.735zm-29.01-3.702l3.96 5.914c.47.7.28 1.646-.42 2.115-.7.468-1.65.281-2.11-.418l-3.97-5.926c.8-.613 1.65-1.176 2.54-1.685zm14.17-3.13c1.02.088 2.03.24 3.02.453l-.6 6.052c-.09.838-.84 1.45-1.67 1.366a1.528 1.528 0 01-1.37-1.667l.62-6.204z" fill="#fda92f"/><g><circle cx="1494.85" cy="372.517" r="157.821" fill="#ffcf84" transform="matrix(-.01741 .15249 -.15249 -.01741 1281.89 711.985)"/><path d="M1214.35 935.511c-.993 8.696-8.866 14.954-17.569 13.96-8.704-.994-14.963-8.866-13.97-17.562a1.534 1.534 0 00-1.34-1.698 1.534 1.534 0 00-1.69 1.352c-1.184 10.37 6.278 19.752 16.654 20.937 10.375 1.185 19.76-6.274 20.944-16.643a1.534 1.534 0 00-1.34-1.698 1.534 1.534 0 00-1.689 1.352z" fill="#fda92f"/><path d="M1182.81 931.91c.995-8.707 8.868-14.965 17.572-13.971 8.703.994 14.962 8.865 13.968 17.572a1.523 1.523 0 001.343 1.677 1.523 1.523 0 001.686-1.331c1.186-10.38-6.276-19.763-16.651-20.947-10.376-1.185-19.761 6.273-20.947 16.653a1.523 1.523 0 001.343 1.677 1.523 1.523 0 001.687-1.33z" fill="#fda92f"/><path d="M1175.662 927.146l5.73.875a1.521 1.521 0 011.275 1.736 1.525 1.525 0 01-1.738 1.281l-5.87-.902c.14-1.02.343-2.024.603-2.99zm-.7 8.847l6.048-.809a1.528 1.528 0 011.712 1.313 1.53 1.53 0 01-1.309 1.712l-5.94.792a23.86 23.86 0 01-.511-3.008zm13.017-24.088l3.06 4.939a1.523 1.523 0 11-2.59 1.606l-3.087-4.982a25.82 25.82 0 012.617-1.563zm6.854-2.318l2.423 6.014a1.528 1.528 0 01-.845 1.987 1.527 1.527 0 01-1.983-.85l-2.587-6.415c.975-.312 1.974-.55 2.992-.736zm-2.051 47.253l.877-5.436a1.524 1.524 0 013.01.485l-.896 5.554a23.457 23.457 0 01-2.991-.603zm21.537-4.596a24.963 24.963 0 01-2.489 1.779l-4.053-4.962a1.518 1.518 0 01.214-2.14 1.516 1.516 0 012.146.215l4.182 5.108zm6.97-28.403l-6.325 3.264a1.523 1.523 0 01-2.054-.658 1.518 1.518 0 01.655-2.049l6.338-3.272c.518.865.981 1.773 1.386 2.715zm1.502 14.434a24.296 24.296 0 01-.793 2.949l-5.945-1.283a1.534 1.534 0 01-1.167-1.814 1.528 1.528 0 011.811-1.172l6.094 1.32z" fill="#fda92f"/></g><g><circle cx="1494.85" cy="372.517" r="157.821" fill="#ffcf84" transform="matrix(.11248 .10443 -.10443 .11248 1016.904 823.487)"/><path d="M1156.867 1010.4c6.414 5.954 6.786 16.004.826 22.424-5.961 6.42-16.011 6.794-22.425.839a1.534 1.534 0 00-2.163.072 1.534 1.534 0 00.088 2.162c7.649 7.101 19.629 6.655 26.734-.998 7.105-7.653 6.663-19.633-.985-26.734a1.534 1.534 0 00-2.163.072 1.534 1.534 0 00.088 2.162z" fill="#fda92f"/><path d="M1135.268 1033.663c-6.422-5.963-6.794-16.013-.833-22.433 5.96-6.42 16.01-6.793 22.432-.83.61.565 1.575.528 2.147-.088a1.523 1.523 0 00-.072-2.147c-7.657-7.109-19.636-6.662-26.741.99-7.106 7.653-6.664 19.633.992 26.742.61.566 1.575.53 2.147-.087a1.523 1.523 0 00-.072-2.147z" fill="#fda92f"/><path d="M1127.194 1036.595l4.102-4.095a1.521 1.521 0 012.154.002 1.525 1.525 0 010 2.16l-4.206 4.193a24.274 24.274 0 01-2.05-2.26zm6.71 5.81l2.933-5.35a1.528 1.528 0 012.073-.601 1.53 1.53 0 01.603 2.07l-2.885 5.252a23.86 23.86 0 01-2.725-1.372zm-11.682-24.765l5.792.464a1.523 1.523 0 11-.242 3.039l-5.843-.468a25.82 25.82 0 01.293-3.035zm2.198-6.893l6.279 1.614a1.528 1.528 0 011.099 1.859 1.527 1.527 0 01-1.86 1.092l-6.7-1.72c.327-.97.727-1.915 1.182-2.845zm36.836 29.666l-3.857-3.929a1.524 1.524 0 012.175-2.137l3.94 4.016a23.457 23.457 0 01-2.258 2.05zm9.068-20.069c.05 1.02.032 2.038-.043 3.06l-6.399.322a1.518 1.518 0 01-1.596-1.441 1.516 1.516 0 011.445-1.6l6.593-.34zm-18.74-22.451l-1.123 7.028a1.523 1.523 0 01-1.747 1.264 1.518 1.518 0 01-1.262-1.742l1.123-7.044c1.004.095 2.01.261 3.008.494zm12.513 7.347a24.296 24.296 0 011.905 2.387l-4.558 4.027a1.534 1.534 0 01-2.153-.135 1.528 1.528 0 01.13-2.154l4.676-4.125z" fill="#fda92f"/></g><g><circle cx="1494.85" cy="372.517" r="157.821" fill="#ffcf84" transform="matrix(.15078 -.02866 .02866 .15078 1040.675 1009.904)"/><path d="M1274.175 1008.006c8.599-1.634 16.912 4.024 18.548 12.63 1.637 8.607-4.02 16.922-12.62 18.556a1.534 1.534 0 00-1.223 1.785 1.534 1.534 0 001.793 1.21c10.253-1.949 16.996-11.86 15.046-22.12-1.95-10.259-11.86-17.005-22.113-15.056a1.534 1.534 0 00-1.224 1.784 1.534 1.534 0 001.793 1.211z" fill="#fda92f"/><path d="M1280.104 1039.192c-8.61 1.637-16.923-4.022-18.56-12.629-1.635-8.606 4.022-16.92 12.631-18.557a1.523 1.523 0 001.203-1.78 1.523 1.523 0 00-1.772-1.215c-10.264 1.951-17.007 11.863-15.057 22.122 1.95 10.26 11.86 17.006 22.124 15.055a1.523 1.523 0 001.202-1.78 1.523 1.523 0 00-1.771-1.216z" fill="#fda92f"/><path d="M1277.678 1047.433l-.865-5.731a1.521 1.521 0 011.278-1.734 1.525 1.525 0 011.74 1.28l.882 5.874a24.274 24.274 0 01-3.035.31zm8.656-1.96l-2.568-5.534a1.528 1.528 0 01.745-2.025 1.53 1.53 0 012.024.741l2.52 5.438a23.86 23.86 0 01-2.72 1.38zm-26.867-5.274l3.807-4.39a1.523 1.523 0 112.303 1.997l-3.84 4.428a25.82 25.82 0 01-2.27-2.035zm-4.249-5.857l5.023-4.1a1.528 1.528 0 012.148.217 1.527 1.527 0 01-.223 2.146l-5.357 4.376a23.948 23.948 0 01-1.59-2.639zm45.73-12.076l-5.451.777a1.524 1.524 0 01-.431-3.019l5.57-.793c.172 1.016.273 2.029.312 3.035zm-10.786-19.2c.85.564 1.66 1.182 2.438 1.848l-3.534 5.344a1.518 1.518 0 01-2.107.431 1.516 1.516 0 01-.432-2.112l3.635-5.511zm-29.191 1.78l4.995 5.071a1.523 1.523 0 01-.018 2.156c-.6.59-1.568.585-2.15-.016l-5.008-5.08a22.727 22.727 0 012.181-2.13zm13.336-5.72a24.297 24.297 0 013.052-.12l.54 6.058a1.534 1.534 0 01-1.385 1.654 1.528 1.528 0 01-1.657-1.382l-.55-6.21z" fill="#fda92f"/></g></g></g><g><path d="M1216.918 1045.351l-117.34 204.33h-48.26s-14.829 31.68 7.64 43.28h221.35c.23 0 .45.02.68.05 4.41.32 29.6-.4 49.53-52.04 32.38-83.88 65.2-132.27 98.35-195.62h-211.95z" fill="#e9e9eb"/><ellipse cx="1144.86" cy="1200.21" rx="37.235" ry="35.603" fill="#fff" transform="matrix(.93449 .13298 -.3134 .95535 486.478 -99.453)"/><path fill="#babdc2" d="M1220.542 1054.274l182.198 1.934-7.799 14.228-182.199-1.933zM1207.452 1080.809l183.055 1.644-7.777 14.242-183.055-1.644zM1192.732 1106.184l183.644 4.777-8.008 14.103-183.645-4.777zM1179.066 1131.298l182.684 7.916-8.232 13.961-182.685-7.916zM1244.545 1163.606l97.518 4.916-6.839 13.617-97.518-4.917zM1260.081 1193.4l65.856 3.957-5.702 13.68-65.856-3.957zM1225.375 1219.847l87.369 6.51-4.771 13.747-87.368-6.51z"/><path d="M1103.968 1242.031h158.11c.18 0 .36.02.54.04 1.7.23 3.13 1.16 3.79 3.32.32 1.04.35 3.11-.06 5.91-1.45 10.03-7.92 35.34 17.98 41.61-1.53.17-2.68.14-3.34.1-.23-.03-.45-.05-.68-.05h-13.53c-.88-.78-1.69-1.6-2.44-2.45-9.12-10.36-8.14-25.36-6.66-35.41.25-1.73.5-3.6.69-5.07l-158.79-.35 4.39-7.65z"/><path d="M1164.058 1206.108c2.729 3.538 6.597 5.762 11.629 6.804 6.044 1.11 9.7-.291 11.162-4.167 1.086-3.181-.266-5.492-4.056-6.932-1.796-.605-3.722-1.236-5.822-1.964-3.746-1.368-6.319-3.34-7.674-5.843-1.4-2.576-1.534-5.418-.468-8.539 1.27-3.72 3.591-6.47 7.09-8.222 3.37-1.777 7.452-2.2 12.2-1.34 5.724 1.24 10.2 3.709 13.446 7.348l-5.71 4.586c-2.716-2.768-6.148-4.65-10.273-5.516-2.138-.415-4.115-.288-5.889.456-1.838.73-3.148 2.14-3.91 4.168-.43 1.26-.281 2.44.407 3.663.688 1.221 2.146 2.209 4.27 3.07 1.169.419 2.836.998 4.956 1.667 4.155 1.383 6.837 3.44 8.11 6.184 1.23 2.67 1.364 5.512.318 8.573-2.982 8.125-9.837 11.208-20.436 9.277-6.8-1.322-12.018-4.448-15.609-9.306l6.26-3.967z" fill-rule="nonzero"/><path d="M1189.46 1170.374l-23.198 52.541 5.371 1.636 23.396-53.002-5.57-1.175z"/></g><g><path d="M1683.24 1158.126c-2.61-2.86-6.09-4.45-8.92-2.59-9.94 6.53-16.72 13.5-26.47 20.29-30.14 21-72.42 26.85-91.11 61.3-18.95 34.9-19.91 77.67-36.77 113.94-22.71 48.88-55.22 92.25-79.3 140.41-29.82 59.61-76.26 190.33-76.26 190.33-15-.22-88.97 9.43-133.94 16.37-1.71.26-2.92 1.8-2.79 3.52a3.307 3.307 0 003.3 3.06h489.21c3.69 0 7.1-1.97 8.95-5.16 1.85-3.19 1.87-7.13.03-10.33-9.26-16.19-25.29-25.68-43.14-30.1-13.73-3.4-26.98-1.73-40.81-.56-.52.04-1.18.13-1.58-.28-.1-.1-.24-.28-.3-.4-3.67-7.62-1.71-50.88-1.59-60.61.51-40.54 2.32-81.2 5.8-121.6 1.12-12.97 3.44-50.26 3.44-50.26s31.18-4.29 40.13-6.32c22.04-4.98 40.04-19.25 52.64-37.81 18.69-27.53 19.9-64.92 28.36-96.24 7.07-26.22 20.3-46.65 31.61-70.7 5.87-12.48 3.8-30.92-9.77-37.63-13.27-6.57-27.18 7.16-35.53 15.94-26.57 27.98-27.93 66.48-50.63 94.23-16.1 19.67-48.58 23.28-48.58 23.28s-1-23.99 0-30.65c5.01-33.33 23.8-54.52 31.45-85.19 2.21-8.88.96-27.08-7.43-36.24z" fill="#dd6140"/><path d="M1608.39 1439.286c14.46-7.39 42.6-13.83 42.6-13.83s-.74 11.94-1.59 24.65c-10.85-3.93-24.45-5.09-39.47-4.84-1.46.02-2.75-.97-3.11-2.38-.37-1.42.28-2.91 1.57-3.6zM1622.73 1202.706l6.42 4.73c1.78 1.31 4.29.93 5.6-.85 1.31-1.77.93-4.28-.85-5.59l-6.42-4.73a4.003 4.003 0 00-5.59.84c-1.31 1.78-.94 4.29.84 5.6zM1642.79 1656.376c-.27-.42-.46-.89-.57-1.41-8.32-42.3-19.46-71.25-32.07-90.46-12.09-18.42-25.44-27.65-38.8-30.93-26.95-6.63-53.46 10.55-68.21 22.56-6.72 5.46-11.8 10.8-11.8 10.8-.77.95-1.97 1.53-3.29 1.47-2.2-.11-3.91-1.99-3.8-4.19 0-.06-.09-1.27 1.17-2.66.85-.93 5.45-5.75 12.67-11.63 16.2-13.2 45.55-31.4 75.17-24.12 14.93 3.67 30.06 13.71 43.58 34.31 8.99 13.69 17.31 32.14 24.43 56.63-.29 14.75-.32 32.87 1.52 39.63zm-69.46-433.52s-12.96 32.56-20.95 52.66c-4.79 12.02.21 25.72 11.6 31.85 5.19 2.81 10.45 4.89 15.77 6.2 7.22 1.8 14.87.16 20.73-4.42a24.195 24.195 0 009.29-19.07v-65.75c0-2.2-1.79-4-4-4-2.2 0-4 1.8-4 4v65.75c0 4.99-2.29 9.69-6.22 12.76a16.162 16.162 0 01-13.88 2.97c-4.69-1.16-9.31-3-13.89-5.48-7.83-4.21-11.25-13.61-7.97-21.85 8-20.1 20.96-52.67 20.96-52.67.81-2.05-.19-4.38-2.24-5.19-2.06-.82-4.38.18-5.2 2.24zm85.63 79.36c.12 4.59.26 7.99.26 7.99s.64-.07 1.79-.24c-4.94 1.01-9.51 1.44-13.8 1.4a3.997 3.997 0 01-3.96-4.03 3.999 3.999 0 014.03-3.97c3.64.03 7.51-.33 11.68-1.15zm143.42-118c1.49 2.25 2.59 4.77 3.32 7.42-15.19 11-26.55 27.75-27.09 28.74a4 4 0 01-5.42 1.61 4 4 0 01-1.61-5.42c.6-1.12 13.59-20.29 30.8-32.35zm-14.81-9.16c2.13.12 4.27.65 6.39 1.7.88.43 1.71.92 2.5 1.45-6.46 4.92-19.59 16.12-33.06 34.68a3.995 3.995 0 01-5.58.88 3.988 3.988 0 01-.89-5.58c11.66-16.07 23.11-26.89 30.64-33.13zm-126.53-9.49c4.15-3.4 8.32-6.77 13.28-10.03 2.83-1.86 6.31-.27 8.92 2.59 1.98 2.16 3.56 4.82 4.8 7.75-11.36 11.79-23.91 2.35-27-.31z"/></g><defs><linearGradient id="_Linear1" x1="0" y1="0" x2="1" y2="0" gradientUnits="userSpaceOnUse" gradientTransform="scale(1145.755) rotate(-30.526 2.633 -.8)"><stop offset="0" stop-color="#b8d8d5"/><stop offset=".42" stop-color="#cee0da"/><stop offset="1" stop-color="#fff0e6"/></linearGradient><linearGradient id="_Linear2" x1="0" y1="0" x2="1" y2="0" gradientUnits="userSpaceOnUse" gradientTransform="rotate(128.592 110.016 487.655) scale(780.808)"><stop offset="0" stop-color="#b8d8d5"/><stop offset=".47" stop-color="#ccdfda"/><stop offset="1" stop-color="#fff0e6"/></linearGradient><linearGradient id="_Linear3" x1="0" y1="0" x2="1" y2="0" gradientUnits="userSpaceOnUse" gradientTransform="rotate(44.239 -30.484 2868.704) scale(419.839)"><stop offset="0" stop-color="#ffbf2f"/><stop offset="1" stop-color="#fd9500"/></linearGradient><linearGradient id="_Linear4" x1="0" y1="0" x2="1" y2="0" gradientUnits="userSpaceOnUse" gradientTransform="scale(-591.618) rotate(33.981 1.965 -7.25)"><stop offset="0" stop-color="#ffbf2f"/><stop offset=".48" stop-color="#feb422"/><stop offset="1" stop-color="#fd9500"/></linearGradient></defs></svg>