<svg viewBox="0 0 2732 2048" xmlns="http://www.w3.org/2000/svg" fill-rule="evenodd" clip-rule="evenodd" stroke-linejoin="round" stroke-miterlimit="2"><path d="M920.638 729.77l-25.611 5.633-5.276-282.644 886.494-225.55 134.05 270.518-943.286 208.89-46.371 23.153z"/><path d="M1066.57 684.57l-10.18 2.253-86.087-254.559 10.076-2.563 86.192 254.868zm16.81-281.077L1171 647.91a5.176 5.176 0 01-3.13 6.628 5.176 5.176 0 01-6.62-3.13l-87.96-245.347 10.09-2.568zm127.18-32.358l93.94 258.495c.27.722.36 1.464.3 2.184l-9.68 2.142a5.14 5.14 0 01-.36-.785l-94.29-259.467 10.09-2.569zm223.87 231.971l-10.17 2.253-87.38-266.362 10.07-2.562 87.48 266.671zm-62.96-272.91c13.28 41.227 68.19 211.624 86.43 267.714l-10.17 2.251c-18.64-57.339-73.47-227.519-86.32-267.405l10.06-2.56zm161.88-41.187l84.55 251.421a5.187 5.187 0 01-3.26 6.564 5.187 5.187 0 01-6.57-3.26l-84.8-252.16 10.08-2.565zm111.78-28.44l94.16 256.958a5.176 5.176 0 01-3.08 6.65 5.183 5.183 0 01-6.65-3.084l-94.53-257.954 10.1-2.57zm169.42 258.361l-10.22 2.263-102.6-275.025 10.11-2.57 102.71 275.332z" fill="#d2d2d5"/><path d="M973.563 704.722l141.949-31.284 89.376-126.03 132.81 77.05 233.886-51.553 88.365-124.612 131.312 76.189 97.403-21.47 134.395 609.664-981.42 216.332-134.257-609.07-.025-.005-.004-.122-.103-.469.091-.02-6.304-244.911 72.526 230.31z" fill="#d2d2d5"/><path d="M1206.408 551.474l-109.484 161.831-23.191-15.69L1190.917 524.4c4.28-6.32 12.824-8.051 19.224-3.893L1380.48 631.2l-15.266 23.478-158.806-103.204zM1660.294 453.075l-106.899 163.55-23.437-15.32 114.417-175.053c4.179-6.387 12.694-8.254 19.16-4.199l172.076 107.972-14.89 23.718-160.427-100.668z"/><path d="M1146.861 1305.813l-9.766 2.15-132.98-609.974 9.767-2.15 132.98 609.974zM1328.66 696.833a89.453 89.453 0 00-39.178-56.121 89.44 89.44 0 00-123.518 27.197 89.453 89.453 0 00-11.984 67.387l27.109 123.115 174.68-38.463-27.108-123.115z" fill="#fff"/><path d="M1214.636 630.714a89.598 89.598 0 017.449-1.982c.752-.164 1.507-.319 2.251-.47l13.675 62.726 81.77-17.827a89.51 89.51 0 014.397 9.277l-84.037 18.32 13.993 64.183 85.414-18.621 2.15 9.766-85.434 18.625 13.969 64.075-9.767 2.15-13.973-64.095-79.542 17.341-2.15-9.766 79.562-17.345-13.992-64.183-78.399 17.092a89.546 89.546 0 01.147-10.267l76.122-16.595-13.605-62.404z" fill="#d2d2d5"/><path d="M1300.873 710.23l-19.666 33.078c-.57.953-.25 2.183.69 2.746.952.56 2.184.25 2.744-.7l19.676-33.081a1.993 1.993 0 00-.699-2.734 2.005 2.005 0 00-2.745.69zm-10.463.316l-14.445 23.363a1.983 1.983 0 00.65 2.744 1.992 1.992 0 002.746-.64l14.445-23.363a2.004 2.004 0 00-.642-2.756c-.943-.572-2.18-.282-2.754.652z" fill="#d2d2d5"/><path d="M1396.818 955.704c-10.818-49.127-59.411-80.184-108.544-69.365l-35.858 7.895c-49.118 10.815-80.187 59.413-69.37 108.54l41.678 189.283 213.772-47.07-41.678-189.283z" fill="#fff"/><path d="M1277.602 888.692c44.44-.374 84.606 30.304 94.537 75.434l41.054 186.434-188.457 41.495-.453-2.03 178.7-39.347-40.61-184.402c-10.224-46.428-56.15-75.779-102.578-65.555l-16.466 3.62c-19.162 4.219-35.411 14.516-47.177 28.432 12.599-18.969 32.277-33.258 56.272-38.54l25.178-5.54z" fill="#d2d2d5"/><path d="M1788.779 598.23a89.453 89.453 0 00-39.18-56.12 89.44 89.44 0 00-123.518 27.197 89.453 89.453 0 00-11.982 67.387l27.108 123.114 174.68-38.462-27.108-123.115z" fill="#fff"/><path d="M1677.57 531.275a94.924 94.924 0 014.632-1.143l.01-.003a82.48 82.48 0 015.13-.975l13.293 60.978 78.419-17.096a90.297 90.297 0 014.592 9.234l-80.88 17.633 13.992 64.182 82.55-17.997 2.15 9.767-82.57 18 14.322 65.698-9.766 2.15-14.327-65.717-82.414 17.967-2.15-9.767 82.434-17.97-13.992-64.183-80.959 17.65c-.084-3.442.025-6.884.333-10.308l78.496-17.113-13.296-60.987z" fill="#d2d2d5"/><path d="M1674.067 626.803l-22.562 31.202a1.995 1.995 0 00.454 2.787c.89.655 2.146.453 2.79-.444l22.561-31.202a1.994 1.994 0 00-.454-2.787 2.004 2.004 0 00-2.79.444zm-12.132.076l-19.668 27.06a2.007 2.007 0 00.437 2.801 2.016 2.016 0 002.799-.446l19.667-27.06a1.986 1.986 0 00-.444-2.79 1.995 1.995 0 00-2.791.435z" fill="#d2d2d5"/><g><path fill="#fff" d="M1692.855 843.967l145.05-32.247 41.968 188.779-145.05 32.246z"/><path d="M1810.57 1015.907l-9.762 2.169-40.032-189.215 9.762-2.17 40.032 189.216z" fill="#d2d2d5"/></g><g><path fill="#fff" d="M1473.887 892.404l145.05-32.247 41.968 188.778-145.05 32.247z"/><path d="M1595.75 1063.415l-9.762 2.169-42.979-188.553 9.762-2.169 42.979 188.553z" fill="#d2d2d5"/></g><g><path d="M1043.3 1007.977l-47.533 24.804 38.8 177.98 55.275 10.702-46.542-213.486zm-60.41-277.102c-2.733-12.535-14.37-21.083-27.15-19.934-12.783 1.139-22.717 11.615-23.177 24.448v.01c-.153 4.26.229 8.517 1.134 12.67l34.543 158.448 46.083-31.458-31.433-144.184z" fill="#fff"/></g><g><path d="M1244.741 1284.24l-20.943-96.065a5.002 5.002 0 013.82-5.95 5.002 5.002 0 015.951 3.82l20.938 96.044-9.766 2.15zm75.752-16.7l-10.557-48.422-35.525 7.745a4.92 4.92 0 01-2.717-.165l-.013-.008a4.991 4.991 0 01-4.436-3.915l-9.295-42.639a5.002 5.002 0 013.82-5.95 5.002 5.002 0 015.95 3.82l8.244 37.812 36.766-7.544 171.688-37.43-7.453-34.187-52.048 11.347a5.002 5.002 0 01-5.95-3.82 5.002 5.002 0 013.82-5.95l56.933-12.412a5.002 5.002 0 015.95 3.82l8.518 39.072 33.298-7.259a5.002 5.002 0 015.95 3.82l11.51 52.79-9.767 2.15-10.448-47.924-205.024 44.697 10.552 48.403-9.766 2.15z" fill="#fff"/></g><g><path d="M1517.71 714.73a29.97 29.97 0 00-35.14-23.696l-2.434.473a29.97 29.97 0 00-23.697 35.14l8.792 45.212 61.272-11.917-8.793-45.211z" fill="#fff"/><path d="M1498.92 718.412l-19.034 32.357a1.993 1.993 0 00.708 2.732c.951.56 2.181.241 2.742-.71l19.027-32.345c.56-.951.24-2.182-.71-2.742a1.993 1.993 0 00-2.732.708zm-11.247.098l-12.603 20.874a2.005 2.005 0 00.681 2.748 1.992 1.992 0 002.738-.679l12.603-20.874a2.004 2.004 0 00-.67-2.75 1.995 1.995 0 00-2.749.681z" fill="#d2d2d5"/></g><g><path d="M1066.57 271.133s-41.991-.024-10.18 82.003l59.75-14.359-49.57-67.644z" fill="#80b1ae"/><path d="M1056.39 273.355s33.84-7.43 111.48 224.061l424.45-100.93s-50.64-201.754-105.11-233.737l-430.82 110.606z" fill="#aacfcc"/><path d="M1195.229 400.044c13.076 3.643 26.229 2.588 39.472-3.172 15.513-7.163 20.937-16.289 16.274-27.376-3.891-9.05-11.528-12.134-22.894-9.26a2897.71 2897.71 0 01-16.91 4.84c-11.093 2.884-20.652 2.54-28.695-1.026-8.292-3.654-14.374-9.877-18.279-18.656-4.69-10.545-4.986-20.6-.87-30.168 3.918-9.414 12.05-16.933 24.427-22.57 15.102-6.321 29.96-7.936 44.572-4.846l-3.436 19.584c-11.672-1.95-22.964-.632-33.907 3.97-5.598 2.49-9.641 5.975-12.132 10.456-2.6 4.662-2.676 9.92-.193 15.76 1.547 3.48 4.29 6.029 8.23 7.65 3.98 1.668 9.183 1.736 15.607.2 3.54-.913 8.333-2.284 14.363-4.106 11.963-3.47 22.101-3.117 30.413 1.056 8.2 4.092 14.21 10.412 18.017 18.97 9.658 23.351.79 41.317-26.605 53.898-17.818 7.924-35.58 9.211-53.303 3.866l5.849-19.07z" fill-rule="nonzero"/><path d="M1175.68 279.557l54.408 156.912 9.444-3.275-54.409-156.913-9.444 3.276zM1192.21 273.863l54.408 156.913 9.444-3.275-54.408-156.913-9.444 3.275z"/><g><path d="M1263.508 273.83l101.278-25.71 1.962 7.757-104.835 26.611a4.002 4.002 0 01-4.768-2.57l-6.853-19.84a3.989 3.989 0 01.264-3.206 3.98 3.98 0 012.532-1.977l104.34-26.486 1.973 7.753-100.125 25.416 4.232 12.251z"/><path d="M1477.728 206.126L1359.4 236.162l-1.972-7.753 121.894-30.942a4.002 4.002 0 014.767 2.57l6.853 19.84a3.99 3.99 0 01-.263 3.206 4.018 4.018 0 01-2.542 1.98l-121.39 30.814-1.962-7.756 117.174-29.744-4.232-12.251zM1270.136 320.723l93.981-23.857 1.966 7.755-97.542 24.76a4.005 4.005 0 01-4.772-2.57l-6.853-19.84a3.992 3.992 0 01.26-3.204 4.012 4.012 0 012.535-1.978l104.41-26.503 1.967 7.755-100.184 25.43 4.232 12.252z"/><path d="M1504.73 247.847l-138.642 35.194-1.966-7.755 142.203-36.097a3.994 3.994 0 014.761 2.571l6.853 19.84a3.995 3.995 0 01-.26 3.206 3.976 3.976 0 01-2.535 1.977l-149.06 37.838-1.967-7.755 144.846-36.767-4.232-12.252z"/><g><path d="M1326.36 354.991l82.82-21.023 1.97 7.754-86.386 21.928a3.998 3.998 0 01-4.758-2.573l-6.853-19.84a3.983 3.983 0 01.261-3.205 3.984 3.984 0 012.527-1.975l83.643-21.232 1.96 7.756-79.415 20.159 4.232 12.251z"/><path d="M1525.61 291.088l-124.065 31.493-1.96-7.756 127.622-32.396a4 4 0 014.767 2.57l6.853 19.84a3.985 3.985 0 01-.261 3.205 3.99 3.99 0 01-2.537 1.978l-124.88 31.7-1.97-7.754 120.663-30.629-4.232-12.251z"/></g><g><path d="M1313.34 406.932l108.263-27.482 1.965 7.755-111.825 28.386a4.002 4.002 0 01-4.763-2.572l-6.853-19.84a3.999 3.999 0 01.264-3.205 4 4 0 012.534-1.978l111.492-28.3 1.975 7.751-107.284 27.233 4.232 12.252z"/><path d="M1544.445 334.942l-128.053 32.505-1.975-7.752 131.626-33.412a4.002 4.002 0 014.762 2.571l6.853 19.84a4 4 0 01-2.798 5.184l-131.292 33.327-1.965-7.755 127.074-32.256-4.232-12.252z"/></g></g></g><g><path d="M748.455 964.447s156.438 223.07 224.57 320.23a124.642 124.642 0 0084.716 51.85c27.58 3.87 59.38 8.33 78.74 11.05 11 1.54 21.94-3.16 28.4-12.19 11.42-15.97 28.05-39.25 28.05-39.25s17.94-5.02 26.22-7.34c3.38-.94 5.58-4.2 5.19-7.68-.47-3.14-2.1-7.02-6.83-10.73-6.69-5.24-14.16-6.47-83.95 3.8 0 0 2.91-69.9-62.32-77.05l-55.948-100.15-266.838-132.54z" fill="#ffc5bd"/><path d="M1192.93 1296.136l-8.24 11.53-37.03 8.2-5.97 14.49a5 5 0 01-6.53 2.72 5.008 5.008 0 01-2.72-6.53l3.32-8.05-60.38 13.37c-2.7.59-5.37-1.11-5.96-3.8-.6-2.7 1.1-5.37 3.8-5.96l128.26-28.4c.12-.02.24-.05.37-.06l-8.92 2.49zm-59.82-31.91c.61 6.06.45 9.96.45 9.96 3.24-.48 6.35-.93 9.33-1.35l-.2.03-18.09 2.79a5.003 5.003 0 01-1.52-9.89l10.03-1.54zM749.108 964.771c.243.244.464.516.658.817 89.42 138.508 222.146 137.418 266.257 132.708l5.28 9.45c-33.247 4.18-131.341 8.69-218.063-65.18l-54.785-78.119.653.324z" fill="#f2887b"/><path d="M546.564 1336.65c-19.066-62.96-32.344-123.96-35.544-177.75-4.608-77.42 39.503-130.33 97.723-137.26 18.706-2.22 58.946-3.41 96.055 33.56l.146-.33s139.747 130.68 227.159 308.7c24.469 50.08 16.605 109.49-18.979 151.35 31.402 93 61.238 195.11 84.943 300.94 0 0 40.883 8.06 61.943 34.31H787.183c-5.008 0-9.639-2.66-12.16-6.99-15.689-27.33-74.571-131.79-132.828-259.68-63.938-15.65-141.919-48.44-235.537-108.91 0 0-31.918 23.27-62.464 23.35 0 0 106.069-147.42 130.847-181.85a11.06 11.06 0 0113.24-3.75c17.712 7.39 58.283 24.31 58.283 24.31z" fill="url(#_Linear1)" transform="translate(38.29 2.296)"/><path d="M967.919 1360.866c.827 1.66 1.653 3.33 2.475 5 .81 1.66 1.584 3.33 2.322 5h-67.44c-2.758 0-5-2.24-5-5s2.242-5 5-5h62.643z" fill="#f2887b"/><path d="M572.162 1333.646l12.665 5.28c22.336 59.39 100.524 257.55 95.659 246.87-3.785-.92-7.62-1.91-11.502-2.96-29.673-70.99-82.678-211.53-96.822-249.19zm195.105-252.41c9.837 10.24 22.224 23.56 36.255 39.56 72.4 125.51 106.11 256.41 154.984 387.35-2.225 3.1-4.59 6.13-7.091 9.07-4.037 2.39-102.854-334.18-184.148-435.98z" fill="#f28476"/><path d="M908.476 1388.096c1.183 3.08 2.362 6.15 3.537 9.23l.248.66-308.192-.26-.14-.4c-1.05-3.01-2.091-6.02-3.125-9.04l-.192-.56 307.82.26.044.11z" fill="#f28476"/><g><path d="M680.393 666.37c24.544-8.404 115.008-18.679 155.186 77.03 8.046 19.164 58.985 171.507 183.657 157.9 0 0 54.455-3.758 125.695-56.822 0 0 86.17-66.29 176.49-76.855 4.25-.455 8.49.852 11.74 3.616a15.557 15.557 0 015.46 11.004c.42 7.013-3.55 15.321-19.09 22.501 0 0-47.4 17.178-64.12 32.777 0 0 26.89-9.798 35.91 10.816 1.61 3.672 5.57 19.9-13.52 32.246 0 0 23.15-5.505 29.11 12.186 2.99 8.888 1.9 19.104-15.59 30 0 0 11.46-1.669 15.59 7.141 3.71 7.936 1.96 16.743-29.11 42.62-30.95 25.78-180.72 132.306-286.045 127.286-105.328-5.02-192.302-59.45-247.34-139.915 0 0-106.131 48.185-171.008-45.733-18.893-27.352-58.843-191.02 106.985-247.798z" fill="#ffc5bd"/><path d="M1265.12 892.552s12.04 20.064 13.5 39.981a5 5 0 005.35 4.62 4.992 4.992 0 004.62-5.353c-1.62-22.093-14.89-44.378-14.89-44.378-1.41-2.369-4.03-1.415-6.4 0-2.37 1.416-3.6 2.761-2.18 5.13z" fill="#fd9909"/><path d="M1270.35 934.458c12.62-6.873 17.21-9.626 20.97-11.69 0 0 7.5-1.093 12.55 3.16-7.68 5.917-17 10.917-28.74 17.313-2.43 1.32-5.47.423-6.78-2a4.996 4.996 0 012-6.783zm-13.17-43.703c15.89-7.717 16.9-8.405 20.62-10.172 0 0 7.36-1.748 14.84-.107-7.09 6.595-15.8 11.85-31.1 19.275a5.003 5.003 0 01-6.68-2.314 5.003 5.003 0 012.32-6.682zm-19.06-44.069c9.33-4.885 13.79-7.275 17.29-9.165 0 0 10.11-3.685 20.02-1.78-13.91 8.37-20.56 13.463-32.68 19.805a4.994 4.994 0 01-6.74-2.11 4.998 4.998 0 012.11-6.75z" fill="#f2887b"/><path d="M744.39 959.913c-1.902.853-106.696 47.323-170.982-45.745-18.893-27.352-58.843-191.02 106.985-247.798 24.544-8.404 115.008-18.679 155.186 77.03 3.477 8.28 14.962 41.427 36.937 75.295l-157.543 84.63c6.165 19.306 17.686 37.783 29.417 56.588z" fill="#f28476"/><path d="M702.014 970.967c-22.781-66.123-16.76-106.666-11.538-124.284a2.593 2.593 0 015.043.486c2.868 16.046 11.1 37.963 20.236 58.518 4.325 12.617 10.86 24.896 18.156 37.163 3.988 7.412 7.506 13.421 10.07 17.242-2.83 1.222-19.26 7.998-41.967 10.875z" fill="#af2b18"/><path d="M718.6 895.146l14.007 25.811a5 5 0 008.789-4.769l-14.005-25.81a5.004 5.004 0 00-6.78-2.01 5.003 5.003 0 00-2.01 6.778zm26.88-13.928l12.79 26.435a5.001 5.001 0 006.679 2.323 5.002 5.002 0 002.323-6.678l-12.79-26.435a5.002 5.002 0 00-6.678-2.323 5.002 5.002 0 00-2.323 6.678zm26.907-15.558l13.099 26.283a5.003 5.003 0 006.706 2.244 5.001 5.001 0 002.244-6.705l-13.1-26.283a5.003 5.003 0 00-6.704-2.244 5.002 5.002 0 00-2.245 6.705zm26.902-14.598l13.643 26.004a5.003 5.003 0 006.75 2.105 5.003 5.003 0 002.105-6.75l-13.643-26.005a5.003 5.003 0 00-6.751-2.105 5.003 5.003 0 00-2.104 6.751zm26.769-14.192l13.643 26.005a5.002 5.002 0 006.75 2.104 5.002 5.002 0 002.105-6.75l-13.643-26.005a5.003 5.003 0 00-6.751-2.104 5.002 5.002 0 00-2.104 6.75zm26.769-14.19l13.643 26.003a5.003 5.003 0 006.75 2.105 5.003 5.003 0 002.105-6.75l-13.643-26.005a5.003 5.003 0 00-6.751-2.105 5.003 5.003 0 00-2.104 6.751z" fill="#f28476"/></g><g><circle cx="635.641" cy="575.164" r="72.873" fill="#ffc5bd" transform="translate(41.046 -7.383)"/><path d="M620.49 552.952c.463.785-1.785-.379-2.681-.547-2.466-.464-4.881-1.185-7.301-1.84-6.495-1.76-12.838-3.876-19.15-6.205-19.346-7.14-38.501-15.014-57.407-23.246-41.62-18.12-133.893-66.416-156.614-.835-2.864 8.27-4.66 17.064-5.31 25.791-1.076 14.444 1.676 28.824 6.88 42.275 25.739 66.517 72.746 62.146 130.029 40.665 41.21-15.454 76.864-36.836 114.298-59.297"/><path d="M626.654 620.743c-14.061-13.289-22.84-32.109-22.84-52.963 0-40.22 32.654-72.873 72.874-72.873 13.63 0 26.39 3.75 37.312 10.277-2.88 24.787-17.106 87.868-87.346 115.56z"/></g></g><g><path d="M2128.22 965.633s35.44-8.13 69.02-32.746c53.4-39.212 67.83-112.796 33.21-169.275-38.57-63.01-118.44-157.218-223.71-87.727-23.35 15.415-68.5 49.721-81.72 208.02 0 0 .99 136.051-107.03 149.101-95.5 11.53-177.41 52.41-204.11 87.52-2.11 2.8-2.63 6.49-1.37 9.76 1.26 3.27 4.12 5.65 7.56 6.31 16.54 3.16 42.11 8.04 42.11 8.04s-10.65 16.58-49.47 45.78c0 0-31.43 20.03-27.96 48.48a9.942 9.942 0 004.31 7.04 9.997 9.997 0 008.15 1.37c5.79-2.33 14.78-6.28 28.14-13.13 0 0 34.9 14.25 72.38-8.58 0 0 220.39 1.61 357.84-126.73 26.33-24.58 57.04-61.38 72.65-133.233z" fill="#ffb000"/><path d="M1739.5 1223.406l-10.62-11.87a5 5 0 01.39-7.06c2.05-1.84 5.22-1.66 7.06.39l15.5 17.32c-4.32.47-8.44.87-12.33 1.22z" fill="#ffcf84"/><path d="M1625.35 1234.176c-1.94 1 83.95-59.35 83.95-59.35a5.006 5.006 0 016.96 1.26c1.57 2.26 1.01 5.38-1.25 6.96l-78.05 54.2c-7.27-1.3-11.61-3.07-11.61-3.07zm72.38-8.58c-2.52 1.54 40.65-29.62 40.65-29.62a5.001 5.001 0 016.96 1.23 5.015 5.015 0 01-1.23 6.97l-29.94 20.97c-10.51.5-16.44.45-16.44.45zm-46.06-82.96c7.36-9.76 9.64-19.41 10.08-21.62l.06-.3.02-.14c.11-.61.26-.92.28-.99.52-1.26 1.26-1.83 1.61-2.1 1.61-1.22 3.18-1.21 4.52-.79 1.02.32 2.54 1.02 3.26 3.22.03.1.38.83.2 2.2 0 .05-.04.33-.14.84-.7 3.53-9.38 21.68-9.38 21.68l-10.51-2zm19.96-20.08c-.06.25-.13.5-.23.74.03-.07.07-.17.12-.32.03-.11.07-.23.1-.38l.03-.16-.02.12z" fill="#fd8509"/><path d="M1866.29 1015.566c59.4-40.088 58.73-131.66 58.73-131.66 13.22-158.3 58.37-192.606 81.72-208.02 105.27-69.492 185.14 24.715 223.71 87.726 34.62 56.48 20.19 130.063-33.21 169.275-33.58 24.615-69.02 32.746-69.02 32.746-15.61 71.853-46.32 108.653-72.65 133.233-22.26 20.79-46.71 38.17-72.04 52.71l-117.24-136.01z" fill="#fd9909"/><path d="M2128.22 965.633s5.64-70.958 2.66-121.819a4.072 4.072 0 013.03-4.378 4.072 4.072 0 014.77 2.375c10.31 25.32 25.18 67.318 29.82 108.518-22.39 11.201-40.28 15.304-40.28 15.304z" fill="#d84b26"/><g><circle cx="1992.77" cy="552.896" r="69.935" fill="#ffb000" transform="translate(33.766 2.4)"/><path d="M2001.6 489.948c7.74-2.963 16.15-4.586 24.94-4.586 38.6 0 69.93 31.336 69.93 69.934 0 26.826-15.13 50.144-37.32 61.872l-16.45-36.35c2.78-.066 5.64-.81 8.31-2.296 8-4.45 11.25-13.88 7.26-21.045-3.98-7.165-13.71-9.369-21.71-4.919a18.384 18.384 0 00-4.87 3.924l-30.09-66.534z"/></g><g><path d="M2258.05 989.725C2210.7 970.14 2142.71 972 2025.62 1132.02c-21.37 29.2-276.88 321.15-315.83 459.35-9.43 33.43-34.67 109.13-38.31 226.78-23.02 5.71-42.61 14.7-53.49 32.09h272.3c8.42 0 15.47-6.4 16.29-14.78 4.52-37.04 26.34-138.4 130.49-244.09 0 0 154.98 163.78 287.31 217.51-36 9.49-55.47 24.09-66.33 41.36h137.84c8.87 0 17.03-4.86 21.26-12.66 13.91-25.64 45.29-83.48 59.67-109.99 4.43-8.17 3-18.27-3.51-24.9-33.13-33.73-134.87-137.51-215.26-221.4 30.71-97.41 60.99-197.78 88.26-318.92 11.21-49.67-2.75-101.67-37.31-139.06-14.29-15.41-27.92-24.056-50.95-33.585z" fill="url(#_Linear2)" transform="translate(38.29 2.296)"/><path d="M2299.06 1474.926c-.91 2.89-1.82 5.77-2.72 8.66 6.43 6.71 13 13.55 19.66 20.47l-28.84 26.15a4.11 4.11 0 01-5.05.36c-1.56-1.05-2.21-3.03-1.56-4.81l18.51-50.83z" fill="#d9512e"/><path d="M2462.8 1655.196c2.4 2.45 4.74 4.84 7.02 7.18l-122.2 142.28c-3.11-1.44-6.24-2.93-9.35-4.46l124.53-145zm-748.78 101.83l245.47 18.57c-1.12 3.34-2.17 6.61-3.14 9.79l-243.31-18.4c.31-3.37.64-6.69.98-9.96zm435.28-721.09c-39.14 45.94-110.28 192.51-127.01 331.9-11.16 92.99 1.76 182.91 65.99 236.82a5.012 5.012 0 011.79 4.02c-9.44-9.43-14.71-15.01-14.71-15.01-2.19 2.22-4.34 4.44-6.46 6.66-55.6-56.75-67.33-143.71-56.54-233.68 13.16-109.61 59.58-223.52 98.36-291.11 13.61-15.49 26.45-28.58 38.58-39.6z" fill="#fd9409"/></g></g><g><path d="M1324.35 802.242c6.85 12.055 11.1 23.156 11.83 30.092.5 4.778-.81 7.96-2.97 9.318-2.16 1.358-5.59 1.16-9.68-1.362-6.97-4.297-17.01-15.453-26.09-29.887-9.08-14.433-14.79-28.318-15.64-36.463-.5-4.777.8-7.959 2.96-9.317 2.16-1.359 5.6-1.159 9.68 1.362a39.791 39.791 0 016.49 4.972l-6.78 1.493c-1.81-1.438-3.39-2.393-4.81-2.92-.68-.257-1.24-.526-1.66-.262-.42.264-.41.878-.48 1.61-.14 1.545.1 3.532.64 5.864 1.81 7.82 6.9 19.07 14.24 30.74 7.34 11.67 15.28 21.133 21.54 26.145 1.87 1.496 3.56 2.577 5.01 3.118.69.256 1.24.526 1.66.262.42-.264.42-.878.48-1.609.15-1.547-.1-3.533-.64-5.866-1.5-6.499-5.23-15.249-10.68-24.762 1.48-.639 3.12-1.524 4.9-2.528zM1351.864 851.118c10.24 0 18.547 8.308 18.547 18.541 0 10.234-8.308 18.542-18.547 18.542-5.381 0-9.75 4.371-9.75 9.756 0 5.384 4.369 9.756 9.75 9.756 21.001 0 38.056-17.051 38.056-38.054 0-21.002-17.055-38.053-38.056-38.053-5.381 0-9.75 4.371-9.75 9.756s4.369 9.756 9.75 9.756z"/><path d="M1351.864 888.201c-10.231 0-18.539-8.308-18.539-18.542 0-10.233 8.308-18.541 18.539-18.541 5.389 0 9.758-4.371 9.758-9.756s-4.369-9.756-9.758-9.756c-21.001 0-38.056 17.051-38.056 38.053 0 21.003 17.055 38.054 38.056 38.054 5.389 0 9.758-4.372 9.758-9.756 0-5.385-4.369-9.756-9.758-9.756z"/><path d="M1433.48 987.273l2.96 4.926c2.76 4.618 1.26 10.611-3.35 13.381-4.62 2.77-10.62 1.27-13.39-3.35l-61.06-101.828c-2.77-4.618-1.26-10.616 3.35-13.385 4.62-2.769 10.62-1.267 13.39 3.351l35.67 59.5 8.91-5.179a4.642 4.642 0 016.34 1.676c2.33 4.018 5.9 10.161 8.19 14.095.58 1 .74 2.19.44 3.309a4.332 4.332 0 01-2.02 2.654l-8.85 5.142 3.11 5.184 9.07-5.273a3.7 3.7 0 015.05 1.334c.81 1.394 1.75 3.02 2.55 4.395.47.802.59 1.756.36 2.653a3.488 3.488 0 01-1.63 2.129l-9.09 5.286z"/></g><defs><linearGradient id="_Linear1" x1="0" y1="0" x2="1" y2="0" gradientUnits="userSpaceOnUse" gradientTransform="rotate(114.202 -113.248 944.817) scale(971.089)"><stop offset="0" stop-color="#ffc5bd"/><stop offset="1" stop-color="#ff4a31"/></linearGradient><linearGradient id="_Linear2" x1="0" y1="0" x2="1" y2="0" gradientUnits="userSpaceOnUse" gradientTransform="rotate(-42.88 2828.102 -1903.724) scale(497.397)"><stop offset="0" stop-color="#ffb309"/><stop offset="1" stop-color="#fd9909"/></linearGradient></defs></svg>