<?xml version="1.0" encoding="UTF-8" standalone="no"?>
<!DOCTYPE svg PUBLIC "-//W3C//DTD SVG 1.1//EN" "http://www.w3.org/Graphics/SVG/1.1/DTD/svg11.dtd">
<svg width="100%" height="100%" viewBox="0 0 100 100" version="1.1" xmlns="http://www.w3.org/2000/svg" xmlns:xlink="http://www.w3.org/1999/xlink" xml:space="preserve" xmlns:serif="http://www.serif.com/" style="fill-rule:evenodd;clip-rule:evenodd;stroke-linejoin:round;stroke-miterlimit:2;">
    <g transform="matrix(0.467968,0,0,0.472731,-958.072,-273.651)">
        <g transform="matrix(0.677,0,0,0.67018,1142.13,434.989)">
            <circle cx="1494.85" cy="372.517" r="157.821" style="fill:rgb(255,207,132);"/>
        </g>
        <path d="M2154.14,602.144C2200.13,602.144 2237.47,639.111 2237.47,684.644C2237.47,730.177 2200.13,767.144 2154.14,767.144C2152.27,767.144 2150.75,768.645 2150.75,770.494C2150.75,772.344 2152.27,773.845 2154.14,773.845C2203.87,773.845 2244.24,733.875 2244.24,684.644C2244.24,635.412 2203.87,595.442 2154.14,595.442C2152.27,595.442 2150.75,596.944 2150.75,598.793C2150.75,600.643 2152.27,602.143 2154.14,602.143L2154.14,602.144Z" style="fill:rgb(253,153,9);"/>
        <path d="M2154.14,767.144C2108.14,767.144 2070.79,730.177 2070.79,684.644C2070.79,639.111 2108.14,602.144 2154.14,602.144C2156.01,602.144 2157.52,600.643 2157.52,598.793C2157.52,596.943 2156.01,595.443 2154.14,595.443C2104.4,595.443 2064.03,635.412 2064.03,684.643C2064.03,733.876 2104.4,773.845 2154.14,773.845C2156.01,773.845 2157.52,772.345 2157.52,770.495C2157.52,768.645 2156.01,767.144 2154.14,767.144Z" style="fill:rgb(253,153,9);"/>
        <path d="M2167,789.653L2164.81,772.227C2164.58,770.392 2165.9,768.717 2167.76,768.488C2169.61,768.26 2171.3,769.565 2171.53,771.401L2173.69,788.641C2171.49,789.047 2169.25,789.385 2167,789.653ZM2186.98,785.313L2180.92,767.632C2180.33,765.88 2181.28,763.976 2183.05,763.382C2184.82,762.789 2186.74,763.729 2187.34,765.481L2193.35,783.049C2191.25,783.872 2189.12,784.627 2186.98,785.313ZM2095.24,772.883L2104.65,757.564C2105.62,755.984 2107.7,755.481 2109.3,756.442C2110.3,757.043 2110.93,758.133 2110.93,759.307C2110.93,759.921 2110.76,760.523 2110.43,761.047L2101,776.406C2099.04,775.293 2097.12,774.119 2095.24,772.883L2095.24,772.883ZM2242.04,744.741L2226.49,733.349C2225.63,732.721 2225.13,731.72 2225.13,730.657C2225.13,729.938 2225.36,729.238 2225.79,728.662C2226.9,727.184 2229.03,726.87 2230.52,727.962L2245.72,739.102C2244.56,741.021 2243.33,742.902 2242.04,744.741ZM2052.59,717.611L2070.86,709.471C2072.56,708.711 2074.57,709.465 2075.34,711.151C2075.53,711.583 2075.64,712.051 2075.64,712.525C2075.64,713.847 2074.85,715.05 2073.64,715.582L2054.91,723.926C2054.07,721.847 2053.3,719.741 2052.59,717.611ZM2257.81,658.99C2258.35,661.149 2258.83,663.334 2259.24,665.542L2241.22,669.747C2239.41,670.172 2237.58,669.055 2237.16,667.256C2236.72,665.456 2237.85,663.649 2239.67,663.225L2257.81,658.99ZM2065.85,625.084L2081.95,635.508C2082.9,636.12 2083.48,637.179 2083.48,638.313C2083.48,638.965 2083.29,639.603 2082.93,640.147C2081.91,641.694 2079.81,642.129 2078.24,641.117L2062.21,630.735C2063.36,628.81 2064.58,626.925 2065.85,625.084ZM2076.36,612.154L2089.45,621.686C2090.31,622.312 2090.82,623.316 2090.82,624.382C2090.82,625.098 2090.59,625.796 2090.17,626.37C2089.06,627.86 2086.94,628.18 2085.43,627.084L2071.86,617.196C2073.3,615.468 2074.8,613.787 2076.36,612.155L2076.36,612.154ZM2215.89,598.345C2217.73,599.638 2219.53,600.99 2221.29,602.397L2209.58,617.007C2208.42,618.448 2206.28,618.691 2204.82,617.549C2204.01,616.918 2203.54,615.948 2203.54,614.924C2203.54,614.167 2203.8,613.432 2204.27,612.841L2215.89,598.345ZM2197.76,588.078C2199.83,588.996 2201.86,589.977 2203.85,591.015L2195.59,606.339C2194.71,607.971 2192.66,608.589 2191.01,607.719C2189.91,607.144 2189.22,606.003 2189.22,604.765C2189.22,604.214 2189.36,603.671 2189.62,603.185L2197.76,588.078ZM2130.18,581.55L2134.94,598.372C2135.44,600.152 2134.39,602.003 2132.59,602.502C2130.79,603.002 2128.92,601.962 2128.42,600.181L2123.63,583.257C2125.79,582.618 2127.98,582.049 2130.18,581.55Z" style="fill:rgb(253,153,9);"/>
    </g>
</svg>
