<svg viewBox="0 0 2732 2048" xmlns="http://www.w3.org/2000/svg" fill-rule="evenodd" clip-rule="evenodd" stroke-linejoin="round" stroke-miterlimit="2"><path fill="#ffafa4" d="M1482.085 1145.617h756.1v612.122h-756.1z"/><path d="M1700.46 1426.37h-118.39v257.09h118.39v-257.09zm464.421 12.196h-118.39v244.895h118.39v-244.895zm-154.798-68.593H1891.68v313.488h118.404v-313.488zm-154.811-87.783h-118.404v401.27h118.404v-401.27zm276.299 116.048h-53.305v29.119h53.305v-29.12zm-465.93-11.317h-53.305v29.106h53.305v-29.106zm311.893-54.5h-53.305v29.118h53.305v-29.119zm-156.727-89.8h-53.292v29.12h53.292v-29.12z" fill="#fff1e2"/><path d="M1923.586 1637.06l232.65-251.553a8.712 8.712 0 0112.437-.387c3.53 3.39 3.7 9.06.38 12.65l-239.891 259.388c-1.798 1.935-4.343 2.962-6.94 2.802a8.726 8.726 0 01-6.56-3.643l-166.698-231.096-177.967 240.69c-2.926 3.95-8.436 4.752-12.32 1.776-3.883-2.963-4.67-8.581-1.745-12.531l185.079-250.326c1.679-2.268 4.303-3.59 7.084-3.576 2.781.013 5.392 1.374 7.045 3.656l167.446 232.15z" fill="#dc5d3c"/><path d="M1809.57 572.864a24.669 24.669 0 01-1.42-8.278c0-13.606 11.04-24.652 24.65-24.652 13.6 0 24.65 11.046 24.65 24.652 0 13.605-11.05 24.652-24.65 24.652-3.31 0-6.46-.653-9.35-1.835L1576.73 875.89a24.545 24.545 0 012.47 10.757c0 13.606-11.05 24.652-24.65 24.652-13.61 0-24.65-11.046-24.65-24.652 0-.673.02-1.34.08-2l-23.5-16.308a24.559 24.559 0 01-15.11 5.177c-2.76 0-5.41-.453-7.88-1.287l-249.24 328.467a24.73 24.73 0 011.17 7.54c0 13.6-11.04 24.65-24.65 24.65s-24.65-11.05-24.65-24.65c0-1.33.1-2.63.3-3.89l-153.63-153.98a24.551 24.551 0 01-11.49 2.84c-2.48 0-4.88-.37-7.14-1.06l-267.538 416.5a24.528 24.528 0 013.437 12.56c0 13.6-11.046 24.65-24.652 24.65-13.606 0-24.652-11.05-24.652-24.65 0-13.61 11.046-24.66 24.652-24.66 1.678 0 3.316.17 4.901.49l268.603-418.16a24.567 24.567 0 01-2.26-10.32c0-13.61 11.05-24.66 24.65-24.66 13.61 0 24.66 11.05 24.66 24.66 0 2.05-.26 4.05-.73 5.96l152.47 152.82a24.49 24.49 0 0113.07-3.75c3.49 0 6.81.72 9.82 2.03l248.13-327.007a24.534 24.534 0 01-2.01-9.745c0-13.606 11.05-24.652 24.66-24.652 13.6 0 24.65 11.046 24.65 24.652 0 .575-.02 1.146-.06 1.712l23.69 16.437a24.527 24.527 0 0114.9-5.018c2.4 0 4.72.344 6.91.983l248.11-290.114z" fill="#ffafa4"/><path fill="#fff1e2" d="M532.273 363.212h783.403V954.99H532.273z"/><path d="M689.458 463.218h-53.305V897.35h53.305V463.218zm105.766-38.75H741.92V897.12h53.304V424.468zm105.768 99.19h-53.304V896.87h53.304V523.66zm105.77-61.573h-53.308v434.513h53.308V462.085zm105.77 120.728h-53.305v313.489h53.305v-313.49zm105.757 87.623h-53.305V895.98h53.305V670.436z" fill="#ffafa4" fill-opacity=".64"/><path d="M1428.272 1572.87h-106.5v-141.652h-72.892l126.142-182.921 126.142 182.92h-72.892v141.653z" fill="#e5734e"/><path d="M2005.489 390.739h106.5V532.39h72.892l-126.142 182.92-126.141-182.92h72.89V390.739z" fill="#ffb000"/><circle cx="1586.16" cy="1000.86" r="135.295" fill="#ffcd80" transform="matrix(1.31196 0 0 1.3345 -340.631 -287.142)"/><path d="M1698.904 925.33l-6.53 2.368-3.23-9.218 11.39-4.131c2.698-.979 5.598.296 6.49 2.84l5.464 15.59c10.119-3.192 20.217-5.144 30.277-5.863 12.854-.92 25.664.172 38.415 3.274a4.767 4.767 0 013.226 2.582c.6 1.292.584 2.796-.065 4.13l-14.373 29.567c-1.086 2.225-3.642 3.441-6.059 2.875-12.528-2.927-25.36-2.825-38.5.298l18.21 51.95c50.343-7.624 80.416 5.501 90.962 37.642 5.802 17.432 4.02 34.263-5.288 50.415-8.37 15.135-22.134 27.92-41.407 38.228l9.39 26.787c.89 2.541-.565 5.389-3.262 6.367l-11.183 4.056-3.227-9.208 6.32-2.293-9.186-26.206c-.818-2.334.333-4.96 2.687-6.125 19.178-9.53 32.848-21.449 40.908-36.005 7.891-13.696 9.36-27.904 4.457-42.643-9.49-28.916-37.778-38.504-84.047-30.614-2.442.408-4.764-.892-5.537-3.098L1713.9 968.11c-.446-1.27-.31-2.685.36-3.916a5.38 5.38 0 013.205-2.55c15.393-4.573 30.42-5.494 45.063-2.779l9.902-20.364c-9.758-1.855-19.543-2.447-29.37-1.735-10.736.763-21.49 3.064-32.299 6.885-2.678.949-5.55-.33-6.437-2.86l-5.42-15.462zm75.916 185.271c6.365-4.595 10.538-9.328 12.29-14.348 1.061-3.215 1.491-6.557 1.292-10.015l10.257-.956a37.025 37.025 0 01-1.813 13.645c-2.875 8.225-10.146 16.19-22.225 23.512-1.333.806-2.95 1.015-4.404.554-1.44-.465-2.568-1.544-3.055-2.932l-11.42-32.579 9.736-3.53 9.342 26.649zm-98.967-111.02c.247-4.785 1.26-9.06 2.981-12.825.041-.093.095-.19.136-.283 4.136-7.771 10.244-13.605 18.298-17.492 1.32-.634 2.85-.712 4.183-.218 1.337.503 2.362 1.54 2.817 2.84l9.352 26.68-9.735 3.53-7.374-21.035c-3.476 2.57-6.262 5.812-8.37 9.73-1.212 2.703-1.87 5.772-2.049 9.2.002.089-.01.182-.021.275-.39 3.626.248 7.624 1.778 11.987l-9.736 3.53c-2.026-5.78-2.743-11.093-2.26-15.919z" fill="#fda31f"/><path d="M1692.142 1032.18c-6.612-3.44-11.326-8.968-14.029-16.68l9.736-3.53c1.853 5.288 4.984 9.148 9.524 11.498l.162.085c3.63 2.058 8.616 2.914 14.949 2.793l-8.6-24.532 9.736-3.531 10.781 30.756c.5 1.428.27 3.033-.622 4.344a5.467 5.467 0 01-3.926 2.334c-12.274 1.277-21.482-.057-27.71-3.537zM1757.749 1061.901l7.73 22.05-9.736 3.531-9.69-27.644c-.473-1.35-.296-2.856.478-4.125a5.455 5.455 0 013.57-2.472c14.329-2.832 24.853-1.975 31.644 1.81l.153.1c6.762 4.12 11.508 9.991 14.194 17.653 1.501 4.284 2.345 8.452 2.567 12.478l-10.257.956c-.167-3.202-.855-6.505-2.046-9.903-1.93-5.505-5.296-9.745-10.13-12.721-4.257-2.341-10.423-2.791-18.477-1.713z" fill="#fda31f"/><path d="M1726.772 1067.108c-48.562 6.878-77.317-6.092-87.048-37.163-6.095-18.647-4.898-35.387 3.256-50.222 7.463-13.574 20.908-25.632 40.558-35.955l-5.617-16.023c-.892-2.545.561-5.399 3.246-6.373l7.976-2.892 3.231 9.218-3.102 1.125 5.42 15.462c.822 2.343-.338 4.984-2.708 6.144-19.483 9.585-32.895 20.688-39.99 33.596-6.905 12.571-7.629 26.765-2.448 42.635 8.713 27.833 35.72 37.241 80.162 30.092 2.42-.389 4.725.906 5.491 3.093l22.332 63.709c.456 1.3.3 2.743-.395 3.984-.71 1.245-1.917 2.16-3.327 2.538-12.565 3.336-23.792 4.5-33.642 3.554-8.533-.457-16.55-1.956-24.068-4.503l-13.437 21.635c11.125 2.781 22.896 4.262 35.278 4.467 14.403.104 28.644-2.308 42.743-7.221 2.685-.93 5.54.344 6.424 2.865l9.186 26.206 3.31-1.2 3.228 9.208-8.184 2.968c-2.685.974-5.583-.295-6.474-2.836l-9.237-26.354c-13.723 4.266-27.57 6.336-41.577 6.232-15.704-.255-30.412-2.446-44.174-6.546-1.444-.431-2.594-1.49-3.107-2.87-.526-1.374-.353-2.935.454-4.238l19.148-30.821c1.349-2.188 4.162-3.13 6.523-2.177 7.71 3.097 16.087 4.866 25.096 5.34l.24.012c7.301.716 15.448.07 24.44-1.893l-19.207-54.796z" fill="#fda31f"/><g><path d="M1777.788 1251.67a199.076 199.076 0 01-40.842 4.217c-11.597 0-20.991-9.569-20.991-21.352 0-11.784 9.394-21.352 20.991-21.352 88.15 0 159.718-72.797 159.718-162.462 0-89.668-71.567-162.465-159.718-162.465-11.597 0-20.991-9.567-20.991-21.352 0-11.784 9.394-21.352 20.991-21.352 111.32 0 201.701 91.932 201.701 205.169 0 83.926-49.658 156.15-120.687 187.91l131.59 315.743c4.526 10.85-.46 23.394-11.126 27.985-10.666 4.604-22.999-.467-27.525-11.317l-133.111-319.372z" fill="#dc5d3c"/><path d="M1736.941 1213.178c-88.15 0-159.718-72.797-159.718-162.462 0-89.662 71.568-162.459 159.718-162.459 11.585 0 20.992-9.568 20.992-21.352 0-11.785-9.407-21.352-20.992-21.352-111.32 0-201.7 91.931-201.7 205.163 0 113.233 90.38 205.166 201.7 205.166 11.585 0 20.992-9.568 20.992-21.352 0-11.783-9.407-21.352-20.992-21.352z" fill="#dc5d3c"/></g><g><path d="M2019.582 1321.237s-11.296-43.158-7.557-98.179c5.274-77.388 53.96-144.727 125.017-172.911 71.042-28.178 151.702-12.14 207.08 41.183a198.239 198.239 0 0134.268 43.998c48.227 84.073 63.866 176.754 23.248 268.328 0 0 26.173 174.86-11.532 300.903-19.024 63.309-72.998 109.215-137.612 117.062-2.178.294-4.369.547-6.586.814-59.012 7.167-116.896-20.337-149.38-70.955l-160.531-250.165-76.317 6.752c-7.61.694-14.418-4.764-15.533-12.45-.617-4.605.8-9.676 7.268-13.973 0 0-6.835-.053-12.188-1.374-8.45-2.069-11.834-9.422-12.201-17.296-.342-7.406 1.81-15.96 11.715-20.978-12.476 2.389-24.573-5.712-27.328-18.31a50.899 50.899 0 01-.315-1.44 19.904 19.904 0 011.798-13.506c2.046-3.936 5.576-8.247 11.61-10.85l-12.227-3.856c-9.17-2.896-15.429-11.517-15.429-21.285v-.013c0-8.661 5.143-16.482 13.028-19.791 17.121-7.22 45.092-18.99 45.092-18.99s-36.026-46.734-21.044-60.466c2.664-2.442 8.607-3.857 26.082 11.276 6.6 5.712 32.222 13.012 64.64 8.488 0 0 42.416-.267 94.934 27.984zm38.991-502.887c55.116 0 99.867 45.518 99.867 101.586 0 56.066-44.751 101.586-99.867 101.586-55.128 0-99.88-45.52-99.88-101.586 0-56.068 44.752-101.586 99.88-101.586z" fill="#a8cfcc"/><path d="M1932.612 1501.622l21.884-2.51c2.873-.333 5.47 1.776 5.798 4.711.328 2.923-1.744 5.565-4.63 5.899l-13.304 1.521-6.363-9.928-3.385.307zm-102.91-28.479l63.223-5.938c2.887-.28 5.445 1.881 5.707 4.817.276 2.936-1.85 5.538-4.736 5.805l-42.783 4.017c.092-.066.197-.133.302-.2 0 0-6.835-.053-12.188-1.374-4.527-1.108-7.596-3.724-9.525-7.127zm-11.335-37.125a5.65 5.65 0 011.574-.628l58.566-12.838c2.82-.627 5.615 1.215 6.232 4.097.603 2.87-1.194 5.712-4.028 6.34l-42.626 9.354c.21-.12.433-.24.656-.347-7.609 1.455-15.074-.987-20.374-5.978zm-10.588-43.986l62.476-19.577c2.768-.867 5.707.708 6.56 3.523.852 2.816-.71 5.805-3.477 6.673l-49.343 15.467c.17-.08.341-.16.512-.227l-12.228-3.857a22.083 22.083 0 01-4.5-2.002zm40.855-66.978l21.857-9.195c2.676-1.134 5.746.16 6.861 2.883 1.102 2.735-.17 5.858-2.847 6.98l-19.548 8.22c-.17-.227-2.82-3.684-6.323-8.888z" fill="#82b5b2"/><path d="M1806.31 1206.06c-1.63-6.82-7.88-36.05-5.39-72.06 4.02-57.99 41.13-108.45 95.29-129.57 54.15-21.115 115.63-9.097 157.84 30.86 9.75 9.27 18.64 20.16 26.12 32.97 36.76 63 48.68 132.45 17.72 201.07 0 0 19.95 131.03-8.79 225.48-14.5 47.44-55.64 81.84-104.89 87.72-1.66.22-3.33.41-5.02.61-44.98 5.37-89.1-15.24-113.86-53.17l-33.01-50.57 112.23-131.16c-58.67-91.33-122.57-132.89-138.24-142.18z" fill="url(#_Linear1)" transform="matrix(1.31196 0 0 1.3345 -350.71 -290.265)"/><path d="M2199.898 1508.08c.262.254.511.561.721.881l95.104 146.021c1.6 2.47.945 5.779-1.47 7.407-2.413 1.628-5.667.947-7.267-1.508l-93.53-143.592 7.006-8.328-.564-.88zm202.658-97.672l.236 1.895-.288.614s-21.005-118.944-51.14-209.876c-.722-1.882.118-4.004 1.902-4.858 1.784-.868 3.923-.174 4.907 1.575 16.045 31.694 38.046 79.135 62.436 142.978-.355 1.895-.722 3.79-1.115 5.672l-.014.066-.183.881-.013.08-.197.894-.013.054a205.286 205.286 0 01-1.273 5.631l-.013.067-.21.854-.026.133-.197.828-.052.16-.197.814-.04.147-.21.84-.013.054c-.314 1.228-.642 2.455-.97 3.697l-.027.08-.21.787-.065.227-.197.72-.079.28-.197.708-.078.294-.197.694-.079.293-.21.707-.065.24-.223.748c-.092.32-.184.64-.289.96l-.25.828-.039.134-.196.667-.105.347-.197.614-.118.4-.184.587-.131.427-.184.574-.144.44-.184.574-.144.44-.184.561-.144.454-.184.56-.183.534-.132.427-.17.48-.17.521-.171.507-.184.52-.17.494-.184.52-.17.495-.184.533-.17.48-.198.548-.17.467-.197.574-.157.44-.25.668-.131.347-.367 1-.132.334-.249.68-.157.414-.223.6-.17.441-.224.587-.17.44-.223.588-.171.44-.236.6-.17.415-.263.654-.144.36-.342.84-.065.174-.42 1.014-.118.307-.302.707-.157.4-.263.628-.17.414-.263.6-.17.427-.262.614-.184.414-.263.627-.17.387-.302.694-.144.32-.446 1.028.078.534.014.173.078.494.027.24.105.707.039.267.118.948.04.28.17 1.201.026.24.197 1.522.026.146zm-333.75-54.847s-4.998-39.302-11.728-154.802c-.158-2.576 1.587-3.377 2.545-3.59 1.705-.387 3.004.734 3.162 1.721l28.141 176.288a547.766 547.766 0 00-22.12-19.617z" fill="#28625e"/><path d="M1980.774 856.264c18.315-23.115 46.365-37.914 77.8-37.914 55.115 0 99.866 45.518 99.866 101.586 0 31.722-14.327 60.068-36.748 78.7l-34.859-35.218c3.713-.27 7.544-1.27 11.257-3.067 13.132-6.36 16.504-23.083 11.453-33.878-5.064-10.793-19.824-14.394-32.943-8.033-8.515 4.126-11.1 14.232-12.7 21.805l-83.126-83.981z"/></g><g><circle cx="1586.16" cy="1000.86" r="135.295" fill="#a8cfcc" transform="matrix(1.31196 0 0 1.3345 -979.887 -379.303)"/><path d="M928.093 915.793c1.284-.584 2.852-.923 4.748-.583 3.736.67 6.392 3.925 6.5 7.638 1.243 2.242 4.596 8.101 8.595 13.625 9.442 13.047 25.37 31.789 47.425 50.916 10.102-43.963 29.44-80.622 50.825-110.015-31.579-24.784-48.949-47.613-52.478-51.973-2.768-3.411-2.283-8.46 1.063-11.273a7.791 7.791 0 0111.086 1.085c3.371 4.157 19.915 25.891 50.012 49.482 41.011-51.159 85.434-76.628 85.434-76.628 3.779-2.17 8.58-.807 10.72 3.043 2.138 3.848.8 8.737-2.992 10.907 0 0-41.786 23.965-80.528 72.09 30.004 21.22 70.806 42.278 122.681 52.055 5.576-38.495 3.542-74.26-.38-100.768-.643-4.37 2.322-8.451 6.612-9.11 4.303-.658 8.318 2.355 8.96 6.726 4.12 27.84 6.18 65.31.329 105.685 20.19 2.792 41.943 3.856 65.256 2.608a7.741 7.741 0 015.143 1.596 192.37 192.37 0 011.129 11.758 7.8 7.8 0 01-5.445 2.637c-24.56 1.315-47.48.182-68.773-2.785-7.622 39.057-23.104 79.945-51.52 116.861 28.574 4.217 59.825 4.47 93.647-1a181.487 181.487 0 01-14.379 18.122c-32.838 3.656-63.236 2.202-91.116-2.83-19.062 21.38-42.98 41.063-72.84 57.811-.105.067-.223.12-.34.174a174.91 174.91 0 01-9.578-2.149 7.224 7.224 0 01-.774-1.174c-2.1-3.87-.709-8.741 3.096-10.877 24.914-13.985 45.446-30.133 62.292-47.641-46.732-11.424-85.684-32.687-116.345-55.483-3.437 25.93-3.424 54.228 1.404 84.895a8.102 8.102 0 01-2.348 7.06 177.267 177.267 0 01-14.051-10.21c-4.723-33.749-3.936-64.737.708-92.94-37.212-30.718-59.57-61.759-65.852-73.454-.222-.412-.427-.81-.617-1.194a182.691 182.691 0 012.69-14.687zm130.701-28.992c-21.45 29.53-40.736 66.807-49.723 111.866 31.828 24.82 73.955 48.544 125.62 59.5 30.018-36.274 46.063-77.157 53.79-116.195-54.944-10.302-98.082-32.688-129.687-55.17zm-126.02 44.191a7.607 7.607 0 01-2.266.05c.821.107 1.575.08 2.266-.05z" fill="#82b5b2"/></g><g><path d="M644.761 1189.69s-198.831-157.32-60.719-343.655c14.7-19.831 103.9-135.423 230.656-213.771a13.298 13.298 0 0115.72 1.257c2.805 2.494 4.629 6.302 2.82 12.149 0 0 19.617-4.276 18.265 14.57 0 0 22.971-6.16 23.769 17.503l54.522-66.811a13.799 13.799 0 0117.798-3.103 11.723 11.723 0 014.003 16.1c-70.596 116.92-145.64 224.189-220.909 330.971 0 0 62.089 62.81 94.084 85.42 12.992 9.17 142.819 90.29 161.593 134.71l3.387-21.77c3.124-20.1 17.94-36.38 37.64-41.4 13.36-3.4 25.76-6.56 25.76-6.56s22.16-3.78 41.03-3.63c12.36.09 23.28 8.04 27.18 19.76a18.78 18.78 0 01-2.06 16.12c-1.75 2.71-3.3 5.09-3.3 5.09l8.58 2.91c4.4 1.49 7.95 4.78 9.78 9.05a23.524 23.524 0 01-3.94 24.76c-1.86 2.13-3.24 3.7-3.24 3.7h1.35c7.04 0 13.37 4.28 16 10.82 3.61 8.98.69 19.26-7.09 25.01-1.93 1.42-3.27 2.42-3.27 2.42 2.44-.83 4.72.85 6.32 4.7 3.17 7.61.26 16.4-6.64 20.91l-24.96 16.31c-3.19 65.63-11.12 136.42-48.37 220.79a91.706 91.706 0 01-60.15 51.45c-.02.02-.04.02-.06.03-56.1 15-114.892-12.31-139.609-64.85-11.866-25.25-24.539-56.37-35.931-93.02 0 0-47.16 6.16-94.084-17.6-56.371-28.54-112.401-93.24-85.925-170.34z" fill="url(#_Linear2)" transform="matrix(1.31196 0 0 1.3345 -350.71 -290.265)"/><path d="M383.952 1154.358c7.77-24.261 34.888-78.749 121.004-73.624 0 0 30.543-90.592 127.12-72.365 27.393 27.17 71.798 69.922 99.28 89.673 17.044 12.237 187.372 120.492 212.003 179.77l.284-1.854c15.896 47.454 44.765 149.303 30.254 259.52 0 0-57.183 38.9-112.8-9.969 0 0-52.651 71.049-128.796 25.743-.317-1.028-.632-2.042-.946-3.07 0 0-61.872 8.22-123.434-23.487-73.957-38.087-147.466-124.429-112.73-227.319 0 0-68.864-55.421-111.239-143.018zm362.028-79.937l22.408 14.186a102.487 102.487 0 01-22.408-14.186z" fill="#fd9500"/><path d="M966.065 1509.842l-12.713 146.048c-.256 2.936 1.88 5.538 4.765 5.791 2.885.267 5.429-1.908 5.691-4.844l12.7-146.047c.262-2.936-1.876-5.539-4.762-5.792-2.887-.267-5.432 1.908-5.681 4.844z" fill="#fd9500"/><path d="M693.598 1548.396c-4.472-53.434 7.472-96.885 15.458-119.038a3.429 3.429 0 013.87-2.068c1.61.334 2.767 1.775 2.764 3.443 1.547 43.438 12.79 101.956 16.413 119.878-.25-.814-.5-1.615-.748-2.429 0 0-15.08 2.002-37.757.214zm-234.77-286.01c18.991-23.968 37.765-42.104 55.243-55.836 26.915-21.152 50.755-31.854 67.563-37.326 1.945-.44 3.924.6 4.704 2.456.78 1.868.136 4.03-1.527 5.15-50.853 35.392-79.855 96.685-89.669 120.506-.962-.787-16.146-13.185-36.314-34.95z" fill="#e15d33"/><path d="M1137.38 1339.533c3.176-1.014 6.114 1.241 8.187 6.312.118.28.223.56.328.841-9.695 6.165-30.778 18.336-50.038 21.045-2.873.4-5.523-1.641-5.917-4.55-.407-2.923 1.6-5.619 4.474-6.02 15.953-2.241 33.219-11.623 42.967-17.628zm-9.262-51.004h1.758c4.277 0 8.357 1.227 11.847 3.416-5.786 4.297-28.837 20.631-52.99 26.476-2.82.681-5.641-1.094-6.323-3.963-.67-2.856 1.075-5.738 3.896-6.419 16.491-4.004 32.419-13.292 41.812-19.51zm-14.615-53.914l10.443 3.603c-9.617 12.638-27.656 31.427-52.78 36.552-2.834.587-5.602-1.295-6.18-4.177-.563-2.896 1.273-5.712 4.12-6.286 20.427-4.177 35.515-18.643 44.397-29.692zM1043.287 1199.424s-17.908 4.017-36.787 1.281c-2.874-.414-5.524 1.628-5.944 4.537-.406 2.923 1.6 5.619 4.461 6.032 20.795 3.016 40.526-1.414 40.526-1.414 2.821-.64 4.619-3.497 3.989-6.366-.617-2.882-3.424-4.697-6.245-4.07zM794.712 601.016c1.644 3.344 2.716 7.648 2.9 13.167l7.92-9.873a5.37 5.37 0 01-.547.818l-19.636 24.187a5.19 5.19 0 01-7.388.717c-2.233-1.877-2.549-5.244-.704-7.515l17.455-21.501zm-30.94-23.346c1.953 2.978 3.073 7.194 2.657 13.134l-12.173 14.178a5.189 5.189 0 01-7.405.51c-2.182-1.938-2.406-5.313-.501-7.532l17.421-20.29zM741.19 557.95c2.141 3.204 3.065 7.543 1.274 13.43h.001c-6.57 6.3-14.148 13.611-14.148 13.611a5.188 5.188 0 01-7.42-.2c-1.992-2.138-1.904-5.52.198-7.547 0 0 13.418-12.942 20.095-19.294zM607.92 984.05l-55.145-55.39a4.188 4.188 0 014.571-6.825l72.999 30.215-22.424 31.999z" fill="#fd9500"/><g><path d="M1026.378 1211.956l7.963-59.412a200.195 200.195 0 01-37.22-17.615c-9.958-6.02-13.238-19.137-7.32-29.266 5.93-10.129 18.826-13.452 28.77-7.433 75.766 45.84 173.862 20.471 218.927-56.591 45.053-77.066 20.126-176.844-55.64-222.678-9.958-6.024-13.238-19.138-7.308-29.265 5.917-10.13 18.814-13.463 28.772-7.439 95.681 57.882 127.155 183.886 70.255 281.209-42.18 72.143-121.146 108.402-198.158 98.766l-5.183 38.648c-9.498 4.577-25.242 10.502-43.858 11.076z" fill="#dc5d3c"/><path d="M1018.58 1098.228c-75.764-45.833-100.694-145.612-55.635-222.678 45.057-77.064 143.15-102.422 218.915-56.589 9.957 6.023 22.85 2.69 28.772-7.437 5.922-10.13 2.645-23.243-7.312-29.266-95.678-57.88-219.557-25.858-276.459 71.464-56.902 97.322-25.419 223.33 70.26 281.21 9.956 6.022 22.85 2.69 28.771-7.438 5.922-10.128 2.645-23.243-7.312-29.266z" fill="#dc5d3c"/></g><g transform="matrix(1.31196 0 0 1.3345 -350.71 -290.265)"><circle cx="885.597" cy="961.656" r="78.659" fill="#fb2"/><path d="M858.246 992.726c-14.189 2.447-29.289 2.794-44.951-.061-4.09-9.515-6.357-19.999-6.357-31.009 0-43.413 35.246-78.659 78.659-78.659 34.605 0 64.021 22.394 74.531 53.463-3.296 14.791-28.047 44.333-78.891 50.355 1.645-4.207 1.779-9.319.009-14.29-3.474-9.756-12.974-15.299-21.201-12.37-8.227 2.929-12.086 13.229-8.612 22.985 1.425 4.002 3.864 7.296 6.813 9.586z"/><circle cx="897.184" cy="975.4" r="74.928" transform="matrix(.71595 0 0 .71595 270.378 125.494)"/></g></g><g><path d="M1593.246 581.868c-37.981 73.201-113.59 123.122-200.573 123.122-125.134 0-226.746-103.349-226.746-230.646 0-77.464 37.627-146.059 95.327-187.84l131.42 187.84 200.572 107.524z" fill="#e5734e"/><path d="M1392.675 474.343l-131.42-187.838c32.905-23.93 72.382-39.079 115.125-42.148l16.295 229.986z" fill="#fb2"/><path d="M1382.284 243.965l10.39-.267c63.75 0 121.397 26.817 162.579 70.002l-162.578 160.643-16.295-229.986 3.07-.239 2.834-.153z" fill="#a8cfcc"/><path d="M1616.535 300.188c39.726 41.503 64.18 98.191 64.18 160.643 0 38.826-9.458 75.425-26.186 107.525l-200.572-107.525 162.578-160.643z" fill="#ffcbc4"/></g><defs><linearGradient id="_Linear1" x1="0" y1="0" x2="1" y2="0" gradientUnits="userSpaceOnUse" gradientTransform="matrix(432.261 333.876 -339.612 424.961 1800.34 1289.08)"><stop offset="0" stop-color="#82b5b2"/><stop offset=".57" stop-color="#9ac1bb"/><stop offset=".8" stop-color="#ced9cf"/><stop offset="1" stop-color="#fff1e2"/></linearGradient><linearGradient id="_Linear2" x1="0" y1="0" x2="1" y2="0" gradientUnits="userSpaceOnUse" gradientTransform="matrix(-388.509 97.5106 -99.1858 -381.947 852.592 1342.73)"><stop offset="0" stop-color="#fb2"/><stop offset=".47" stop-color="#feb019"/><stop offset="1" stop-color="#fd9500"/></linearGradient></defs></svg>