<svg viewBox="0 0 2732 2048" xmlns="http://www.w3.org/2000/svg" fill-rule="evenodd" clip-rule="evenodd" stroke-linejoin="round" stroke-miterlimit="2"><path d="M1165.635 1222.021c0-25.03-20.328-45.35-45.354-45.35H472.387c-25.033 0-45.357 20.32-45.357 45.35v359.54c0 25.03 20.324 45.35 45.357 45.35h647.894c25.026 0 45.354-20.32 45.354-45.35v-359.54z" fill="#8abbb8"/><path d="M555.168 1539.201h-76.223v53.89h76.223v-53.89zm275.908-100.7H478.769v76.46h352.307v-76.46zm280.41 0H930.65v76.46h180.836v-76.46z" fill="#fff"/><path d="M427.031 1302.221h738.604v105.783H427.031zM543.078 1485.881c-.295-4.85.251-10.21 1.331-15.21 1.672-7.73 4.691-14.55 7.505-17.57 2.435-2.61 5.098-3.15 7.317-2.4 3.174 1.07 5.05 3.91 5.396 7.95.497 5.79-2.468 14.57-3.565 17.08-2.543 5.8-5.771 10.14-9.487 13.56.53 2.51 1.435 4.66 3.132 5.94 1.8 1.36 4.379 1.47 7.888.45 1.86-.54 5.686-2.94 9.399-5.9-.625-3.74.035-7.73 1.501-10.7 2.259-4.57 6.261-6.59 9.979-5.34 2.523.85 3.895 2.31 4.604 3.89.926 2.07.745 4.83-.99 7.81-1.163 2-3.103 4.25-5.396 6.45 1.144.92 2.827 1.37 5.094 1.33 2.81-.05 7.071-2.21 11.752-4.69 8.327-4.4 17.611-10.08 23.048-11.55 4.716-1.28 7.734.27 8.984 2.94.976 2.08 1.888 3.59 2.83 4.59.454.49.846.83 1.301.92.609.11 1.198-.18 1.841-.48.83-.4 1.677-.93 2.561-1.52 6.133-4.07 13.537-9.76 23.651-6.32 4.177 1.42 5.316 5.28 4.58 10.05-.209 1.36-.542 2.79-.748 4.11-.031.21-.057.46-.074.7.49-.03 1.03-.12 1.605-.23 1.551-.28 3.262-.77 4.991-1.31 4.103-1.26 8.298-2.67 11.168-2.85 30.439-1.98 61.082-1.47 91.486-4.07a4.004 4.004 0 014.326 3.65 3.996 3.996 0 01-3.644 4.32c-30.459 2.61-61.156 2.1-91.65 4.08-2.965.19-7.532 2.06-11.684 3.21-3.756 1.05-7.271 1.49-9.675.87-4.252-1.11-5.524-4.86-4.72-9.81.187-1.15.46-2.37.658-3.55.089-.53.132-1.3.15-1.8-3.674-1.03-6.753-.05-9.459 1.39-2.389 1.28-4.534 2.9-6.538 4.23-3.637 2.41-7.072 3.79-10.299 3.19-2.923-.55-6.183-2.73-9.232-8.62-.528.12-1.22.3-1.787.51-1.891.71-4.117 1.81-6.521 3.08-7.941 4.2-17.641 10.14-24.17 12.13-1.713.53-3.261.8-4.579.83-5.366.1-9.006-1.64-11.4-4.13-4.3 3.22-8.584 5.66-10.717 6.27-6.674 1.94-11.504.84-14.927-1.74-2.286-1.72-4-4.21-5.142-7.25a56.117 56.117 0 01-3.484 1.95c-7.35 3.78-15.665 6.16-23.78 10.24a4 4 0 01-3.59-7.15c6.55-3.29 13.227-5.49 19.434-8.19 3.445-1.5 6.74-3.16 9.746-5.34zm13.612-25.86c-1.111 1.79-2.157 4.26-3.057 7.07a58.297 58.297 0 00-2.205 9.84 34.907 34.907 0 002.308-4.42c.746-1.7 2.648-7.05 2.924-11.43.023-.36.034-.72.03-1.06z"/><path fill="#e4e4e6" d="M1354.21 1027.951h1103.63v598.27H1354.21z"/><path d="M2111.68 1559.117c4.077-14.91 10.599-29.856 19.643-42.366 1.807-2.497 4.853-7.342 8.354-10.537 3.265-2.977 6.975-4.513 10.563-3.719 4.138.908 6.268 3.938 6.713 8.233.655 6.372-3.37 16.342-4.932 19.153-7.647 13.828-20.114 25.08-33.357 34.168-.576 2.444-.96 4.993-.785 7.35.227 3.012 1.554 5.631 5.246 6.661 7.552 2.095 15.932-.078 23.946-4.103 3.073-1.545 6.085-3.36 8.974-5.36.07-1.248.192-2.4.315-3.326 1.658-13.234 9.157-25.657 18.166-35.233 1.414-1.502 6.085-6.836 9.908-8.424 3.274-1.362 6.216-.89 8.364 1.85 1.99 2.54 2.461 6.137 1.519 10.162-1.58 6.765-7.22 15.094-9.568 18.332-4.697 6.469-12.056 14.142-20.611 20.637.07.42.174.821.323 1.179.087.21.14.436.349.515 3.632 1.37 7.551-.148 11.392-2.418 7.202-4.252 13.95-11.55 18.176-15.452 1.833-1.693 4.853-4.854 8.031-6.765 3.073-1.851 6.32-2.54 9.21-1.52 3.544 1.258 4.862 3.702 4.871 6.888 0 1.851-.663 4.165-1.641 6.609-.873 2.174-2 4.504-2.645 6.678-.21.698-.375 1.362-.402 1.99-.026.437.14.786.646.987 2.253.89 4.208.297 6.015-.9 2.61-1.736 4.959-4.539 7.298-7.367 3.405-4.112 6.792-8.285 10.424-10.642 3.195-2.069 6.582-2.915 10.283-1.999 5.3 1.318 6.286 5.718 4.889 11.54-.437 1.86-1.091 3.894-1.397 5.797-.174 1.135-.576 2.305.559 2.811 1.755.777 3.413.41 5.037-.314 1.545-.69 3.064-1.71 4.574-2.776 2.785-1.955 5.552-4.085 8.372-5.456 2.366-1.152 4.784-1.816 7.255-1.737 2.103.07 3.483.733 4.443 1.528 1.179.977 1.868 2.27 2.139 3.832.148.82.157 1.755.087 2.732-.035.515-.07 1.318-.096 1.895 8.171 1.065 17.303-1.493 25.465-2.034 13.906-.934 27.953-.114 41.798-1.362a3.99 3.99 0 014.339 3.623 4.003 4.003 0 01-3.623 4.347c-13.907 1.257-28.014.437-41.982 1.37-8.878.594-18.856 3.222-27.69 1.895-2.026-.297-3.361-1.082-4.295-2-1.057-1.038-1.668-2.321-1.921-3.788-.175-1.004-.157-2.13-.079-3.256.018-.2.035-.454.053-.707-1.572.262-3.082 1.143-4.61 2.121-2.627 1.685-5.22 3.789-7.865 5.413-4.67 2.872-9.498 4.268-14.649 1.981-3.719-1.65-5.168-4.443-5.403-7.804-.166-2.287.401-4.959 1.082-7.543.314-1.196.646-2.365.856-3.448.052-.288.096-.68.113-1.004-1.693-.166-3.177.777-4.653 2-2.531 2.094-4.897 5.141-7.342 8.083-2.872 3.475-5.84 6.81-9.044 8.94-4.007 2.653-8.38 3.64-13.356 1.675-4.487-1.763-5.893-4.932-5.718-8.764.113-2.532 1.187-5.535 2.418-8.468.594-1.406 1.213-2.802 1.676-4.103.183-.515.35-1.214.454-1.737-.262.06-.532.192-.803.314-.733.314-1.458.786-2.156 1.3-2.244 1.642-4.27 3.798-5.596 5.029-4.522 4.173-11.82 11.899-19.529 16.456-6.11 3.614-12.51 5.203-18.288 3.011-2.174-.82-3.71-2.392-4.68-4.426a78.529 78.529 0 01-6.634 3.763c-9.917 4.976-20.35 7.254-29.681 4.662-8.564-2.384-11.227-8.887-11.096-16.054-.89.54-1.772 1.065-2.654 1.588-5.744 3.388-11.995 7.63-18.428 9.638.052-.017.218-.078.218-.078s-1.022.349-1.493.392a4.157 4.157 0 01-1.79-.183 4.027 4.027 0 01-2.042-1.51 3.998 3.998 0 01.951-5.57 4.048 4.048 0 011.842-.716c5.84-1.833 11.454-5.787 16.674-8.86a191.428 191.428 0 008.512-5.3zm-21.632 15.582l.053.07-.01-.017-.043-.053zm-.148-.166l.06.062-.017-.018-.043-.044zm-.149-.148l.062.052-.027-.026-.035-.026zm-.148-.14l.026.027-.017-.018-.009-.009zm97.197-44.74c-.76.498-1.816 1.222-2.47 1.834-1.781 1.658-3.3 3.465-3.972 4.181-6.766 7.193-12.667 16.15-15.138 25.866 5.325-4.722 9.865-9.733 13.051-14.124 1.737-2.401 5.631-7.97 7.56-13.182.524-1.44.917-2.837.96-4.095.01-.165.018-.323.01-.48zm-64.312 21.833c9.018-7.15 17.11-15.512 22.532-25.325 1.047-1.877 3.596-7.83 3.972-12.623.06-.76.06-1.475-.035-2.121-.061-.42-.026-.873-.437-.96-.524-.123-1.021.113-1.519.384-.663.358-1.3.864-1.929 1.431-3.073 2.811-5.674 7.124-7.263 9.315-6.495 8.974-11.576 19.293-15.321 29.9z"/><path d="M1970.304 1436.491v-9.524c0-3.641 2.69-6.6 6-6.6s6 2.959 6 6.6v15.376c0 3.64-2.69 6.6-6 6.6h-.01c-.83.483-1.78.747-2.79.747h-521.38a5.61 5.61 0 01-2.9-.814c-3.3-.022-5.97-2.97-5.97-6.6v-15.31c0-3.64 2.69-6.599 6-6.599s6 2.959 6 6.6v9.524h515.05zm207.06-142.95v-12.397c0-3.64 2.69-6.599 6-6.599s6 2.959 6 6.6v15.376c0 1.43-.41 2.75-1.11 3.827-.11 3.542-2.75 6.39-6 6.39H1449.254c-3.31 0-6-2.958-6-6.599v-15.31c0-3.64 2.69-6.6 6-6.6s6 2.96 6 6.6v8.711h722.11zm-731.58-125.453l.43-15.366c.11-3.64 2.88-6.5 6.19-6.39 3.31.121 5.91 3.168 5.81 6.797l-.24 8.58h720.81v-8.778c0-3.64 2.69-6.599 6-6.599s6 2.959 6 6.6v15.376c0 3.64-2.69 6.599-6 6.599H1451.674a5.508 5.508 0 01-1.71-.308 5.939 5.939 0 01-2.45-1.65l-.03-.033-.03-.033-.02-.022a6.858 6.858 0 01-1.43-2.75 7.26 7.26 0 01-.22-1.88v-.044-.1zM2348.754 1456.087v-35.73c0-3.31 2.69-6 6-6s6 2.69 6 6v41.73c0 3.32-2.68 6-6 6h-297.4c-3.32 0-6-2.68-6-6v-41.73c0-3.31 2.69-6 6-6s6 2.69 6 6v35.73h285.4z" fill="#fff"/><path d="M2063.354 1377.367v42.99c0 3.31-2.69 6-6 6s-6-2.69-6-6v-48.99c0-3.31 2.68-6 6-6h297.4c3.32 0 6 2.69 6 6v48.99c0 3.31-2.69 6-6 6s-6-2.69-6-6v-42.99h-285.4zM2084.914 1443.317h30.55c3.31 0 6-2.69 6-6s-2.69-6-6-6h-30.55c-3.31 0-6 2.69-6 6s2.69 6 6 6zm105.87 0h30.54c3.31 0 6-2.69 6-6s-2.69-6-6-6h-30.54c-3.31 0-6 2.69-6 6s2.69 6 6 6zm-52.94 0h30.55c3.31 0 6-2.69 6-6s-2.69-6-6-6h-30.55c-3.31 0-6 2.69-6 6s2.69 6 6 6zm105.87 0h30.55c3.31 0 6-2.69 6-6s-2.69-6-6-6h-30.55c-3.31 0-6 2.69-6 6s2.69 6 6 6zm52.94 0h30.54c3.31 0 6-2.69 6-6s-2.69-6-6-6h-30.54c-3.31 0-6 2.69-6 6s2.69 6 6 6z" fill="#fff"/><g transform="translate(13.265 -11.269)"><circle cx="2305.98" cy="1165.12" r="84.089" fill="#fff"/></g><path d="M2316.454 1108.817l.57-39.02a84.935 84.935 0 018 .17l-.57 38.95c7.16-.09 14.62-.68 22.29-1.93-5.04-14.56-11.21-27.1-16.48-36.5 3.45.45 6.85 1.11 10.16 1.97 4.8 9.13 9.95 20.36 14.26 33.01 8.62-1.91 17.47-4.68 26.43-8.54 1.88 2.04 3.66 4.18 5.33 6.4-9.93 4.45-19.75 7.63-29.32 9.78.59 1.98 1.15 3.98 1.68 6.02 2.91 11.01 4.97 22.8 5.57 35.01l38.95 1.16c-.04 2.7-.22 5.36-.51 7.99l-38.27-1.14c-.08 13.59-2.09 27.59-6.87 41.55 7.33 2.07 14.78 4.8 22.3 8.31-2 2.08-4.1 4.06-6.3 5.93-6.35-2.8-12.64-5.01-18.85-6.74-3.31 7.96-7.58 15.88-12.95 23.66a82.765 82.765 0 01-11.74 2.39c7.23-9.16 12.72-18.54 16.77-28-8.2-1.76-16.2-2.7-23.9-3.01l-.47 31.64c-1.09.04-2.19.07-3.29.07-1.58 0-3.15-.05-4.71-.13l.47-31.68c-9.6.14-18.64 1.2-26.91 2.78 4.4 9.06 10.12 18.37 17.4 27.9-4.11-.67-8.11-1.65-11.99-2.9-5.45-7.91-9.89-15.67-13.45-23.25-6.48 1.57-12.36 3.41-17.5 5.27-2.15-1.97-4.2-4.04-6.13-6.22 5.83-2.23 12.7-4.51 20.42-6.44-5.75-14.31-8.41-27.93-8.91-40.67-.04-1.12-.07-2.23-.08-3.33l-32.58-.97c-.07-1.47-.11-2.96-.11-4.45 0-1.19.02-2.37.07-3.55l32.83.97c.91-14.94 4.71-28.5 9.77-40.36-10.44-2.78-18.97-6.04-24.97-8.65 1.71-2.21 3.54-4.32 5.46-6.35 5.78 2.41 13.57 5.25 22.9 7.66 6.77-13.59 14.93-24.52 21.55-32.2 3.98-.79 8.06-1.3 12.22-1.51-6.34 6.42-17.16 18.73-25.82 35.57 8.24 1.71 17.42 3 27.28 3.38zm40.06 53.09l-32.84-.97-.55 37.32c8.59.33 17.53 1.4 26.7 3.45 4.66-13.37 6.62-26.79 6.69-39.8zm-80.65-2.39c.01.92.03 1.85.07 2.78.47 12.28 3.13 25.39 8.82 39.18 9.25-1.88 19.47-3.16 30.37-3.31l.56-37.47-39.82-1.18zm73.37-44.85c-8.58 1.47-16.92 2.14-24.9 2.23l-.54 36.04 32.53.96c-.59-11.42-2.54-22.44-5.25-32.74-.58-2.19-1.19-4.36-1.84-6.49zm-63.58-1.85c-4.95 11.31-8.69 24.33-9.59 38.7l39.74 1.18.53-35.92c-11.17-.42-21.5-1.95-30.68-3.96z" fill="#e4e4e6"/><g><path d="M1595.475 1452.54c2.5 49.82 10.48 92.21 23.92 131.33 8.79 25.85 33.06 43.23 60.36 43.23v.03c23 0 43.74-13.84 52.56-35.08 15.27-36.69 28.14-81.75 37.35-139.51h-174.19z" fill="#f27f71"/><path d="M1597.097 1475.98c-.17-1.93-.33-3.87-.49-5.83l45.3.84s10.39 34.65 19.91 65.43c12.7 41.03 24.82 68.29 51.08 80.07-2.5 1.79-5.15 3.38-7.91 4.74-8.43 3.08-18.86 5.9-25.23 5.9v-.03h-.52c-1-.01-1.99-.04-2.98-.09l-.32-.02c-.42-.03-.85-.05-1.27-.09l-.31-.02-.31-.03-.32-.03-.31-.03-.17-.02c-.37-.03-.73-.08-1.1-.12-.2-.02-.4-.05-.6-.07l-.32-.04c-.51-.08-1.03-.15-1.54-.23l-.31-.05-.31-.06-.31-.05c-.1-.02-.2-.03-.31-.05l-.29-.06c-.34-.06-.68-.12-1.02-.19-1.67-.34-3.32-.74-4.94-1.21-.54-.15-1.07-.31-1.61-.48-.7-.22-1.4-.46-2.09-.7-.26-.09-.52-.19-.78-.28l-.58-.22a64.314 64.314 0 01-11.47-5.73l-.51-.33c-.2-.13-.4-.26-.59-.39l-.43-.29-.51-.34-.16-.11c-1.7-1.18-3.34-2.43-4.91-3.77-.55-.46-1.09-.93-1.62-1.41l-.45-.42-.45-.41c-.15-.14-.29-.28-.44-.42l-.37-.36a63.923 63.923 0 01-8.33-9.97c-.26-.4-.52-.79-.78-1.19-.32-.5-.63-1.01-.94-1.52l-.1-.16-.1-.17c-.71-1.19-1.38-2.41-2.02-3.65l-.14-.28-.1-.21c-.85-1.71-1.63-3.46-2.34-5.26l-.11-.3c-.16-.42-.32-.84-.47-1.26-.14-.38-.27-.76-.4-1.14l-.3-.87-.09-.28-.2-.58-.12-.34-.18-.54-.12-.35-.17-.52-.12-.36-.18-.53-.11-.35-.18-.56-.11-.31-.22-.7-.06-.17-.29-.88-.07-.24-.21-.63-.1-.33-.18-.55-.11-.36-.17-.53-.11-.36-.17-.53-.11-.36-.17-.55-.1-.33-.2-.63-.08-.25-.26-.89-.06-.17-.21-.71-.1-.32-.17-.57-.1-.35-.17-.54-.1-.37-.16-.53-.11-.36-.16-.55-.1-.35-.17-.59-.09-.3-.25-.87-.01-.02-.25-.9-.08-.29-.18-.6-.09-.35-.16-.55-.1-.37-.15-.54-.1-.37-.15-.54-.1-.36-.16-.58-.08-.33-.2-.71-.05-.19-.24-.9-.07-.26-.17-.65-.09-.34-.15-.57-.1-.37-.14-.54-.09-.38-.14-.54-.1-.37-.14-.57-.09-.35-.17-.64-.06-.27-.23-.92-.05-.18-.18-.73-.08-.33-.14-.59-.09-.37-.14-.55-.09-.39-.13-.54-.09-.39-.14-.55-.08-.37-.14-.61-.08-.32-.2-.85-.02-.08-.21-.92-.07-.32-.14-.6-.08-.38-.13-.56-.09-.39-.12-.55-.09-.39-.12-.55-.08-.39-.13-.58-.08-.36-.15-.69-.05-.25-.2-.92-.06-.3-.14-.64-.08-.38-.11-.57-.09-.4-.11-.55-.08-.41-.11-.54-.09-.41-.11-.55-.08-.4-.12-.61-.07-.34-.18-.93-.05-.27-.13-.68-.08-.39-.11-.57-.08-.42-.1-.53-.08-.44-.1-.53-.08-.43-.1-.54-.08-.42-.1-.56-.07-.41-.13-.7-.05-.25-.03-.19-.13-.75-.08-.42-.09-.55-.08-.45-.09-.52-.08-.46-.09-.51-.08-.46-.08-.51-.08-.47-.09-.51-.07-.46-.09-.56-.07-.42-.15-.93-.08-.46-.08-.52-.08-.49-.07-.49-.08-.5-.08-.48-.07-.5-.08-.48-.08-.51-.07-.47-.08-.52-.06-.46-.08-.53-.06-.42-.08-.52-.08-.54-.06-.43-.08-.55-.06-.44-.08-.55-.06-.44-.08-.55-.05-.44-.08-.56-.06-.42-.08-.58-.05-.39-.08-.61-.03-.26-.1-.7-.1-.82-.02-.13-.08-.66-.05-.34-.07-.63-.05-.37-.08-.63-.04-.37-.08-.63-.04-.36-.08-.65-.04-.32-.08-.7-.02-.17-.1-.8c-.03-.32-.07-.64-.1-.96l-.1-.82-.01-.16-.09-.74-.02-.27-.08-.72-.03-.28-.08-.72-.03-.28-.08-.74-.02-.23-.08-.79-.01-.08a432.9 432.9 0 01-.37-3.75l-.01-.09-.08-.85-.02-.17-.07-.83-.02-.17-.07-.85-.02-.13z" fill="#ffc2ba"/><path d="M1052.98 1453.742c2.5 49.82 10.48 92.21 23.92 131.33 8.79 25.85 33.06 43.23 60.36 43.23v.03c23 0 43.74-13.84 52.56-35.08 15.27-36.69 28.14-81.75 37.35-139.51h-174.19z" fill="#ffc3bb"/><path d="M1053.34 1460.282c-.13-2.17-.25-4.34-.36-6.54h174.19c-.84 5.24-1.7 10.36-2.59 15.39l-28.47-.47c-5.27 16.89-37.17 118.9-52.84 135.3-12.83 13.42-19.5 17.88-26.12 21.09-18.38-6.11-33.39-20.42-40.04-39.37l-.01-.02-.08-.25-.12-.34a410.74 410.74 0 01-5.61-17.61c-.24-.8-.47-1.6-.7-2.41-.64-2.2-1.25-4.42-1.86-6.66-.12-.47-.25-.94-.38-1.42-.7-2.65-1.39-5.33-2.05-8.03-.56-2.28-1.11-4.58-1.63-6.89-.74-3.21-1.44-6.45-2.11-9.73-.47-2.29-.92-4.61-1.36-6.94-.18-.99-.37-1.98-.55-2.98l-.18-1.02c-.26-1.45-.52-2.91-.76-4.38-.45-2.65-.88-5.33-1.29-8.03l-.16-1.05c-.28-1.82-.54-3.66-.8-5.51l-.11-.82-.03-.24c-.9-6.65-1.69-13.42-2.36-20.34l-.1-1.11-.02-.18a570.183 570.183 0 01-1.5-19.44z" fill="#f27f71"/><path d="M1885.248 987.168c7.42-2.082 13.52-3.969 15.04-4.917 17.84-11.104 32.9-29.436 40.89-50.24 7.72-20.078 9.65-42.359.28-62.069-11.24 16.17-29.07 27.154-45.32 28.437-18.1 1.43-35.5-7.423-44.24-33.033-10.3-30.186 9.76-54.22 39.73-60.242 11.47-2.305 24.6-1.616 37.63 3.041-.8-7.777-2.73-15.387-5.56-22.71-7.46-19.306-20.72-36.725-36.47-50.194-4.03-3.245-4.66-9.149-1.42-13.177 3.24-4.028 9.15-4.664 13.18-1.419 19.23 14.575 35.67 34.043 45.67 55.97 6.65 14.588 10.31 30.273 10.11 46.48 8.32 7.117 16.02 16.42 22.54 28.207 16.33 29.528 16.59 64.001 6.51 95.671-9.91 31.17-30.7 59.105-55.87 76.905-3.15 2.24-15.36 7.8-29.52 13.22 1.72 8.41 3.31 17.17 4.78 26.33 27.4 170.66 26.33 330.09-24.06 490.87-14.29 45.32-56.32 76.15-103.83 76.15l-.01.01c-42.19 0-79.7-26.9-93.22-66.88-16.26-48.05-35.32-104.4-35.32-104.4h-461.89s-23.79 67.29-41.54 117.52c-11.39 32.22-41.85 53.76-76.02 53.76h-.01c-42.531 0-79.453-29.32-89.087-70.75l-23.376-100.53H815.893c-16.129 0-31.254-9.43-36.964-24.51-17.781-46.97-53.187-167.82 3.412-308.87 4.157-10.35 14.914-16.54 26.076-16.54 37.019-.03 118.793-.03 118.793-.03s12.364-188.327 182.908-287.634l-46.39-88.54s77.57-30.559 146.24 57.768c163.66-38.51 307.98-42.65 491.77 11.878a255.16 255.16 0 01112.82 69.02c21.5 22.59 38.44 45.222 51.88 70.894 7.23 13.816 13.44 28.512 18.81 44.554zm38.01-139.955c-5.46-3.87-11.28-6.12-17.02-6.84-12.9-1.613-26.62 3.296-23.27 15.386 2.88 10.43 9.79 13.914 17.2 11.62 9.13-2.83 18.17-10.377 23.09-20.166z" fill="#ffc3bb"/><path d="M1181.61 1468.406l14.89-45.82a4.89 4.89 0 015.25-3.35c2.33.29 4.13 2.19 4.29 4.53l2.44 35.42h-23.61l-3.26 9.22zm436.93-9.22l7.72-38.32a3.85 3.85 0 013.53-3.07c1.73-.12 3.33.95 3.89 2.6l14.58 43.05-.04.01-1.45-4.27h-28.23zm180.1-318.72c0-129.29-99.45-236.827-228.35-246.909-94.08-7.447-187.61-7.382-280.59-.023-128.91 10.061-228.38 117.602-228.38 246.902h-.01c0 134 106.54 243.73 240.49 247.67 85.77 2.55 171.22 2.55 256.35.03 133.95-3.94 240.49-113.67 240.49-247.67zm-929.21-30.82c7.959 17.72 15.268 41.78 20.276 74.44.837 5.45-2.913 10.56-8.368 11.39-5.456.84-10.564-2.91-11.401-8.36-5.617-36.63-14.006-61.13-22.633-77.46l16.62-.01h5.507zm38.99 0c6.29 13.61 11.956 30.96 16.104 53.08 1.017 5.43-2.561 10.66-7.986 11.67-5.424 1.02-10.654-2.56-11.671-7.98-4.85-25.86-11.757-44.03-18.884-56.77h22.438zm990-72.55c1.73 8.41-14.61-54.233-13.17-49.928 7.41-2.082 13.52-3.969 15.04-4.917a92.195 92.195 0 003.25-2.122c4.1 13.268 8.86 30.267 13.06 49.487-5.1 2.27-11.42 4.89-18.18 7.48zm43.04-167.154c-1.84 4.062 14.6-23.339 13.31-46.848 6.37 5.452 12.38 12.187 17.77 20.337-2.64 12.785-8.41 29.29-20.87 45.4a9.927 9.927 0 01-4.23 3.18c-.7-7.54-2.61-14.97-5.98-22.069zm-12.21-61.797c1.72 21.117-7.36 41.788-5.99 39.068-5.46-3.87-11.28-6.12-17.03-6.84-.49-.062-.98-.114-1.47-.156 7.9-13.039 6.63-27.174 4.47-36.247 6.54.422 13.3 1.77 20.02 4.175zM1110 821.662l7.39 14.763c2.47 4.935.47 10.948-4.46 13.42-4.94 2.47-10.95.47-13.42-4.466l-6.58-13.138a374.73 374.73 0 0117.07-10.579zm106.91-19.3s-9.72-15.117-6.94-11.54c6.71-1.579 13.39-3.1 20.05-4.565l3.23 4.57c3.18 4.507 2.1 10.752-2.4 13.936-4.51 3.183-10.76 2.107-13.94-2.4z" fill="#f27f71"/><ellipse cx="764.658" cy="1274.01" rx="53.459" ry="179.982" fill="#f27f71" transform="matrix(1 0 0 .9722 38.29 46.024)"/><path d="M774.363 1206.579v156.09c0 5.51 4.481 10 10 10 5.52 0 10-4.49 10-10v-156.09c0-5.52-4.48-10-10-10-5.519 0-10 4.48-10 10zM811.534 1206.579v156.09c0 5.51 4.481 10 10 10 5.52 0 10-4.49 10-10v-156.09c0-5.52-4.48-10-10-10-5.519 0-10 4.48-10 10z" fill="#d7441e"/><g><path d="M965.163 1064.333c-.216 5.661-.86 17.793 2.11 28.726 3.725 13.704 12.457 25.553 30.994 26.598 7.636.428 18.114-.557 26.657-8.827 7.308-7.073 13.867-20.433 13.35-46.322l-20 .404c.35 17.381-2.353 26.797-7.26 31.55-3.67 3.548-8.342 3.41-11.622 3.228-7.93-.45-11.225-6.013-12.819-11.88-2.347-8.637-1.596-18.243-1.424-22.714l-19.986-.763z"/></g><g><path d="M1251.989 817.765h396.697l10.024 44.075h-396.697z"/></g></g><g><path d="M1285.86 893.864c1.29-.12 2.56-.23 3.84-.33 92.98-7.359 186.51-7.424 280.59.023 18.95 1.482 37.26 5.07 54.71 10.522v208.897h-339.14V893.864z" fill="#82b5b2"/><path d="M1346.76 889.94a1775.038 1775.038 0 01208.11 2.463c-17.56 39.735-57.33 67.493-103.53 67.493-47.15 0-87.6-28.91-104.58-69.957zM1394.21 1112.976v-97.42c0-11.62 9.42-21.04 21.03-21.04 11.62 0 21.04 9.42 21.04 21.04v97.42h-42.07zm70.26 0v-72.58c0-11.61 9.43-21.04 21.04-21.04s21.04 9.43 21.04 21.04v72.58h-42.08z" fill="#a8cfcc"/><g><path fill="#a8cfcc" d="M1285.86 544.951h339.138v292.955H1285.86z"/><path d="M1338.56 837.906c4.53-58.299 53.33-104.259 112.78-104.259s108.25 45.96 112.78 104.26h-225.56zM1518.78 544.951v83.008c0 11.61-9.42 21.037-21.03 21.037-11.61 0-21.04-9.427-21.04-21.037v-83.008h42.07zm-70.26 0v58.166c0 11.611-9.43 21.037-21.04 21.037s-21.04-9.426-21.04-21.037v-58.166h42.08z" fill="#82b5b2"/></g></g><g><circle cx="1494.85" cy="372.517" r="157.821" fill="#ffcf84" transform="matrix(.677 0 0 .67018 274.21 861.729)"/><path d="M1286.213 1028.884c45.994 0 83.338 36.967 83.338 82.5s-37.344 82.5-83.338 82.5c-1.868 0-3.385 1.501-3.385 3.35 0 1.85 1.517 3.351 3.385 3.351 49.73 0 90.108-39.97 90.108-89.201 0-49.232-40.378-89.202-90.108-89.202-1.868 0-3.385 1.502-3.385 3.351 0 1.85 1.517 3.35 3.385 3.35z" fill="#fd9909"/><path d="M1286.213 1193.884c-45.999 0-83.343-36.967-83.343-82.5s37.344-82.5 83.343-82.5c1.869 0 3.385-1.501 3.385-3.351s-1.516-3.35-3.385-3.35c-49.735 0-90.107 39.969-90.107 89.2 0 49.233 40.372 89.202 90.107 89.202 1.869 0 3.385-1.5 3.385-3.35s-1.516-3.351-3.385-3.351z" fill="#fd9909"/><path d="M1299.075 1216.393l-2.187-17.426c-.23-1.835 1.09-3.51 2.945-3.739 1.855-.228 3.54 1.077 3.777 2.913l2.16 17.24c-2.207.406-4.441.744-6.695 1.012zm19.978-4.34l-6.053-17.681c-.595-1.752.352-3.656 2.126-4.25 1.767-.593 3.69.347 4.286 2.099l6.018 17.568a105.637 105.637 0 01-6.377 2.264zm-91.74-12.43l9.41-15.319c.969-1.58 3.054-2.083 4.651-1.122a3.335 3.335 0 011.138 4.605l-9.438 15.359a105.405 105.405 0 01-5.76-3.523zm146.806-28.142l-15.55-11.392a3.336 3.336 0 01-.704-4.687 3.407 3.407 0 014.732-.7l15.205 11.14a102.577 102.577 0 01-3.683 5.639zm-189.45-27.13l18.272-8.14c1.7-.76 3.71-.006 4.475 1.68a3.34 3.34 0 01-1.699 4.431l-18.725 8.344a101.117 101.117 0 01-2.323-6.315zm205.218-58.621c.541 2.159 1.022 4.344 1.428 6.552l-18.015 4.205c-1.814.425-3.642-.692-4.068-2.491-.434-1.8.697-3.607 2.511-4.031l18.144-4.235zm-191.962-33.906l16.099 10.424a3.333 3.333 0 01.982 4.639c-1.023 1.547-3.121 1.982-4.685.97l-16.032-10.382c1.151-1.925 2.37-3.81 3.636-5.651zm10.507-12.93l13.093 9.532a3.329 3.329 0 01.718 4.684c-1.104 1.49-3.23 1.81-4.733.714l-13.573-9.888a106.168 106.168 0 014.495-5.041zm139.535-13.809a106.649 106.649 0 015.396 4.052l-11.705 14.61a3.415 3.415 0 01-4.76.542 3.334 3.334 0 01-.548-4.708l11.617-14.496zm-18.13-10.267c2.065.918 4.096 1.899 6.086 2.937l-8.252 15.324c-.88 1.632-2.932 2.25-4.583 1.38a3.336 3.336 0 01-1.388-4.534l8.137-15.107zm-67.584-6.528l4.766 16.822c.5 1.78-.548 3.631-2.35 4.13-1.8.5-3.669-.54-4.17-2.321l-4.793-16.924a105.666 105.666 0 016.547-1.707z" fill="#fd9909"/><g><circle cx="1494.85" cy="372.517" r="157.821" fill="#ffcf84" transform="matrix(.677 0 0 .67018 558.386 992.763)"/><path d="M1570.39 1159.918c45.994 0 83.338 36.967 83.338 82.5s-37.344 82.5-83.338 82.5c-1.868 0-3.385 1.501-3.385 3.35 0 1.85 1.517 3.351 3.385 3.351 49.73 0 90.108-39.97 90.108-89.201 0-49.232-40.378-89.202-90.108-89.202-1.868 0-3.385 1.502-3.385 3.351 0 1.85 1.517 3.35 3.385 3.35z" fill="#fd9909"/><path d="M1570.39 1324.918c-45.999 0-83.343-36.967-83.343-82.5s37.344-82.5 83.343-82.5c1.869 0 3.385-1.501 3.385-3.351s-1.516-3.35-3.385-3.35c-49.735 0-90.107 39.969-90.107 89.2 0 49.233 40.372 89.202 90.107 89.202 1.869 0 3.385-1.5 3.385-3.35s-1.516-3.351-3.385-3.351z" fill="#fd9909"/><path d="M1583.252 1347.427l-2.187-17.426c-.23-1.835 1.09-3.51 2.945-3.739 1.855-.228 3.54 1.077 3.777 2.913l2.16 17.24c-2.207.406-4.441.744-6.695 1.012zm19.978-4.34l-6.053-17.681c-.595-1.752.352-3.656 2.126-4.25 1.767-.593 3.69.347 4.286 2.099l6.018 17.568a105.637 105.637 0 01-6.377 2.264zm-91.74-12.43l9.41-15.319c.969-1.58 3.054-2.083 4.651-1.122a3.335 3.335 0 011.138 4.605l-9.438 15.359a105.405 105.405 0 01-5.76-3.523zm146.806-28.142l-15.55-11.392a3.336 3.336 0 01-.704-4.687 3.407 3.407 0 014.732-.7l15.205 11.14a102.577 102.577 0 01-3.683 5.639zm-189.45-27.13l18.272-8.14c1.7-.76 3.71-.006 4.475 1.68a3.34 3.34 0 01-1.699 4.431l-18.725 8.344a101.117 101.117 0 01-2.323-6.315zm205.218-58.621c.541 2.159 1.022 4.344 1.428 6.552l-18.015 4.205c-1.814.425-3.642-.692-4.068-2.491-.434-1.8.697-3.607 2.511-4.031l18.144-4.235zm-191.962-33.906l16.099 10.424a3.333 3.333 0 01.982 4.639c-1.023 1.547-3.121 1.982-4.685.97l-16.032-10.382c1.151-1.925 2.37-3.81 3.636-5.651zm10.507-12.93l13.093 9.532a3.329 3.329 0 01.718 4.684c-1.104 1.49-3.23 1.81-4.733.714l-13.573-9.888a106.168 106.168 0 014.495-5.041zm139.535-13.809a106.649 106.649 0 015.396 4.052l-11.705 14.61a3.415 3.415 0 01-4.76.542 3.334 3.334 0 01-.548-4.708l11.617-14.496zm-18.13-10.267c2.065.918 4.096 1.899 6.086 2.937l-8.252 15.324c-.88 1.632-2.932 2.25-4.583 1.38a3.336 3.336 0 01-1.388-4.534l8.137-15.107zm-67.584-6.528l4.766 16.822c.5 1.78-.548 3.631-2.35 4.13-1.8.5-3.669-.54-4.17-2.321l-4.793-16.924a105.666 105.666 0 016.547-1.707z" fill="#fd9909"/></g><g><circle cx="1494.85" cy="372.517" r="157.821" fill="#ffcf84" transform="matrix(.677 0 0 .67018 43.021 188.968)"/><path d="M1055.025 356.123c45.993 0 83.338 36.967 83.338 82.5s-37.345 82.5-83.338 82.5c-1.868 0-3.385 1.501-3.385 3.35 0 1.85 1.517 3.351 3.385 3.351 49.73 0 90.108-39.97 90.108-89.201 0-49.232-40.378-89.202-90.108-89.202-1.868 0-3.385 1.502-3.385 3.351 0 1.85 1.517 3.35 3.385 3.35z" fill="#fd9909"/><path d="M1055.025 521.123c-45.999 0-83.343-36.967-83.343-82.5s37.344-82.5 83.343-82.5c1.868 0 3.385-1.501 3.385-3.351s-1.517-3.35-3.385-3.35c-49.736 0-90.108 39.969-90.108 89.2 0 49.233 40.372 89.202 90.108 89.202 1.868 0 3.385-1.5 3.385-3.35s-1.517-3.351-3.385-3.351z" fill="#fd9909"/><path d="M1067.886 543.632l-2.186-17.426c-.23-1.835 1.09-3.51 2.945-3.739 1.855-.228 3.54 1.077 3.777 2.913l2.16 17.24c-2.207.406-4.441.744-6.696 1.012zm19.978-4.34l-6.052-17.681c-.596-1.752.352-3.656 2.126-4.25 1.767-.593 3.69.347 4.285 2.099l6.019 17.568a105.637 105.637 0 01-6.378 2.264zm-91.739-12.43l9.41-15.319c.968-1.58 3.053-2.083 4.651-1.122a3.335 3.335 0 011.137 4.605l-9.437 15.359a105.405 105.405 0 01-5.761-3.523zm146.806-28.142l-15.55-11.392a3.336 3.336 0 01-.705-4.687 3.407 3.407 0 014.733-.7l15.205 11.14a102.577 102.577 0 01-3.683 5.639zm-189.45-27.13l18.272-8.14c1.7-.76 3.71-.006 4.475 1.68a3.34 3.34 0 01-1.7 4.431l-18.725 8.344a101.117 101.117 0 01-2.322-6.315zm205.217-58.621c.542 2.159 1.023 4.344 1.429 6.552l-18.015 4.205c-1.814.425-3.642-.692-4.069-2.491-.433-1.8.698-3.607 2.512-4.031l18.143-4.235zm-191.961-33.906l16.099 10.424a3.333 3.333 0 01.981 4.639c-1.022 1.547-3.12 1.982-4.685.97l-16.03-10.382c1.15-1.925 2.369-3.81 3.635-5.651zm10.507-12.93l13.093 9.532a3.329 3.329 0 01.717 4.684c-1.103 1.49-3.229 1.81-4.732.714l-13.574-9.888a106.168 106.168 0 014.496-5.041zm139.535-13.809a106.649 106.649 0 015.395 4.052l-11.705 14.61a3.415 3.415 0 01-4.759.542 3.334 3.334 0 01-.548-4.708l11.617-14.496zm-18.13-10.267c2.065.918 4.096 1.899 6.086 2.937l-8.252 15.324c-.88 1.632-2.932 2.25-4.584 1.38a3.336 3.336 0 01-1.388-4.534l8.138-15.107zm-67.584-6.528l4.766 16.822c.5 1.78-.549 3.631-2.35 4.13-1.8.5-3.669-.54-4.17-2.321l-4.793-16.924a105.666 105.666 0 016.547-1.707z" fill="#fd9909"/><g><circle cx="1494.85" cy="372.517" r="157.821" fill="#ffcf84" transform="matrix(.677 0 0 .67018 -317.749 578.014)"/><path d="M694.255 745.169c45.994 0 83.338 36.967 83.338 82.5s-37.344 82.5-83.338 82.5c-1.868 0-3.385 1.501-3.385 3.35 0 1.85 1.517 3.351 3.385 3.351 49.73 0 90.108-39.97 90.108-89.201 0-49.232-40.378-89.202-90.108-89.202-1.868 0-3.385 1.502-3.385 3.351 0 1.85 1.517 3.35 3.385 3.35z" fill="#fd9909"/><path d="M694.255 910.169c-45.999 0-83.343-36.967-83.343-82.5s37.344-82.5 83.343-82.5c1.869 0 3.385-1.501 3.385-3.351s-1.516-3.35-3.385-3.35c-49.735 0-90.107 39.969-90.107 89.2 0 49.233 40.372 89.202 90.107 89.202 1.869 0 3.385-1.5 3.385-3.35s-1.516-3.351-3.385-3.351z" fill="#fd9909"/><path d="M707.117 932.678l-2.187-17.426c-.23-1.835 1.09-3.51 2.945-3.739 1.855-.228 3.54 1.077 3.777 2.913l2.16 17.24c-2.207.406-4.441.744-6.695 1.012zm19.978-4.34l-6.053-17.681c-.595-1.752.352-3.656 2.126-4.25 1.767-.593 3.69.347 4.286 2.099l6.018 17.568a105.637 105.637 0 01-6.377 2.264zm-91.74-12.43l9.41-15.319c.969-1.58 3.054-2.083 4.651-1.122a3.335 3.335 0 011.138 4.605l-9.438 15.359a105.405 105.405 0 01-5.76-3.523zm146.806-28.142l-15.55-11.392a3.336 3.336 0 01-.704-4.687 3.407 3.407 0 014.732-.7l15.205 11.14a102.577 102.577 0 01-3.683 5.639zm-189.45-27.13l18.272-8.14c1.7-.76 3.71-.006 4.475 1.68a3.34 3.34 0 01-1.699 4.431l-18.725 8.344a101.117 101.117 0 01-2.323-6.315zm205.218-58.621c.541 2.159 1.022 4.344 1.428 6.552l-18.015 4.205c-1.814.425-3.642-.692-4.068-2.491-.434-1.8.697-3.607 2.511-4.031l18.144-4.235zm-191.962-33.906l16.099 10.424a3.333 3.333 0 01.982 4.639c-1.023 1.547-3.121 1.982-4.685.97L602.33 773.76c1.151-1.925 2.37-3.81 3.636-5.651zm10.507-12.93l13.093 9.532a3.329 3.329 0 01.718 4.684c-1.104 1.49-3.23 1.81-4.733.714l-13.573-9.888a106.168 106.168 0 014.495-5.041zm139.535-13.809a106.649 106.649 0 015.396 4.052l-11.705 14.61a3.415 3.415 0 01-4.76.542 3.334 3.334 0 01-.548-4.708l11.617-14.496zm-18.13-10.267c2.065.918 4.096 1.899 6.086 2.937l-8.252 15.324c-.88 1.632-2.932 2.25-4.583 1.38a3.336 3.336 0 01-1.388-4.534l8.137-15.107zm-67.584-6.528l4.766 16.822c.5 1.78-.548 3.631-2.35 4.13-1.8.5-3.669-.54-4.17-2.321l-4.793-16.924a105.666 105.666 0 016.547-1.707z" fill="#fd9909"/></g><g><circle cx="1494.85" cy="372.517" r="157.821" fill="#ffcf84" transform="matrix(.677 0 0 .67018 1142.132 434.989)"/><path d="M2154.136 602.144c45.994 0 83.338 36.967 83.338 82.5s-37.344 82.5-83.338 82.5c-1.868 0-3.385 1.501-3.385 3.35 0 1.85 1.517 3.351 3.385 3.351 49.73 0 90.108-39.97 90.108-89.201 0-49.232-40.378-89.202-90.108-89.202-1.868 0-3.385 1.502-3.385 3.351 0 1.85 1.517 3.35 3.385 3.35z" fill="#fd9909"/><path d="M2154.136 767.144c-45.999 0-83.343-36.967-83.343-82.5s37.344-82.5 83.343-82.5c1.869 0 3.385-1.501 3.385-3.351s-1.516-3.35-3.385-3.35c-49.735 0-90.107 39.969-90.107 89.2 0 49.233 40.372 89.202 90.107 89.202 1.869 0 3.385-1.5 3.385-3.35s-1.516-3.351-3.385-3.351z" fill="#fd9909"/><path d="M2166.998 789.653l-2.187-17.426c-.23-1.835 1.09-3.51 2.945-3.739 1.855-.228 3.54 1.077 3.777 2.913l2.16 17.24c-2.207.406-4.441.744-6.695 1.012zm19.978-4.34l-6.053-17.681c-.595-1.752.352-3.656 2.126-4.25 1.767-.593 3.69.347 4.286 2.099l6.018 17.568a105.637 105.637 0 01-6.377 2.264zm-91.74-12.43l9.41-15.319c.969-1.58 3.054-2.083 4.651-1.122a3.335 3.335 0 011.138 4.605l-9.438 15.359a105.405 105.405 0 01-5.76-3.523zm146.806-28.142l-15.55-11.392a3.336 3.336 0 01-.704-4.687 3.407 3.407 0 014.732-.7l15.205 11.14a102.577 102.577 0 01-3.683 5.639zm-189.45-27.13l18.272-8.14c1.7-.76 3.71-.006 4.475 1.68a3.34 3.34 0 01-1.699 4.431l-18.725 8.344a101.117 101.117 0 01-2.323-6.315zm205.218-58.621c.541 2.159 1.022 4.344 1.428 6.552l-18.015 4.205c-1.814.425-3.642-.692-4.068-2.491-.434-1.8.697-3.607 2.511-4.031l18.144-4.235zm-191.962-33.906l16.099 10.424a3.333 3.333 0 01.982 4.639c-1.023 1.547-3.121 1.982-4.685.97l-16.032-10.382c1.151-1.925 2.37-3.81 3.636-5.651zm10.507-12.93l13.093 9.532a3.329 3.329 0 01.718 4.684c-1.104 1.49-3.23 1.81-4.733.714l-13.573-9.888a106.168 106.168 0 014.495-5.041zm139.535-13.809a106.649 106.649 0 015.396 4.052l-11.705 14.61a3.415 3.415 0 01-4.76.542 3.334 3.334 0 01-.548-4.708l11.617-14.496zm-18.13-10.267c2.065.918 4.096 1.899 6.086 2.937l-8.252 15.324c-.88 1.632-2.932 2.25-4.583 1.38a3.336 3.336 0 01-1.388-4.534l8.137-15.107zm-67.584-6.528l4.766 16.822c.5 1.78-.548 3.631-2.35 4.13-1.8.5-3.669-.54-4.17-2.321l-4.793-16.924a105.666 105.666 0 016.547-1.707z" fill="#fd9909"/></g></g></g><g><path d="M1773.09 555.79v-16.683c0-2.76 2.24-5 5-5s5 2.24 5 5v16.683h16.68c2.76 0 5 2.24 5 5s-2.24 5-5 5h-16.68v16.683c0 2.76-2.24 5-5 5s-5-2.24-5-5V565.79h-16.69c-2.76 0-5-2.24-5-5s2.24-5 5-5h16.69zM957.484 745.037v-16.683c0-2.76 2.24-5 5-5s5 2.24 5 5v16.683h16.68c2.76 0 5 2.24 5 5s-2.24 5-5 5h-16.68v16.683c0 2.76-2.24 5-5 5s-5-2.24-5-5v-16.683h-16.69c-2.76 0-5-2.24-5-5s2.24-5 5-5h16.69zM2099.616 916.086v-16.683c0-2.76 2.24-5 5-5s5 2.24 5 5v16.683h16.68c2.76 0 5 2.24 5 5s-2.24 5-5 5h-16.68v16.683c0 2.76-2.24 5-5 5s-5-2.24-5-5v-16.683h-16.69c-2.76 0-5-2.24-5-5s2.24-5 5-5h16.69z" fill="#fd9500"/></g></svg>