<svg viewBox="0 0 2732 2048" xmlns="http://www.w3.org/2000/svg" fill-rule="evenodd" clip-rule="evenodd" stroke-linejoin="round" stroke-miterlimit="2"><path d="M1154.36 986.542s-177.565-19.944-246.324 108.388c-23.138 43.18-194.636 443.61-212.816 601.42 0 0-41.299 13.06-47.035 34.26h243.286a6.393 6.393 0 005.898-3.93c17.752-42.47 173.531-415.19 173.531-415.19s20.03 337.86 24.12 406.89c.41 6.87 6.1 12.23 12.98 12.23h206.76s-5.7-22.27-47.42-34.26c0 0 22.56-525.57-40.07-657.16l-72.91-52.648z" fill="url(#_Linear1)" transform="translate(-112.988 -33.663)"/><path d="M923.422 1360.348l21.96-221.56a2.944 2.944 0 015.87.16l6.26 139.84-34.09 81.56z" fill="#13524e"/><path d="M1158.302 1460.188c0 3.36-.01 6.69-.02 10h-188.97l-.59-10h189.58zm-522.716 0h246.108l-4.179 10H632.23l.053-.16c1.061-3.18 2.128-6.35 3.2-9.53l.103-.31z" fill="#82b5b2"/><g><circle cx="1017.67" cy="626.25" r="65.348" fill="#a8cfcc" transform="translate(-112.445 -46.454)"/><path d="M900.402 514.625c3.3 13.318 8.07 46.906-16.758 76.584a15.05 15.05 0 00-12.828-7.111c-8.281 0-15.003 6.618-15.003 14.768s6.722 14.769 15.003 14.769c1.432 0 2.818-.2 4.131-.57.187 5.147-1.144 12.343-7.456 20.073-16.7-11.84-27.61-31.327-27.61-53.342 0-34.444 26.705-62.699 60.521-65.172z"/><path d="M851.52 612.861c-1.858 1.09-6.537.927-8.665 1.353-6.98 1.4-13.92 3.022-20.83 4.73-21.371 5.282-42.438 11.637-62.375 21.077-14.505 6.868-29.692 15.562-36.555 30.782-9.976 22.124 7.754 41.98 30.804 39.903 22.23-2.005 39.677-18.11 54.489-33.257 17.33-17.72 37.118-36.822 50.405-57.97"/></g><g><path d="M775.246 759.743c-11.06 11.784-108.36 118.16-181.468 200.226-24.528 27.758-26.75 68.738-5.367 98.988l-.002.01c18.781 26.57 52.774 37.66 83.611 27.28 33.413-11.26 79.046-37.26 132.151-95.51 26.976-29.59 48.421-56.61 66.117-73.15 0 0 77.634 24.975 117.564-17.833 0 0 97.48 124.554 191.82 174.203 37.31 19.4 83.28 6.38 104.87-29.71 10.05-16.66 14.27-36.72 2.96-58.5-49.52-95.396-127.28-167.578-246.13-281.851-23.07-22.188-63.41-53.88-141.54-35.794-29.437 6.814-65.319 28.495-124.586 91.642z" fill="#a8cfcc"/><path d="M946.282 838.16s2.56-.66 5.58-.388c2.56.231 5.59 1.136 7.15 4.358 2.09 4.333-1.07 7.91-5.89 11.565-9.77 7.414-26.98 13.898-42.22 20.103a4 4 0 103.01 7.409c15.93-6.48 33.84-13.393 44.05-21.139 8.52-6.462 11.95-13.749 8.25-21.414-3.02-6.255-8.66-8.4-13.63-8.85-4.51-.407-8.34.621-8.34.621a4.003 4.003 0 00-2.85 4.89 4.006 4.006 0 004.89 2.844z" fill="#82b5b2"/><path d="M977.262 821.813s4.76-4.615 11.24-8.298c4.05-2.298 8.79-4.297 13.44-4.273 1.9.004 3.69.828 4.92 2.26a6.442 6.442 0 011.48 5.192c-.78 4.49-2.92 10.587-8.44 16.405-7.59 8.005-26.8 32.174-87.98 39.921a3.996 3.996 0 00-3.46 4.471 4.003 4.003 0 004.47 3.466c64.57-8.178 84.76-33.9 92.78-42.351 6.9-7.27 9.53-14.905 10.53-20.618.65-4.25-.56-8.49-3.3-11.692a14.483 14.483 0 00-10.97-5.054c-6-.03-12.19 2.346-17.42 5.317-7.43 4.22-12.87 9.519-12.87 9.519a4.004 4.004 0 00-.08 5.657 4.007 4.007 0 005.66.078z" fill="#82b5b2"/><path d="M987.662 848.026s-10.25 26.163-20.37 36.274a4.004 4.004 0 000 5.657 4.005 4.005 0 005.66 0c10.9-10.897 22.15-38.983 22.15-38.983a4.002 4.002 0 00-7.44-2.948zM956.852 865.285v9.416a4 4 0 004 4c2.2 0 4-1.793 4-4v-9.416c0-2.207-1.8-4-4-4a4 4 0 00-4 4zM985.462 714.125s-6.4 2.653-9.41 9.947c-1.85 4.478-2.53 10.842.97 19.584 4.04 10.074 14.43 39.89.31 62.84a4.006 4.006 0 001.3 5.504 4.009 4.009 0 005.51-1.31c15.74-25.57 4.8-58.787.3-70.01-2.42-6.06-2.28-10.45-1-13.553 1.69-4.075 5.16-5.645 5.16-5.645a4.003 4.003 0 002.11-5.251 4.003 4.003 0 00-5.25-2.106z" fill="#82b5b2"/><path d="M945.739 992.07c-8.788 10.11-18.281 21.03-28.58 32.33-53.105 58.25-98.738 84.25-132.151 95.51-30.837 10.38-64.83-.71-83.611-27.28l.002-.01c-21.383-30.25-19.161-71.23 5.367-98.988 73.108-82.067 170.408-188.442 181.468-200.226 59.267-63.147 95.149-84.828 124.586-91.642 78.13-18.085 118.47 13.606 141.54 35.794 118.85 114.273 196.61 186.455 246.13 281.852 11.31 21.78 7.09 41.84-2.96 58.5-17.44 29.15-50.79 43.25-82.63 37.37l-27.05-10.25c-32.58-18-65.34-44.51-94.15-71.35-16.4-17.04-27.64-30.02-27.64-30.02l47.79-118.015-76.97-54.578c-3.24-22.328-4.52-36.598-11.43-51.394-1.88-4.048-4.19-8.135-7.08-12.437-13.43-20.029-21.89-8.107-21.89-8.107-6.24-7.703-12.03-11.251-15.89-12.88a7.33 7.33 0 00-6.25.39 7.33 7.33 0 00-3.65 5.073c-.93 5.294 2.31 11.263 4.06 14.003.54.83 1.16 1.607 1.85 2.319 37.93 39.212 16.96 83.227 16.96 83.227-18.74 23.067-52.2 22.52-52.2 22.52-24.47 1.969-39.86-5.575-48.588-12.454a50.174 50.174 0 00-45.905-8.46c-38.47 12.26-79.98 48.781-79.98 48.781l78.852 90.422z" fill="url(#_Linear2)" transform="translate(-112.988 -33.663)"/><path d="M870.399 917.621l39.213-43.855s47.25 21.572 62.22 4.696l18.99 25.014c-1.95-2.409-2.97-3.722-2.97-3.722-39.05 41.87-114.181 18.894-117.453 17.867z" fill="#82b5b2"/><path d="M762.696 860.72c-5.538 4.398-8.797 7.265-8.797 7.265l6.452 7.4-117.257 97.202a5.008 5.008 0 01-7.041-.66 5.002 5.002 0 01.659-7.04l124.752-103.415a4.99 4.99 0 011.232-.751zm332.406-12.823c1.05.066 2.1.465 2.96 1.21l114.19 98.952a5.004 5.004 0 01.5 7.053 4.999 4.999 0 01-7.05.505l-108.67-94.168 3.83-9.466-5.76-4.086zm-321.032 4.16c.589-9.63 2.258-28.468 6.788-44.95a3.6 3.6 0 016.904.168 30749.88 30749.88 0 018.098 30.139c-8.046 4.917-15.482 10.033-21.79 14.643zm275.612-36.362l5.36-25.517c.2-.955.97-1.688 1.93-1.846.96-.158 1.92.291 2.41 1.131 3.03 6.693 7.59 19.585 9.8 40.06l-19.5-13.828z" fill="#13524e"/></g><g><circle cx="1038.99" cy="824.953" r="64.215" fill="#ffcd80" transform="matrix(.9891 0 0 .97553 -102.756 -25.403)"/><circle cx="1038.99" cy="824.953" r="64.215" fill="#ffb000" transform="matrix(.82884 0 0 .81746 63.619 104.6)"/><path d="M906.86 799.602c5.892 4.288 12.615 6.193 20.28 5.904 9.123-.557 13.43-3.993 13.216-10.323-.335-5.153-3.581-8.111-9.737-8.874-2.873-.245-5.941-.48-9.31-.799-6.052-.67-10.812-2.674-14.175-5.919-3.467-3.337-5.316-7.536-5.645-12.592-.392-6.028 1.256-10.988 5.139-14.89 3.687-3.894 9.162-6.023 16.322-6.481 8.75-.246 16.468 1.804 23.146 6.052l-5.328 8.95c-5.424-3.14-11.336-4.696-17.626-4.477-3.24.163-5.938 1.08-7.99 2.842-2.15 1.766-3.164 4.354-3.047 7.664.132 2.042 1.032 3.753 2.71 5.327 1.678 1.573 4.3 2.514 7.78 3.022 1.885.197 4.56.453 7.924.673 6.634.544 11.596 2.635 14.984 6.269 3.284 3.541 5.133 7.74 5.455 12.699.565 13.238-7.245 20.362-23.234 21.363-10.308.52-19.45-2.239-27.323-8.183l6.459-8.227z" fill="#ffcd80" fill-rule="nonzero"/><path d="M921.444 736.876l-1.83 87.049h12.128v-87.049h-10.298z" fill="#ffcd80"/></g><g><path d="M676.37 1545.778c-6.038-1.09-10.622-6.38-10.622-12.73v-25.88c0-7.14 5.798-12.94 12.939-12.94h145.345c7.142 0 12.94 5.8 12.94 12.94v25.88c0 6.35-4.584 11.64-10.622 12.73 6.038 1.1 10.622 6.39 10.622 12.74v25.88c0 6.35-4.584 11.63-10.622 12.73 6.038 1.09 10.622 6.38 10.622 12.73v25.88c0 6.35-4.584 11.64-10.622 12.73 6.038 1.1 10.622 6.38 10.622 12.73v25.88c0 7.14-5.798 12.94-12.94 12.94H678.687c-7.141 0-12.939-5.8-12.939-12.94v-25.88c0-6.35 4.584-11.63 10.622-12.73-6.038-1.09-10.622-6.38-10.622-12.73v-25.88c0-6.35 4.584-11.64 10.622-12.73-6.038-1.1-10.622-6.38-10.622-12.73v-25.88c0-6.35 4.584-11.64 10.622-12.74z" fill="#ffcd80"/><path d="M802.663 1494.228v41.41h33.566c.162 0 .322.01.479.02a12.96 12.96 0 01-9.661 9.98h-.258v.06c-.145.03-.291.06-.439.08l.439.09v41.1h9.44c.162 0 .323.01.481.02a12.959 12.959 0 01-9.623 9.98h-10.694v41.34h19.836c.163 0 .324 0 .483.02-.996 4.89-4.76 8.79-9.585 9.98h-26.523v51.71h-10v-51.71h-9.463v51.71h-10v-51.71h-66.414v51.71h-10v-51.71h-19.134c-4.832-1.19-8.601-5.1-9.59-10h62.835v-41.34h-53.205a12.952 12.952 0 01-9.628-10h14.405v-41.33h-4.737a12.971 12.971 0 01-9.666-10h41.998v-41.41h10v41.41h54.35v-41.41h10v41.41h10.308v-41.41h10zm-63.825 102.74v41.34h7.559v-41.34h-7.559zm17.559 0v41.34h49.996v-41.34h-49.996zm-65.987-51.33v41.33h74.555v-41.33H690.41zm84.555 0v41.33h41.824v-41.33h-41.824z" fill="#fda425"/></g><g><path d="M2020.602 856.627c-6.84-3.377-11.55-10.427-11.55-18.569V796.67c0-11.422 9.27-20.694 20.69-20.694h314.26c11.42 0 20.69 9.272 20.69 20.694v41.388c0 8.142-4.71 15.192-11.56 18.569 6.85 3.378 11.56 10.428 11.56 18.569v41.388c0 7.158-3.64 13.472-9.17 17.188 5.53 3.717 9.17 10.03 9.17 17.188v41.39c0 7.16-3.64 13.47-9.17 17.19 5.53 3.71 9.17 10.03 9.17 17.18v41.39c0 7.16-3.64 13.47-9.17 17.19 5.53 3.72 9.17 10.03 9.17 17.19v41.39c0 7.15-3.64 13.47-9.17 17.19 5.53 3.71 9.17 10.03 9.17 17.18v41.39c0 7.16-3.64 13.47-9.17 17.19 5.53 3.72 9.17 10.03 9.17 17.19v41.39c0 7.15-3.64 13.47-9.17 17.18 5.53 3.72 9.17 10.03 9.17 17.19v41.39c0 7.16-3.64 13.47-9.17 17.19 5.53 3.72 9.17 10.03 9.17 17.19v41.39c0 7.15-3.64 13.47-9.17 17.18 5.53 3.72 9.17 10.03 9.17 17.19v41.391c0 7.16-3.64 13.47-9.17 17.19 5.53 3.71 9.17 10.03 9.17 17.19v41.38c0 7.16-3.64 13.48-9.17 17.19 5.53 3.72 9.17 10.03 9.17 17.19v41.39c0 11.42-9.27 20.69-20.69 20.69h-314.26c-11.42 0-20.69-9.27-20.69-20.69v-41.39c0-7.16 3.64-13.47 9.17-17.19-5.53-3.71-9.17-10.03-9.17-17.19v-41.38c0-7.16 3.64-13.48 9.17-17.19-5.53-3.72-9.17-10.03-9.17-17.19v-41.39c0-7.16 3.64-13.47 9.17-17.19-5.53-3.71-9.17-10.03-9.17-17.18v-41.39c0-7.16 3.64-13.47 9.17-17.19-5.53-3.72-9.17-10.03-9.17-17.19v-41.39c0-7.16 3.64-13.47 9.17-17.19-5.53-3.71-9.17-10.03-9.17-17.18v-41.39c0-7.16 3.64-13.47 9.17-17.19-5.53-3.72-9.17-10.03-9.17-17.19v-41.39c0-7.15 3.64-13.47 9.17-17.18-5.53-3.72-9.17-10.04-9.17-17.19v-41.39c0-7.16 3.64-13.47 9.17-17.19-5.53-3.721-9.17-10.031-9.17-17.191v-41.39c0-7.15 3.64-13.47 9.17-17.18-5.53-3.72-9.17-10.03-9.17-17.19v-41.39c0-7.158 3.64-13.471 9.17-17.188-5.53-3.716-9.17-10.03-9.17-17.188v-41.388c0-8.141 4.71-15.191 11.55-18.57z" fill="#ffcd80"/><path d="M2268.072 775.976v70.15h38.3a5.003 5.003 0 014.87-3.872c2.37 0 4.36 1.656 4.87 3.873h46.94a20.784 20.784 0 01-8.96 10h-37.85v67.912h47.06a20.754 20.754 0 01-7.78 9.733c.13.087.25.176.38.267h-8.77v67.43c0 .16-.01.32-.02.48h15.22a20.895 20.895 0 01-6.81 7.59c1.06.71 2.05 1.52 2.96 2.41h-52.77v64.141h57.38a20.803 20.803 0 01-7.57 9.21c.37.25.74.52 1.09.79h-20.86v65.69h27.37a20.84 20.84 0 01-7.6 9.29c.34.22.67.46 1 .71h-56.27v65.79h62.87c-1.58 3.78-4.24 7-7.6 9.26.35.24.69.48 1.02.74h-22.86v66.4h29.15a20.693 20.693 0 01-7.31 8.62c.63.43 1.24.89 1.82 1.38h-66.91v64.87h72.79a20.813 20.813 0 01-7.7 9.52c.23.15.45.31.67.48h-36.68v64.81h44.06a20.689 20.689 0 01-7.38 10h-68.93v66.841h75.91a20.805 20.805 0 01-7.65 9.4c.28.19.56.39.84.6h-30.65v64.79h37.83a20.744 20.744 0 01-7.49 10h-101.15v79.64h-10v-79.64h-20.2v79.64h-10v-79.64h-131.35v79.64h-10v-79.64h-55.66a20.744 20.744 0 01-7.49-10h17.77v-64.79h-10.59c.27-.21.55-.41.84-.6a20.89 20.89 0 01-7.66-9.4h64.24v-66.84h-57.25c-3.39-2.47-6-5.95-7.39-10h25v-64.81h-17.62c.22-.17.45-.33.68-.48a20.75 20.75 0 01-7.7-9.52h54.31v-64.87h-48.44c.59-.49 1.19-.95 1.83-1.38a20.789 20.789 0 01-7.32-8.62h21.74v-66.4h-15.45c.34-.26.68-.5 1.03-.74a20.813 20.813 0 01-7.6-9.26h57.81v-65.79h-51.21c.33-.25.66-.49 1-.71a20.795 20.795 0 01-7.61-9.29h15.06v-65.69h-8.55c.36-.27.73-.54 1.1-.79-3.35-2.251-6-5.451-7.58-9.211h32.67v-64.14h-28.05c.91-.89 1.9-1.7 2.96-2.41-2.85-1.92-5.2-4.53-6.81-7.59h90.73v-67.911h-51.21c-.65.307-1.37.478-2.13.478a4.98 4.98 0 01-2.14-.478h-28.83c.13-.091.26-.18.39-.267a20.835 20.835 0 01-7.79-9.733h33.37v-67.912h-24.15a20.808 20.808 0 01-8.97-10h33.24a5.003 5.003 0 019.75 0h62.84v-70.15h10v70.15h10.85v-70.15h10v70.15h28.74a5.006 5.006 0 019.75 0h15.16a5.003 5.003 0 019.75 0h47.31v-70.15h10zm-230.1 764.515v64.79h89.44v-64.79h-89.44zm99.44 0v64.79h15.28v-64.79h-15.28zm25.28 0v64.79h153.02v-64.79h-153.02zm-77.89-76.84v66.84h92.89v-66.84h-92.89zm173.38 0h-70.49v66.84h70.46v-66.31l.03-.53zm9.97 66.84h9.11v-66.84h-9.14c.02.17.03.35.03.53v66.31zm-21.43-141.65v64.81h62.79v-64.81h-62.79zm-109.03 64.81h99.03v-64.81h-99.12c.06.3.09.61.09.92v63.89zm-9.92-64.81h-82.61v64.81h82.53v-63.89c0-.3.02-.61.08-.91v-.01zm81.68-74.87v64.87h70.98v-64.87h-70.98zm-22.59 0v64.87h12.59v-64.87h-12.59zm-112.03 0v64.87h102.03v-64.87h-102.03zm43.79-76.4v66.4h122.4v-66.4h-122.4zm-75.98 0v66.4h65.98v-66.4h-65.98zm208.38 0v66.4h72.66v-66.4h-72.66zm-85.99-75.79v65.79h9.92v-65.79h-9.92zm-50.54 65.79h40.54v-65.79h-76.6v65.79h34.32c.28-.05.57-.08.87-.08.3 0 .59.03.87.08zm70.46-65.79v65.79h105.3v-65.79h-105.3zm111.79-10h29.01v-65.69h-81.86v65.69h49.87c.47-.15.97-.23 1.49-.23s1.02.08 1.49.23zm-76.94-65.69v65.69h14.09v-65.69h-14.09zm-184.13 0v65.69h97.98v-65.69h-97.98zm107.98 0v65.69h66.15v-65.69h-66.15zm-90.34-74.141v64.14h12.21v-64.14h-12.21zm137.31 0v64.14h105.09v-64.14h-105.09zm-115.1 0v64.14h105.1v-64.14h-105.1zm54.32-77.911h-17.7v67.91h17.73c-.02-.16-.03-.32-.03-.48v-67.43zm120.9 0h-42.72c-.64.307-1.37.478-2.13.478a4.98 4.98 0 01-2.14-.478h-20.64c-.65.307-1.37.478-2.13.478a4.98 4.98 0 01-2.14-.478h-39v67.43c0 .16 0 .32-.02.48h110.94c-.02-.16-.02-.32-.02-.48v-67.43zm86.39 0h-23.75a4.98 4.98 0 01-2.14.478c-.76 0-1.49-.171-2.13-.478h-48.37v67.43c0 .16-.01.32-.03.48h76.44c-.01-.16-.02-.32-.02-.48v-67.43zm-283.33-77.912v67.912h122.18v-67.912h-122.18zm132.18 0v67.912h14.91v-67.912h-14.91zm24.91 0v67.912h95.35v-67.912h-95.35z" fill="#fda425"/><path d="M1488.892 1315.39c-5.53-3.71-9.17-10.03-9.17-17.18v-41.39c0-11.42 9.27-20.7 20.69-20.7h314.25c11.43 0 20.7 9.28 20.7 20.7v41.39c0 7.15-3.64 13.47-9.17 17.18 5.53 3.72 9.17 10.03 9.17 17.19v41.39c0 7.16-3.64 13.47-9.17 17.19 5.53 3.71 9.17 10.03 9.17 17.19v41.38c0 7.16-3.64 13.48-9.17 17.19 5.53 3.721 9.17 10.031 9.17 17.191v41.39c0 7.16-3.64 13.47-9.17 17.19 5.53 3.71 9.17 10.03 9.17 17.18v41.39c0 7.16-3.64 13.47-9.17 17.19 5.53 3.72 9.17 10.03 9.17 17.19v41.39c0 11.42-9.27 20.69-20.7 20.69h-314.25c-11.42 0-20.69-9.27-20.69-20.69v-41.39c0-7.16 3.64-13.47 9.17-17.19-5.53-3.72-9.17-10.03-9.17-17.19v-41.39c0-7.15 3.64-13.47 9.17-17.18-5.53-3.72-9.17-10.03-9.17-17.19v-41.39c0-7.16 3.64-13.47 9.17-17.19-5.53-3.71-9.17-10.03-9.17-17.19v-41.38c0-7.16 3.64-13.48 9.17-17.19-5.53-3.72-9.17-10.03-9.17-17.19v-41.39c0-7.16 3.64-13.47 9.17-17.19z" fill="#ffcd80"/><path d="M1761.512 1306.89h71.94c-1.6 3.46-4.13 6.4-7.26 8.5.68.46 1.33.96 1.96 1.5h-29.67v64.76h35.4c-1.55 3.89-4.26 7.2-7.69 9.51.23.16.47.32.7.49h-59.22v64.32c0 .29-.02.57-.07.84h66.51a20.758 20.758 0 01-7.76 10h-18.25v64.751c0 .28-.03.56-.07.83h26.15a20.743 20.743 0 01-7.57 10h-54.49v65.89h62.01a20.688 20.688 0 01-7.7 10h-20.78v79.44h-10v-79.44h-64.51c0 .09.01.17.01.25v79.19h-10v-79.19-.25h-49.32c-.64.3-1.34.46-2.08.46-.75 0-1.45-.16-2.09-.46h-64.07v79.44h-10v-79.44h-17.48v79.44h-10v-79.44h-77.47a20.688 20.688 0 01-7.7-10h69v-65.89h-61.48a20.804 20.804 0 01-7.57-10h25.4v-65.58h-17.56a20.718 20.718 0 01-7.77-10h61.39v-65.16h-54.17c.24-.17.47-.33.71-.49a20.787 20.787 0 01-7.7-9.51h21.87v-64.76h-16.13c.62-.54 1.27-1.04 1.96-1.5-3.14-2.1-5.66-5.04-7.27-8.5h45.97v-70.77h10v70.77h10.24v-70.77h10v70.77h91.84v-70.77h10v70.77h91.84v-70.77h10v70.77zm-201.57 235.501v65.89h104.81v-65.89h-104.81zm114.81 0v65.89h67.57v-65.89h-67.57zm77.57 0v65.89h9.8v-65.89h-9.8zm-236.03-75.58v65.58h80.9v-65.58h-80.9zm189 0h-98.1v65.58h98.37c-.17-.51-.27-1.06-.27-1.63v-63.95zm92.81 0h-82.81v63.95c0 .57-.09 1.12-.27 1.63h83.14a5.69 5.69 0 01-.06-.83v-64.75zm-245.75-75.16v65.16h76.84v-65.16h-76.84zm86.84 0v65.16h11.82v-65.16h-11.82zm118.48 0h-96.66v65.16h47.74c.48-.16 1-.24 1.54-.24s1.06.08 1.55.24h45.91c-.05-.27-.08-.55-.08-.84v-64.32zm-244.61-74.76v64.76h88.06v-64.76h-88.06zm98.06 0v64.76h79.62v-64.76h-79.62zm89.62 0v64.76h13.38v-64.76h-13.38zm87.74 0h-64.36v64.76h64.36v-64.76z" fill="#fda425"/><path d="M1835.472 1019.187h96.33c165.73 0 300.29 156.24 300.29 348.68 0 177.56-114.37 327.05-262.26 348.68-12.4 1.82-133.71 0-133.71 0-165.73 0-300.29-156.24-300.29-348.68 0-192.19 134.21-348.28 299.64-348.68z" fill="#fda425"/><ellipse cx="1961.72" cy="1421.35" rx="287.675" ry="328.867" fill="#ffcd80" transform="matrix(1.04383 0 0 1.06025 -211.587 -139.12)"/><path d="M1837.273 1160.675l-10.369-.577.238-15.472 18.09 1.007c4.283.238 7.686 3.895 7.62 8.166l-.402 26.166c15.821 1.592 30.973 4.983 45.435 10.156 18.48 6.603 35.857 16.124 52.113 28.543a8.115 8.115 0 013.184 5.769c.172 2.26-.628 4.448-2.226 5.997l-35.412 34.325c-2.67 2.581-6.878 2.777-9.97.455-16.034-12.027-34.06-19.813-54.077-23.375l-1.343 87.192c74.45 19.992 109.786 57.776 107.948 111.275-.883 29.067-12.078 52.564-33.461 70.416-19.546 16.945-45.43 27.117-77.75 30.265l-.693 44.96c-.066 4.264-3.575 7.527-7.86 7.288l-17.757-.988.238-15.455 10.038.559.677-43.985c.06-3.917 3.03-7.044 6.927-7.29 31.787-2.07 57.093-11.034 75.904-27.325 18.13-15.137 27.53-34.995 28.28-59.57 1.653-48.133-33.014-79.642-101.895-96.727-3.631-.914-6.21-4.25-6.154-7.953l1.571-102.019a7.452 7.452 0 012.53-5.5 7.421 7.421 0 015.806-1.745c23.922 2.837 45.446 10.784 64.551 23.809l24.393-23.64c-12.708-8.747-26.108-15.664-40.24-20.702-15.43-5.524-31.681-8.81-48.795-9.912-4.242-.27-7.604-3.914-7.538-8.162l.4-25.951zm10.58 317.744c11.291-2.78 19.581-7.115 24.628-13.37 3.15-4.042 5.478-8.66 6.987-13.838l14.859 4.947c-2.076 6.998-5.258 13.24-9.59 18.822-8.278 10.243-22.578 17.388-43.28 20.62-2.283.352-4.655-.342-6.454-1.915-1.777-1.571-2.799-3.845-2.763-6.175l.842-54.68 15.46.861-.688 44.728zm-81.238-223.475c2.82-6.84 6.448-12.462 10.804-16.901.105-.11.231-.22.337-.33 9.809-8.8 21.378-13.55 34.667-14.25 2.176-.11 4.36.723 5.972 2.269 1.612 1.562 2.511 3.713 2.478 5.895l-.69 44.778-15.46-.86.544-35.307c-6.198 1.607-11.775 4.622-16.752 9.043-3.095 3.203-5.602 7.282-7.624 12.182-.044.13-.108.259-.172.387-2.419 5.06-3.592 11.298-3.705 18.62l-15.46-.86c.15-9.702 1.891-17.91 5.061-24.666z" fill="#fda31f"/><path d="M1772.583 1312.666c-7.483-9.118-11.228-20.113-11.029-33.056l15.46.86c-.136 8.877 2.253 16.455 7.398 22.697l.183.225c4.02 5.253 10.561 9.587 19.494 13.327l.634-41.175 15.46.86-.795 51.622c-.037 2.397-1.19 4.6-3.116 5.964-1.906 1.35-4.397 1.724-6.706.984-17.85-5.725-30.057-13.37-36.983-22.308zM1849.112 1396.682l-.57 37.009-15.46-.86.715-46.398c.034-2.265 1.061-4.358 2.801-5.734 1.762-1.374 4.048-1.892 6.278-1.404 21.532 4.722 35.83 12.483 43.385 22.217l.162.24c7.342 10.203 10.955 21.72 10.757 34.58-.11 7.19-1.082 13.803-2.853 19.826l-14.859-4.947c1.42-4.784 2.164-10.037 2.252-15.74.142-9.24-2.382-17.52-7.613-24.858-4.754-6.055-13.157-10.526-24.995-13.931z" fill="#fda31f"/><path d="M1803.035 1385.134c-71.57-19.98-105.142-56.723-102.713-108.154 1.099-31.024 11.428-54.752 30.513-71.391 17.47-15.224 42.532-24.533 75.388-27.469l.414-26.893c.066-4.271 3.576-7.543 7.84-7.306l12.665.705-.238 15.472-4.926-.275-.4 25.951c-.06 3.934-3.05 7.077-6.968 7.305-32.24 1.961-56.764 9.894-73.372 24.371-16.167 14.106-24.517 34.403-25.462 60.804-2.18 46.068 30.783 76.523 96.724 93.56 3.59.928 6.148 4.246 6.092 7.916l-1.647 106.928a7.47 7.47 0 01-2.613 5.579c-1.637 1.381-3.8 1.972-5.97 1.653-19.323-2.895-35.648-8.138-48.956-15.612-11.716-5.946-22.17-13.096-31.383-21.467l-30 23.311c14.144 10.945 29.866 20.39 47.102 28.347 20.119 9.06 41.31 14.343 63.596 15.881 4.242.302 7.583 3.93 7.518 8.16l-.677 43.985 5.257.293-.238 15.455-12.998-.723c-4.263-.238-7.666-3.885-7.6-8.15l.68-44.232c-21.425-2.251-41.888-7.79-61.451-16.605-21.864-10.085-41.333-22.385-58.488-36.889-1.8-1.522-2.863-3.782-2.868-6.115a7.366 7.366 0 012.825-5.914l42.748-33.206c3.019-2.363 7.446-2 10.26.852 9.2 9.297 20.017 17.062 32.39 23.326l.33.167c9.857 5.562 21.6 9.656 35.21 12.35l1.416-91.97z" fill="#fda31f"/><g><path d="M1821.69 1088.192c121.125 0 218.41 125.97 218.41 280.113 0 154.135-97.285 280.104-218.41 280.104-4.415 0-8.004 3.584-8.004 7.999 0 4.415 3.59 8.007 8.004 8.007 128.79 0 234.403-132.224 234.403-296.11 0-163.895-105.612-296.11-234.403-296.11-4.415 0-8.004 3.583-8.004 7.998s3.59 7.999 8.004 7.999z" fill="#fda425"/></g><g><path d="M1821.69 1648.41c-121.132 0-218.41-125.97-218.41-280.105 0-154.144 97.278-280.113 218.41-280.113a8 8 0 000-15.997c-128.79 0-234.41 132.215-234.41 296.11 0 163.886 105.62 296.11 234.41 296.11 4.416 0 7.997-3.592 7.997-8.007a8 8 0 00-7.997-7.999z" fill="#fda425"/></g><path d="M2055.952 1687.938h-114.58c-4.41 0-8-3.59-8-8 0-4.42 3.59-8 8-8h137.63c.93 0 1.82.16 2.65.45a284.5 284.5 0 01-25.7 15.55zm130.72-134.71c-2.9 5.43-5.91 10.77-9.05 16h-110.03c-4.42 0-8-3.58-8-8s3.58-8 8-8h119.08zm21.71-48.84c-1.96 5.41-4.04 10.74-6.21 16h-123.17c-4.42 0-8-3.58-8-8 0-4.41 3.58-8 8-8h129.38zm22.89-162.39c.34 5.31.57 10.64.7 16h-109.87c-4.42 0-8-3.58-8-8 0-4.41 3.58-8 8-8h109.17zm-17.48-94.18a403.45 403.45 0 014.68 16h-119.7c-4.41 0-8-3.58-8-8 0-4.41 3.59-8 8-8h115.02zm-16.42-42.75c2.39 5.26 4.68 10.59 6.84 16h-109.75c-4.41 0-8-3.58-8-8 0-4.41 3.59-8 8-8h102.91zm-106.43-132.87c6.9 5.02 13.61 10.35 20.13 16h-126.6c-4.41 0-8-3.59-8-8 0-4.42 3.59-8 8-8h106.47z" fill="#ffcd80"/><g><path d="M1570.522 441.508c7.077-24.412 27.247-94.193 41.802-125.375l83.78 45.45s-36.096 130.41-43.879 167.807l-97.442-23.172c2.959-20.376 8.617-40.15 15.739-64.71z" fill="#82b5b2"/><circle cx="1770.83" cy="476.611" r="26.204" fill="#a8cfcc" fill-opacity=".63" transform="matrix(1.10834 0 0 1.15995 -347.748 -114.988)"/><path d="M1594.252 475.232c4.73-13.185 31.12-81.574 47.4-102.127l75.83 42.618s-40.87 108.596-50.19 139.865l-89.82-24.437c3.88-17.1 9.38-35.298 16.78-55.918z" fill="#a8cfcc"/><circle cx="1770.83" cy="476.611" r="26.204" fill="#82b5b2" transform="matrix(1.10834 0 0 1.15995 -315.949 -83.886)"/></g><g><circle cx="1999.85" cy="425.164" r="59.449" fill="#e86135" transform="translate(-320.568 -41.221) scale(1.07753)"/><path d="M1791.722 369.093c11.33-10.1 26.26-16.244 42.61-16.244 35.36 0 64.06 28.704 64.06 64.058 0 12.13-3.38 23.478-9.24 33.15-47.57-21.372-40.6-72.933-40.6-72.933-26.15 8.543-45.68-.109-56.83-8.03z"/><path d="M1672.82 1264.73s-18.73-36.24 0-63.39l-33.25-58.42s-16.16-10.35-34.51-22.11c-41.49-26.59-65.29-73.58-62.18-122.751.24-3.747.67-7.183 1.32-10.188-19.08-18.002-34.84-58.408-29.04-97.069v-.001c8.07-53.847 52.8-94.65 107.16-97.747 87.48-4.962 237.61-8.353 329.91 18.116l-20.76-51.682s-147.7 52.815-185.11-68.47c-84.79 34.238-179.21 59.266-272.57 72.809-39.03 5.68-77.54-13.243-96.89-47.614l-.04.024c-16.37-29.072-11.14-65.517 12.74-88.817 24.01-23.165 64.96-53.131 134.89-87.607l111.07-58.733a68.3 68.3 0 0159.08-2.293c40.41 17.502 107.17 46.425 107.17 46.425l7.8-19.687c46.36 7.72 91.91 21.764 136.57 39.144a171.517 171.517 0 01100.31 105.422c39.72 118.9 114.72 347.191 124.56 404.379h28.12c15.8 0 29.49 10.96 32.94 26.38 2.69 12.05 5.29 23.68 5.29 23.68s17.91 20.03 23.15 38.39c2.13 7.48-9.8 16.2-23.15 2.19-3.95-4.15-42.31-34.42-59.54-36.31-13.18-1.45-24.84-2.96-35.71-4.29a109.067 109.067 0 01-80.28-52.2c-11.56-19.28-22.19-37.02-22.19-37.02s-36.04 57.8-134.97 47.37l15.37 199.8s-19.74-4.67-26.34-36.93c0 0-111.49-14.85-174.99-41.74 0 0-25.05 24.87-45.93 80.94z" fill="url(#_Linear3)" transform="translate(-112.988 -33.663)"/><path d="M2057.542 1017.947c.19 1 .36 1.95.52 2.86h13.31c6.44 4.52 16.23 11.62 26.84 20.08l3.41-3.84c1.47-1.65 4-1.8 5.65-.33a3.99 3.99 0 01.33 5.64l-3.17 3.57c6.02 4.97 12.14 10.29 17.93 15.75l2.05 9.19-65.17-48.7a3.994 3.994 0 01-1.7-4.22zM1677.212 1172.388l55.39-157.26a5.002 5.002 0 016.38-3.06c2.6.92 3.97 3.77 3.06 6.38l-55.04 156.24c-3.25-.74-6.51-1.51-9.79-2.3zm-150.63-63.13s21.44 11.53 39.89 21.07c23.38 12.11 47.87 23.43 39.29 19.8 0 0-2.39 2.38-6.31 7.31-21.03-9.42-45.24-22.12-63.8-32.24l-9.07-15.94zm-103-163.684c16.05-76.985 76.05-120.726 145.85-145.056 98.66-34.392 216.79-29.731 253.74-27.19 5.43 1.278 13.32 2.97 18.4 4.422.29.719 2.52 2.099 2.44 2.92-.29 2.745 3.52 4.755.77 4.472 0 0-153.42-9.694-272.06 24.819-73.66 21.426-124.58 74.805-141.51 144.248-2.62-2.475-5.18-5.374-7.63-8.635z" fill="#d7441e"/><path d="M1792.612 1038.888c-18.43-2.83-41.81-10.5-66.47-20.53-72.26-29.36-155.91-78.497-155.91-78.497-2.38-1.398-3.17-4.465-1.78-6.844a5.01 5.01 0 016.85-1.779s82.94 48.74 154.6 77.86c25.86 10.51 64.06 20.13 61.82 19.9l.89 9.89z" fill="#8a2208"/><g><path d="M1833.542 763.3l-15.06-37.474s-147.7 52.814-185.11-68.47c-84.79 34.237-179.21 59.265-272.57 72.808-39.03 5.68-77.54-13.243-96.89-47.614l-.04.024c-16.37-29.072-11.14-65.516 12.74-88.817 24.01-23.164 64.96-53.13 134.89-87.606l111.07-58.734a68.3 68.3 0 0159.08-2.293c40.41 17.502 107.17 46.425 107.17 46.425l7.8-19.687c46.36 7.72 91.91 21.764 136.57 39.144a171.517 171.517 0 01100.31 105.423c23.86 71.41 60.44 182.282 87.98 271.837l-115.12 35.106c-24.97-52.366-50.29-104.308-72.42-160.005l-.4-.067z" fill="#d7441e"/><path d="M1797.062 731.695c-3.66-18.284-4.52-37.474-4.18-57.05a2.257 2.257 0 011.85-2.19 2.27 2.27 0 012.52 1.37c9.76 23.79 33.66 82.016 33.66 82.016h-.37l-12.06-30.015s-8.29 2.962-21.42 5.87zm-316.5-118.306l-122.89 69.227a5.003 5.003 0 00-1.91 6.81 5.013 5.013 0 006.82 1.902l122.89-69.226a4.991 4.991 0 001.9-6.81 5 5 0 00-6.81-1.903zm126.93 54.02c4.65-33.634 15.71-57.217 23.41-70.227a1.763 1.763 0 013.13 1.536c-7.95 28.58-1.12 56.82-.68 58.553l.02.085c-8.53 3.444-17.16 6.795-25.88 10.053z" fill="#8a2208"/></g><g><path d="M1529.86 536.974l105.7-55.894a68.3 68.3 0 0159.08-2.293l104.26 45.166c.7.466 1.34.886 1.91 1.259 17.38 11.389 3.65 22.649-1.21 21.042 11.87 5.641 11.47 15.015 8.67 19.077-4.61 6.701-21.11 4.256-21.11 4.256 4.59 1.637 8.8 10.594 5.24 17.238-5.72 10.681-21.37 4.192-21.37 4.192 2.84 14.895-12.56 14.944-31.35 10.965-14.55-3.081-21.22-6.341-33.6-9.429-20.01 53.358-79.76 47.195-79.76 47.195l-39.37 22.32-57.09-125.094z" fill="url(#_Linear4)" transform="translate(-112.988 -33.663)"/><path d="M1658.102 557.664l-66.91-25.972a4 4 0 01-2.28-5.178 4.005 4.005 0 015.18-2.28l82.8 32.143c-6.82 5.965-18.85.978-18.85.978l.06.31zm17.08-21.256l-76.07-29.533a3.998 3.998 0 01-2.28-5.176 4.007 4.007 0 015.18-2.281l87.19 33.85c.8.31 1.44.848 1.88 1.513-6.6 2.672-16.91 1.144-16.91 1.144.34.121.68.284 1.01.483zm12.24-23.67l-79.19-30.744a4.004 4.004 0 01-2.29-5.177 4.005 4.005 0 015.18-2.28l84.28 32.719c-1.75 3.447-5.52 5.628-7.98 5.481z" fill="#d7441e"/></g></g><g><path d="M1447.641 1663.84c-5.66-3.81-9.4-10.28-9.4-17.61v-42.41c0-11.7 9.5-21.2 21.21-21.2h322.01c11.7 0 21.2 9.5 21.2 21.2v42.41c0 7.33-3.73 13.8-9.4 17.61 5.67 3.81 9.4 10.28 9.4 17.61v42.41c0 11.71-9.5 21.21-21.2 21.21h-322.01c-11.71 0-21.21-9.5-21.21-21.21v-42.41c0-7.33 3.74-13.8 9.4-17.61z" fill="#ffdba3"/><path d="M1706.42 1655.25h94.23a21.219 21.219 0 01-7.39 8.59c.65.44 1.27.91 1.87 1.41h-30.53v79.82h-10v-79.82h-83.589v79.82h-10v-79.82h-12.76v79.82h-10v-79.82h-129.12v79.82h-10v-79.82h-53.35c.59-.5 1.21-.97 1.86-1.41a21.27 21.27 0 01-7.38-8.59h117.05v-72.63h10v72.63h12.76v-72.63h10v72.63h106.35v-72.63h10v72.63z" fill="#fda425"/></g></g><defs><linearGradient id="_Linear1" x1="0" y1="0" x2="1" y2="0" gradientUnits="userSpaceOnUse" gradientTransform="rotate(90.203 -185.863 1168.002) scale(571.5896)"><stop offset="0" stop-color="#a8cfcc"/><stop offset="1" stop-color="#59a09b"/></linearGradient><linearGradient id="_Linear2" x1="0" y1="0" x2="1" y2="0" gradientUnits="userSpaceOnUse" gradientTransform="rotate(87.02 44.153 1006.493) scale(508.1289)"><stop offset="0" stop-color="#82b5b2"/><stop offset=".45" stop-color="#a7c6c1"/><stop offset="1" stop-color="#fff0e6"/></linearGradient><linearGradient id="_Linear3" x1="0" y1="0" x2="1" y2="0" gradientUnits="userSpaceOnUse" gradientTransform="scale(-753.69) rotate(41.545 .457 -4.142)"><stop offset="0" stop-color="#e86135"/><stop offset=".48" stop-color="#ee734f"/><stop offset="1" stop-color="#ffa396"/></linearGradient><linearGradient id="_Linear4" x1="0" y1="0" x2="1" y2="0" gradientUnits="userSpaceOnUse" gradientTransform="scale(268.771) rotate(-81.34 4.371 -2.529)"><stop offset="0" stop-color="#e86135"/><stop offset="1" stop-color="#ffa396"/></linearGradient></defs></svg>