<svg viewBox="0 0 2732 2048" xmlns="http://www.w3.org/2000/svg" fill-rule="evenodd" clip-rule="evenodd" stroke-linejoin="round" stroke-miterlimit="2"><path d="M1543.42 1691.816v-652.34h-32.13v652.34h32.13zm624.48 0v-652.34h-32.13v652.34h32.13z" fill="#babec2"/><path d="M1543.42 1095.776l-32.13.69v-56.99h32.13v56.3zm624.48-54.21v40.73l-32.13.69v-41.53l32.13.11z"/><path fill="#babec2" d="M1370.12 1025.347h941.6v24.667h-941.6z"/><path d="M1383.36 1026.276c11.58-48.728 51.93-84.735 99.87-84.735 47.94 0 88.29 36.007 99.87 84.735h-199.74z" fill="#b9d8d6"/><path d="M1547.39 1026.276c-15.93-37.209-41.03-44.775-41.03-44.775a4.01 4.01 0 01-2.74-4.954 4.012 4.012 0 014.96-2.732s29.96 8.325 47.48 52.461h-8.67zM1580.46 1026.276c2.97 59.35 10.04 152.82 27.44 202.23 3.83 10.87 8.1 19.54 13.05 25.01 4.04 4.48 8.48 6.64 13.55 5.21 4.89-1.38 9.94-4.95 14.66-9.69-.22-.32-.43-.64-.64-.97-6.18-9.64-9.45-24.77-9.18-38.03.14-7.25 1.35-13.94 3.58-18.93 1.98-4.44 4.81-7.63 8.27-9.22 3.6-1.66 8-1.75 13.2.77 12.79 6.19 15.57 20.05 11.7 35.22-2.75 10.74-8.8 22.1-16.19 31.16 1.15.86 2.39 1.49 3.73 1.83 3.3.83 7.03-.28 11.29-3.49 3.53-2.65 6.51-7.43 9.22-13.68 4.47-10.31 7.97-24.44 10.76-40.52 11.07-63.75 10.76-157.51 11.23-168.65.09-2.2 1.96-3.92 4.17-3.83 2.2.1 3.92 1.97 3.82 4.17-.47 11.21-.2 105.54-11.34 169.68-2.92 16.8-6.63 31.56-11.3 42.33-3.38 7.8-7.35 13.59-11.75 16.9-6.75 5.07-12.83 6.16-18.05 4.85-2.55-.64-4.95-1.89-7.14-3.66-5.74 5.68-11.96 9.79-17.86 11.46-8.02 2.26-15.28-.47-21.67-7.55-5.49-6.08-10.4-15.63-14.66-27.71-17.63-50.08-24.89-144.91-27.9-204.89h8.01zm74.2 216.51c6.24-7.95 11.32-17.67 13.67-26.89 2.83-11.07 1.91-21.52-7.42-26.04-2.53-1.22-4.63-1.51-6.38-.7-1.88.87-3.22 2.78-4.31 5.21-1.86 4.17-2.76 9.77-2.88 15.83-.23 11.25 2.28 24.07 7.32 32.59zm-76.73-232.95c1.09.67 1.85 1.85 1.91 3.23l.1 2.23c-.63-1.84-1.3-3.67-2.01-5.46z" fill="#82b5b2"/><ellipse cx="1812.14" cy="1316.14" rx="81.181" ry="105.537" fill="#fff" transform="translate(46.456 11.964)"/><path d="M1859.133 1210.968v18.29c-43.062.84-76.779 45.31-76.779 98.93 0 53.61 33.717 98.08 76.78 98.92v18.3c-52.022-.82-95.076-52.56-95.076-117.22 0-64.67 43.054-116.41 95.075-117.22z"/><path d="M1859.13 1210.966l1.29-.04c52.59 0 96.36 52.06 96.36 117.26s-43.77 117.26-96.36 117.26l-1.29-.04v-18.3l1.29.05c43.68 0 78.06-44.82 78.06-98.97s-34.38-98.97-78.06-98.97l-1.29.04v-18.29z"/><path d="M1861.23 1325.756c4.6 0 8.34 3.73 8.34 8.34 0 4.6-3.74 8.34-8.34 8.34-4.61 0-8.35-3.74-8.35-8.34 0-4.61 3.74-8.34 8.35-8.34zm14.33-10.94l28.08-54.37c1.01-1.96.24-4.38-1.72-5.39a4.004 4.004 0 00-5.39 1.72l-28.08 54.37a3.99 3.99 0 001.72 5.39 4.01 4.01 0 005.39-1.72zm-37.23-44.76l10.68 42.14a3.995 3.995 0 004.86 2.89 4 4 0 002.89-4.86l-10.67-42.13a3.998 3.998 0 00-4.86-2.9 4.006 4.006 0 00-2.9 4.86z"/><path fill="#a8cfcc" d="M2252.078 1215.778l110.115 56.539-74.416 144.933-110.115-56.539z"/><path d="M2285.18 1398.196l18.7 9.59c1.97 1.01 4.38.23 5.39-1.73 1.01-1.97.23-4.38-1.74-5.39l-18.7-9.59c-1.97-1-4.38-.23-5.39 1.74-1 1.96-.23 4.38 1.74 5.38zm11.57-22.57l18.71 9.58a3.996 3.996 0 103.65-7.11l-18.71-9.59a3.999 3.999 0 00-5.38 1.73 4.01 4.01 0 001.73 5.39zm11.58-22.58l18.7 9.59c1.97 1 4.38.23 5.39-1.74 1.01-1.96.23-4.37-1.74-5.38l-18.7-9.59a4.007 4.007 0 00-5.39 1.73 4.02 4.02 0 001.74 5.39zm11.58-22.58l18.7 9.59c1.96 1.01 4.38.23 5.38-1.74 1.01-1.96.23-4.37-1.73-5.38l-18.71-9.59a3.999 3.999 0 10-3.64 7.12zm11.57-22.58l18.71 9.59c1.96 1.01 4.37.23 5.38-1.74 1.01-1.96.23-4.37-1.73-5.38l-18.71-9.59a3.996 3.996 0 00-5.38 1.73 4.007 4.007 0 001.73 5.39zm11.26-21.97l18.71 9.59a3.996 3.996 0 103.65-7.11l-18.71-9.59a3.996 3.996 0 10-3.65 7.11z"/><g><path d="M2000.557 1238.751l169.599 40.248-9.026 25.29-160.573-65.538z" fill="#fff"/><path fill="#f27f71" d="M1996.955 1233.812l176.917 63.136-80.29 224.986-176.917-63.136z"/><path d="M2162.254 1280.691l-162.59-37.66a4.02 4.02 0 01-3-4.81 4 4 0 014.8-2.99l166.9 38.66c1.1.26 2.04.97 2.59 1.95.55.99.66 2.16.29 3.24l-9.1 26.78a3.998 3.998 0 01-5.07 2.5 4.008 4.008 0 01-2.5-5.08l7.68-22.59z" fill="#f27f71"/></g><g><path fill="#fff" d="M2082.64 1305.616h222.202v265.57H2082.64z"/><path d="M2284.68 1540.966h-183.69v11.88h183.69v-11.88zm0-21.77h-183.69v11.88h183.69v-11.88zm0-21.77h-183.69v11.88h183.69v-11.88zm0-21.77h-183.69v11.88h183.69v-11.88zm0-21.77h-183.69v11.88h183.69v-11.88zm0-21.77h-183.69v11.88h183.69v-11.88zm0-21.77h-183.69v11.88h183.69v-11.88zm0-21.77h-183.69v11.88h183.69v-11.88zm0-21.77h-183.69v11.88h183.69v-11.88zm0-21.77h-183.69v11.88h183.69v-11.88zm0-21.8h-183.69v11.88h183.69v-11.88z"/><path d="M2086.64 1567.186h107.88c2.2 0 4 1.79 4 4s-1.8 4-4 4h-111.88c-2.21 0-4-1.79-4-4v-265.57c0-2.21 1.79-4 4-4h106.23c2.2 0 4 1.79 4 4s-1.8 4-4 4h-102.23v257.57z"/><path d="M2300.84 1309.616h-111.97c-2.21 0-4-1.79-4-4s1.79-4 4-4h115.97c2.21 0 4 1.79 4 4v265.57c0 2.21-1.79 4-4 4h-110.32c-2.21 0-4-1.79-4-4s1.79-4 4-4h106.32v-257.57z"/></g><g><path fill="#ffd798" d="M1750.622 1341.47h593.887v354.898h-593.887z"/><path d="M2114.66 1341.476v158.78l-18.72-14.73-17.54 14.73-17.8-14.73-17 14.73-15.63-14.73-16.38 14.73v-158.78h103.07z" fill="#f8bb61"/></g><g><circle cx="807.732" cy="496.367" r="81.311" fill="#ffc3bb" transform="translate(-10.773 -16.253) scale(1.03135)"/><path d="M776.291 565.794c-22.808-14.998-37.874-40.814-37.874-70.121 0-46.283 37.577-83.86 83.861-83.86 10.436 0 20.431 1.91 29.655 5.403l-43.82 86.072c-3.27-5.55-9.452-9.296-16.532-9.296-10.49 0-19.006 8.22-19.006 18.348 0 10.126 8.516 18.348 19.006 18.348.908 0 1.802-.062 2.675-.181l-17.965 35.287z"/><path d="M803.058 421.286s-11.867 31.633-11.415 45.003c.241 7.13 6.227 12.725 13.358 12.484 7.131-.241 12.725-6.227 12.484-13.357-.452-13.37-14.427-44.13-14.427-44.13z" fill="#fff"/><path d="M762.983 1425.34c-43.344 3.82-96.913 4.04-159.875-4.03-42.774-5.48-185.591-50.36-149.518-236.97 7.131-36.89 43.024-128.06 195.587-135.99 44.526-2.32 355.673-38.12 480.323 99.27 2.44 2.7 5.59 6.3 9.13 10.95 42.33 19.21 164.72 85.53 160.05 208.59 0 0-9.67 137.84-188.55 197.26-13.22 29.61-28.74 61.21-46.87 94.86 0 0 40.76 10.9 51.09 33.81H799.837l18.827-59.59-19.563 4.62c-.186 20.72-19.576 41.4-36.118 56.32v-269.1z" fill="url(#_Linear1)" transform="translate(36.514 2.952)"/><path d="M841.074 1639.782l17.388-220.16a4.003 4.003 0 014.302-3.67 3.998 3.998 0 013.673 4.3l-17.185 217.6-8.178 1.93zM893.9 1409.242l38.425-7.44s14.117-45.56 23.803-76.83a3.957 3.957 0 00-7.127-3.28c-20.981 33.34-55.101 87.55-55.101 87.55" fill="#f27f71"/><path d="M799.497 1428.292c-9.666.85 77.641-16.25 128.507-31.54 3.181-.96 6.823-1.5 6.823-1.5s-1.428 5.16-1.89 6.57l-61.295 187.66 266.572-3.62a1837.2 1837.2 0 01-3.79 8.05l-264.765 3.6c-.213 0-.422-.02-.626-.05l-13.855 38.99-7.906 1.87 75.706-231.77c-39.979 11.6-80.392 21.7-123.481 28v-6.26zm347.287 139.03c119.02-252.79 26.14-408.72 28.36-405.8 3.06 1.39 6.55 3.03 10.39 4.92 24.61 47.9 70.82 181.91-28.22 397.22-3.43 1.25-6.95 2.47-10.53 3.66z" fill="#f27f71"/><g><path d="M726.825 601.04c185.031 1.975 317.069 27.206 471.409 39.739 46.63 3.787 153.47 30.525 128.48 126.517-9.48 36.42-42.5 61.738-80.13 61.447l-154.26-1.193s70.64 60.096 217.71 62.227c0 0 162.13 13.744 177.33 14.359 26.86 1.088 42.93 1.504 57.67 2.347a8.504 8.504 0 016.14 13.788c-3.06 3.808-9.22 8.11-20.79 12.464-21.12 7.949-37.65 8.639-53.89 13.422 1.22-2.715 26.37 20.973 41.1 36.18a11.784 11.784 0 012.76 11.532 11.777 11.777 0 01-8.69 8.074c-3.18.723-7.02.882-11.61.066 8.74 8.523-1.47 22.653-28.97 8.773-7.22-3.64-9.71-4.65-28.28-16.127 0 0 5.93 10.657 9.41 16.917.92 1.66 1.12 3.63.53 5.44a6.862 6.862 0 01-3.61 4.11c-3.82 1.78-9.85 2.35-18.81-2.34-13.62-7.11-22.88-11.02-31.38-14.52a26.398 26.398 0 00-23.95 1.97c-29.69 18.33-122.41 60.99-297.99 20.92 0 0-105.192-13.91-242.739-102.903-3.659-14.495-174.641 187.223-326.31 17.109-59.739-67.006-72.096-343.421 218.87-340.317z" fill="#ffc3bb"/><path d="M1443.034 995.056c-26.78-35.526-45.67-36.331-45.67-36.331a3.999 3.999 0 01-3.93-4.063 3.994 3.994 0 014.06-3.936s25.53-.195 59.03 49.49c.63.945.81 2.066.59 3.096-3.43-2.002-7.92-4.711-14.31-8.657l.23.4zm57.02 6.953c.3.295-36.63-31.881-41.27-36.931-15.8-17.212-27.36-25.266-35.02-28.96-5.73-2.766-9.35-2.821-9.49-2.822.05-.005.1-.012.14-.02l-.14.02a3.998 3.998 0 01-4.45-3.318 4.001 4.001 0 013.3-4.596s16.83-3.52 51.56 34.284c5.16 5.623 30.4 29.533 47.89 42.035-.3.092-.6.173-.91.242-3.18.723-7.02.882-11.61.066zm-74.23-102.585c7.34.599 14.42 1.17 21.01 1.699 5.68 4.06 11.5 9.539 16.77 16.926 3.67 5.145 10.84 15.592 23.65 25.434-3.28.7-6.52 1.463-9.74 2.378-10.68-9.243-16.99-18.358-20.42-23.167-10.31-14.454-22.97-20.642-31.27-23.27z" fill="#f27f71"/></g><g><path d="M1006.27 1016.82c-41.795-11.01-118.178-37.071-208.519-95.523-1.657-12.255-177.177 193.283-326.31 17.109-58.827-69.494-72.096-343.421 218.87-340.317 185.031 1.974 317.069 27.205 471.409 39.738 46.63 3.787 153.47 30.525 128.48 126.517-9.48 36.42-42.5 61.738-80.13 61.447l-154.26-1.193s50.32 42.809 154.43 57.445l-23.36 158.667c-26.32.56-56.12-1.06-89.57-5.88-27.55-5.47-59.14-11.73-91.04-18.01z" fill="url(#_Linear2)" transform="translate(36.514 2.952)"/><path d="M806.802 943.981c-22.668-27.151-34.484-57.163-39.787-73.777a3.113 3.113 0 015.307-2.927c25.165 27.186 56.375 52.508 61.281 56.443-2.519.161-12.02 8.614-26.8 20.261zm285.658-116.319l.01.011.04.032.07.058.04.031.03.031.05.04.08.06.07.057.06.052.05.042.07.056.12.092.09.076.05.037.06.044.18.141.12.098.03.026.04.027.3.237.11.083.01.008.51.393.04.024.17.131.31.237.07.05c.16.122.34.249.51.38l.03.017.03.026 1.32.966.09.06.2.148.11.075.03.025.09.064.18.124.09.068.06.042.13.089.14.104.08.054.08.059.17.117.12.083.05.038.11.074.21.149.09.062.03.02.11.079.28.193.06.041c-46.92-29.469-130.78-91.891-186.026-134.763a5.003 5.003 0 01-.885-7.016 5.003 5.003 0 017.016-.884c57.133 44.337 145.045 109.78 190.285 137.357l-17.71-.137.11.095.03.017zm24.9-150.826l137.73 3.909a5.01 5.01 0 005.14-4.856 5.01 5.01 0 00-4.86-5.14l-137.73-3.909a5.002 5.002 0 00-5.14 4.856 5.004 5.004 0 004.86 5.14z" fill="#ac2310"/></g><path d="M978.217 692.099c-20.138-46.146-114.712-85.351-114.712-85.351l38.355 3.1c42.651 19.38 74.134 53.07 86.517 67.757 4.721.633 16.468 2.424 16.66 4.59.241 2.712 1.878 48.248 1.878 48.248-.15.074-.299.147-.447.218l1.322.086c23.627 43.728 15.03 105.71 48.754 142.964 10.68 11.795 24.65 22.88 39.93 27.956 17.75 5.895 36.18 5.625 54.6 4.543 4.87-.286 16.7-1.148 22.65-1.587a6.422 6.422 0 015.65 2.61c5.1 6.962 18.15 24.786 24.5 33.449a7.106 7.106 0 01-.66 9.18c-8.75 8.908-28.57 29.089-35.31 35.939a6.39 6.39 0 01-5.61 1.83c-3.9-.6-10.11-1.61-12.44-2.281-13.55-3.913-26.91-8.501-39.94-13.902-37.28-15.444-76.696-39.79-92.929-78.275-9.483-22.481-10.918-46.475-10.814-70.544.091-21.218 2.572-43.545-1.857-64.49-1.722-8.146-5.55-15.775-9.326-23.131-.087-.17-.436-.736-.877-1.475-17.778-.638-25.992-23.34-25.992-23.34l10.098-18.094z"/><g><path d="M1157.874 827.768l-36.11-160.694s-34.3-2.041-54.66-5.71c0 0-49.944-16.241-85.004-4.686-5.701 1.879-23.305 11.512-35.295 34.656-5.007 9.662 11.496 15.936 30.524 0 3.89-3.258 11.361-7.037 19.133-7.686 0 0-24.277 18.996 0 34.937 0 0-4.981 16.918 16.06 20.442 0 0-3.13 25.294 35.482 49.687 11.06 6.992 96.93 41.862 109.87 39.054z" fill="#ffc3bb"/><path d="M1005.67 737.085c3.208-9.254 10.269-14.783 17.08-18.018 7.876-3.742 15.334-4.336 15.334-4.336a3.997 3.997 0 014.31 3.658 4.004 4.004 0 01-3.66 4.315s-6.052.617-12.551 3.589c-10.134 4.634-13.661 12.734-13.661 12.734-2.687-.45-4.95-1.118-6.852-1.942zm-14.997-23.235c4.347-7.548 11.102-12.428 17.945-15.525 11.221-5.08 22.564-5.294 22.564-5.294a4.002 4.002 0 014.079 3.919 4.003 4.003 0 01-3.919 4.08s-9.762.208-19.425 4.583c-6.141 2.779-15.455 12.972-15.455 12.972-2.369-1.556-4.276-3.141-5.789-4.735zm-7.968-26.033a3.974 3.974 0 01.75-1.936c12.406-16.951 39.624-18.045 39.624-18.045a4.003 4.003 0 014.129 3.868 4.002 4.002 0 01-3.868 4.128s-8.431.289-17.478 3.65c-5.164 1.919-9.4 4.166-9.4 4.166-5.001.417-9.878 2.13-13.757 4.169z" fill="#f27f71"/></g><path d="M733.469 601.04s39.591 2.325 96.36 35.439c17.667 10.305 60.864 38.965 113.301 55.059 19.916 6.112 29.575 1.578 36.298 3.595l-7.481 17.833s-33.488-3.474-46.088-8.023c0 0-158.455-99.751-192.39-103.902z"/></g><g><path fill="#ffd798" d="M511.028 1428.607h375.118v267.76H511.028z"/><path d="M584.031 1696.376h-8v-267.77h8v267.77zm175.638-267.77v138.85l-23.147-16.5-22.87 16.5v-138.85h46.017zm-197.307 0v92.75l-18.323-27.91-12.579 11.8v-76.64h30.902z" fill="#f8bb61"/></g><g><path d="M1859.18 889.92h-258.83V471.785h628.35V889.92h-271.98v107.666h35.18v28.67h-167.61v-28.67h34.89V889.92z" fill="#a3a8ae"/><path d="M2212.12 471.785V889.92h-271.98v107.666h35.18v28.67h-151.03v-28.67h34.89V889.92h-258.83V471.785h611.77z" fill="#e4e4e6"/><path fill="#fff" d="M1631.66 503.762h551.53V847.81h-551.53z"/><path d="M1940.29 996.716h13.54a4.008 4.008 0 01-2.65 1.003l-91.85-1.003v-6.997h80.96v6.997zm0-98.733h-80.96v-8h80.96v8z" fill="#a3a8ae"/></g><g><path fill="#fff3eb" d="M1702.75 346.52h313.404v383.984H1702.75z"/><circle cx="1888.99" cy="434.327" r="49.352" fill="#f27f71" transform="translate(49.58 -13.9)"/><path d="M1898.76 449.591c9.33-9.305 22.64-15.133 37.42-15.133 16.19 0 30.64 7.004 39.99 17.917-9.05 10.646-22.55 17.403-37.6 17.403-16.34 0-30.82-7.95-39.81-20.187z" fill="#ffcfc8"/><circle cx="1901.22" cy="406.242" r="17.271" fill="#ffcfc8" transform="translate(36.257 4.703)"/><path d="M1920.21 411.053v-.108c0-9.532 7.74-17.27 17.27-17.27s17.27 7.738 17.27 17.27v.095c-11.71.102-17.27-12.08-17.27-12.08-3.1 10.002-12.15 11.87-17.27 12.093z"/><path d="M1975.82 686.36h-215.8v12.26h215.8v-12.26zm0-25.955h-215.8v12.261h215.8v-12.26zm0-25.188h-215.8v12.261h215.8v-12.26zm-8.5-34.287h-233.29v19.915h233.29V600.93zm8.5-37.003h-215.8v12.261h215.8v-12.26zm0-25.954h-215.8v12.261h215.8v-12.26zm0-25.188h-215.8v12.261h215.8v-12.26zm-76.48-43.547h-165.31v19.915h165.31v-19.915zm-29.17-37.019h-130.58v8.9h130.58v-8.9zm-33.49-17.569h-97.09v8.901h97.09v-8.9zm25.88-18.84h-122.97v8.9h122.97v-8.9zm13.55-18.286h-136.52v8.901h136.52v-8.9z" fill="#f27f71"/></g><g><path fill="#a8cfcc" d="M1908.62 640.828h251.624v146.204H1908.62z"/><path d="M2160.24 650.422l-123.57 83.398a4.01 4.01 0 01-4.48 0l-123.57-83.367v-9.625h.03l125.78 84.851 125.73-84.85h.08v9.593z" fill="#82b5b2"/></g><g><path d="M1856.366 827.602l-18.665-21.263 23.623-20.737-17.33-19.744 87.414-22.952-34.087 83.704-17.332-19.745-23.623 20.737z" fill="#f27f71"/></g><defs><linearGradient id="_Linear1" x1="0" y1="0" x2="1" y2="0" gradientUnits="userSpaceOnUse" gradientTransform="rotate(19.456 -2941.964 3021.485) scale(923.316)"><stop offset="0" stop-color="#ffc3bb"/><stop offset="1" stop-color="#f27f71"/></linearGradient><linearGradient id="_Linear2" x1="0" y1="0" x2="1" y2="0" gradientUnits="userSpaceOnUse" gradientTransform="scale(-591.352) rotate(-30.399 -2.623 1.62)"><stop offset="0" stop-color="#f27f71"/><stop offset=".58" stop-color="#ec6e5f"/><stop offset=".8" stop-color="#e04b39"/><stop offset="1" stop-color="#d52914"/></linearGradient></defs></svg>