<svg viewBox="0 0 2732 2048" xmlns="http://www.w3.org/2000/svg" fill-rule="evenodd" clip-rule="evenodd" stroke-linejoin="round" stroke-miterlimit="2"><path fill="#fff0e6" d="M692.187 933.715h1366.11v824.852H692.187z"/><path d="M2013.456 1489.422h-210.93v202.35h210.93v-202.35zm-262.4-159.26h-210.92v361.61h210.92v-361.61zm-262.39-68.64h-210.924v430.25h210.924v-430.25zm-262.394-81.66h-210.924v511.91h210.924v-511.91zm-262.394 367.36H752.954v144.55h210.924v-144.55z" fill="#ffa396"/><path d="M1962.267 1220.41l10.368-26.62 69.872 90.2-111.256 16.06 10.944-28.1-606.05-252.938-56.115 100.497-102.396-52.69-207.655 536.95-140.23-70.43c-29.794 50.29-54.533 93.99-74.062 122.47l-44.27-31.92c21.819-31.81 50.193-83.07 85.056-141.13l12.881-21.45 131.885 66.24 207.863-537.489 109.413 56.3 54.183-97.04 649.569 271.09z" fill="#cd0000"/><path d="M1923.066 1192.002l-10.92-544.448-437-95.232-472.821-105.932a481.602 481.602 0 00-254.471 12.037l-93.628 30.502L525.08 654.372a7.322 7.322 0 01-10.271 1.265 7.32 7.32 0 01-1.265-10.27L645.442 476.4l97.879-31.887a496.246 496.246 0 01262.203-12.402c177.522 39.772 472.802 105.927 472.752 105.918l448.27 97.686 11.21 559.038 9.69-12.57a3.998 3.998 0 015.61-.73 4.007 4.007 0 01.72 5.61l-15.76 20.46 1.29 64.37c.08 4.04-3.13 7.38-7.17 7.47-4.03.08-7.38-3.14-7.46-7.17l-1.34-66.95-14.33-18.14a4.005 4.005 0 01.66-5.62 3.992 3.992 0 015.61.66l7.79 9.86z"/><path d="M574.177 590.637l-226.086 75.52a87.438 87.438 0 00-41.765 136.034l76.64 100.263s-16.552 5.34-14.529 16.21l195.534-1.958-79.916-111.255S649.8 789.178 691.83 765.944l256.82 124.209s-29.248 5.494-30.465 18.876l144.735-5.219s38.01-32.326 53.69-45.668a6.737 6.737 0 002.36-5.454 6.728 6.728 0 00-2.9-5.187c-49.91-34.509-344.418-236.936-400.58-247.251 0 0-56.339-34.504-141.313-9.613z" fill="url(#_Linear1)" transform="rotate(1.427 -2.818 13736.453)"/><path d="M1040.31 620.916c1.453.818 2.199 1.3 2.199 1.3 4.996 1.048 11.859 3.678 20.242 7.62 8.312 8.973 16.194 20.71 20.784 35.6 4.438 14.396 5.829 31.76 1.463 52.443l244.939 145.892 42.7-30.685 2.45 1.749c1.02.73 2.04 1.459 3.05 2.188l1.37.977-113.38 81.478a4.002 4.002 0 01-4.781-.083c4.079-1.078 7.029-1.557 7.029-1.557l-7.784-4.007c.238-.317.528-.605.868-.85l61.392-44.118-239.826-142.848a157.944 157.944 0 01-2.59 8.502c-5.932 17.7-21.28 40.399-56.726 57.376l-8.98-4.623c-5.393 2.808-12.765 5.455-21.52 7.934a4.006 4.006 0 011.024-.483c51.458-15.83 71.839-42.524 78.617-62.746 8.775-26.184 8.225-47.36 3.04-64.182-7.334-23.791-23.843-38.8-35.58-46.877zm-42.027-15.147a180.64 180.64 0 018.798 2.122c.503 2.355.852 4.73 1.233 6.895 1.871 10.613 3.096 21.203 2.493 31.998-1.888 33.79-15.209 66.425-47.604 80.824-19.474 8.655-42.73 12.136-63.967 11.732-17.61-.336-38.894-2.364-56.37-3.656-39.923-2.951-72.98-7.872-120.33-2.203-16.764 2.008-29.318 7.86-36.563 17.98-7.268 10.15-9.058 24.403-4.987 42.7 2.808 12.617 8.326 24.29 14.441 35.595 9.44 17.449 19.13 35.406 30.377 51.792l117.45-5.32 5.292 7.768-120.72 5.468a4.004 4.004 0 01-6.006.273l-37.13 1.68-5.626-7.752 37.38-1.693c-10.245-15.484-19.263-32.16-28.054-48.41-6.466-11.953-12.244-24.321-15.213-37.663-4.687-21.067-2.076-37.41 6.291-49.095 8.39-11.718 22.705-18.942 42.117-21.266 47.955-5.742 81.437-.821 121.87 2.168 17.341 1.282 38.46 3.302 55.934 3.635 20.103.383 42.13-2.85 60.565-11.044 29.523-13.121 41.145-43.165 42.866-73.96.568-10.177-.62-20.157-2.384-30.163-.574-3.254-.854-7.163-2.153-10.405z" fill="#d7441e"/><path d="M812.585 831.206l1.583 2.325-.175.052a85.128 85.128 0 00-1.408-2.377zm-5.079-7.455c-20.488-27.404-57.009-49.681-76.355-60.27a3.653 3.653 0 011.91-6.86c45.611 3.807 93.942 46.864 109.445 61.8-21.772 2.094-36.472 3.168-36.472 3.168l1.472 2.162z" fill="#711801"/><circle cx="451.827" cy="326.284" r="40.684" fill="#e86135" transform="rotate(1.427 -102.563 13811.476) scale(1.04181)"/><path d="M787.035 320.546a42.162 42.162 0 0120.158-4.533c23.386.583 41.9 20.042 41.316 43.428-.445 17.843-11.879 32.85-27.662 38.701L810.414 374.2c1.7.171 3.507-.087 5.264-.835 5.36-2.283 8.23-8.274 6.407-13.37-1.823-5.097-7.654-7.38-13.013-5.098a11.603 11.603 0 00-5.175 4.346l-16.862-38.697z"/><path d="M569.029 392.682c-49.115-4.315-156.224 3.381-242.053 12.149a60.629 60.629 0 00-54.002 67.544c1.493 12.111 4.799 24.317 11.185 34.874 0 0-8.064 24.793 19.089 41.637a61.041 61.041 0 0027.163 8.929c20.616 1.491 76.154 3.946 150.547-5.326 0 0 68.254 52.152 140.666 7.562 57.462-35.384 62.709-157.238-52.595-167.369z" fill="url(#_Linear2)" transform="rotate(1.427 -379.535 13747.665)"/><path d="M613.791 527.887c12.745 9.27 34.978 20.985 60.94 22.198 52.198 2.444 194.041 9.07 194.041 9.07a4.002 4.002 0 013.81 4.184 4.001 4.001 0 01-4.183 3.808s-141.844-6.627-194.042-9.071a98.578 98.578 0 01-61.598-25.424c.398-2.97 1.032-4.765 1.032-4.765z" fill="#d7441e"/><g><path d="M769.392 419.876c53.453-2.276 102.986-2.706 132.034.577 115.016 13 108.8 134.917 49.683 167.46-65.567 36.094-126.466 12.035-144.588-9.447-5.099-6.044-8.234-22.795-8.234-22.795l-39.329-2.222-46.299-59.808 56.733-73.765z" fill="#d7441e"/></g><g><path d="M798.287 555.67s42.221-.454 65.42.033a2.144 2.144 0 01.608 4.188l-57.843 18.517c-5.07-6.093-8.185-22.737-8.185-22.737z" fill="#711801"/></g><g><path d="M1246.25 546.71c.83.776-39.57 54.696-114.13 25.958-13.59-5.237-76.34-50.422-32.48-134.354 11.73-22.441 62.61-88.537 175.9-47.812 13.5 4.852 37.74 15.78 80.97 47.812 16.09 11.923 140.17 120.677 210.63 148.707 14.03 5.585 16.35 7.245 28.85 13.236 3.53 1.694 6.93 8.211-6.56 11.096 0 0 13.32-.664 7.66 9.205l-13.92 19.09a14.212 14.212 0 01-11.9 5.829c-4.07-.125-8.62-.676-10.78-2.438 0 0-9.36 13.6-29.68 3.047 0 0-8.65 20.669-48.99-3.047-16.86-9.909-30.18-16.127-43.58-21.291v21.291l357.48 152.331s12.71-2.93 32.72 0l-115.75 108.779-284.34-73.627v52.61s23.78 7.637 26.58 21.017h-187.44v-86.794s-178.44 16.567-145.56-125.945c3.13-13.568 46.73-112.721 145.56-134.139l-21.24-10.561z" fill="url(#_Linear3)" transform="translate(327.576 30.362)"/><path d="M1768.916 775.34v-.005l204 75.755 42.6-71.283 7.43 3.165-43.86 73.38c-.01.402-.1.808-.24 1.206a4 4 0 01-1.69 2.038l-30.32 50.723-8.07-2.09 29.97-50.155-200.3-74.383.24-4.133.24-4.219zm-322.7-34.388c2.9 11.818 10.47 22.738 23.13 25.092 15.44 2.872 32.83-6.7 45.54-14.419 16.51-10.03 28.47-23.57 39.66-37.848 11.58-14.78 22.33-30.349 36.06-43.937 6.56-6.493 15.53-13.442 25.09-16.497 6.91-2.205 14.11-2.433 21.07.604 8.92 3.897 16.16 11.933 21.6 21.587 7.79 13.841 11.89 30.951 12.55 42.561 3.06 54.437 1.7 104.507.64 158.71l84.37.242v8l-160.86-.46v-8l68.49.195c1.05-54.043 2.43-103.96-.63-158.237-.6-10.663-4.38-26.375-11.53-39.088-4.53-8.049-10.39-14.929-17.83-18.179-6.45-2.816-13.19-1.608-19.42 1.236-6.84 3.124-13.09 8.238-17.91 13.011-13.49 13.348-24.02 28.667-35.39 43.186-11.78 15.023-24.44 29.195-41.81 39.751-14.21 8.634-33.88 18.66-51.16 15.447-9.68-1.802-17.15-7.52-22.33-15.053-.22-5.615-.01-11.576.67-17.904zm319.6-67.55l7.34 3.128-4.64 105.248-4.97 81.08-7.62-1.974v10.172a4 4 0 01-.74-2.588s10.5-158.709 10.53-204.608l.01-.32.09-1.272v11.133zm-181.99-91.354c2.97-.566 7.8-1.444 13.97-2.416l-28.04-24.15a4.005 4.005 0 01-.42-5.64 4.001 4.001 0 015.64-.422l32.02 27.575c.39.332.69.722.92 1.145 15.41-2.117 35.59-4.188 55.93-4.256 28.69-.096 57.61 3.961 74.55 16.872 8.52 6.495 34.76 26.932 35.57 64.636a277.554 277.554 0 00-8.15-3.282v.194c-2.15-32.055-24.81-49.494-32.27-55.187-15.8-12.046-42.91-15.322-69.68-15.233-32.75.11-65.1 5.517-76.97 7.726 2.68-.716 5.4-1.377 8.17-1.977l-11.24-5.585zm184.61 201.642l.08-1.912.4-6.439-.24 4.22-.24 4.131zM1853.126 681.986l-20.57-13.606a3.992 3.992 0 01-1.13-5.543 3.998 3.998 0 015.54-1.13l24.48 16.188c-.99-.422-2.01-.902-3.06-1.447 0 0-1.3 3.115-5.26 5.538zm29.1-3.762l-29.54-20.2a4 4 0 01-1.05-5.56 4.003 4.003 0 015.56-1.045l34.49 23.583c-1.47-.369-2.75-.885-3.62-1.6 0 0-1.9 2.754-5.84 4.822zm43.77-32.384c-6.85-1.62-11.2-1.496-13.93-.682-.6.18-1.11.42-1.5.65l2.48 2.328a4.003 4.003 0 01.19 5.654 4.009 4.009 0 01-5.66.183l-16.06-15.059a4.003 4.003 0 01-.19-5.654 4.01 4.01 0 015.66-.183l7.57 7.095c2.82-2.46 8.84-5.08 21.22-2.569-1.27 1.578-3.94 3.078-8.77 4.112 0 0 8.13-.405 8.99 4.125z" fill="#fd9500"/><path d="M1574.396 577.357l-.57-.285c.83.776-39.57 54.696-114.13 25.958-13.59-5.237-76.34-50.422-32.48-134.354 11.73-22.44 62.61-88.537 175.9-47.812 10.46 3.758 27.35 11.158 54.51 29.181 3.43 13.838 2.96 37.377-33.21 49.76 0 0 19.47 49.62-38.87 57.47 0 0-3.48 9.344-11.15 20.082z" fill="#fd9500"/><path d="M1564.656 847.934l30.04-119.78a2.488 2.488 0 012.77-1.863 2.49 2.49 0 012.14 2.566l-4.58 118.863c-.77.07-13.09 1.132-30.37.214zm9.15-270.71c-.74.803-1.51 1.507-2.28 2.072 0 0-35.1-43.082-52.9-64.927-.75-.92-.71-2.252.1-3.123a2.372 2.372 0 013.1-.339c18.39 12.497 50.7 35.003 62.9 46.976 0 0-4.87 12.754-10.82 19.232l-.08-.043c.02.02.01.07-.02.151z" fill="#d7441e"/><path d="M1405.596 358.206c-.76.352.27-1.655.3-2.49.06-1.56.08-3.12.12-4.679.11-4.527-.07-9.053-.04-13.58.07-9.259-1.96-35.595 8.88-40.128 5.4-2.258 6.85 7.765 6.93 11.12.31 12.968-8.69 22.87-10.55 34.971-.09.602.42-1.145.65-1.708.48-1.164.94-2.336 1.44-3.493 1.42-3.276 2.85-6.544 4.33-9.793 4.67-10.26 9.21-21.287 16.13-30.29 1.64-2.14 6.45-7.916 9.76-5.39 4.92 3.757-1.76 14.395-3.94 17.99-4.79 7.88-10.99 14.79-16.16 22.403-5.25 7.713-9.48 16.286-14.84 23.855" fill="#ffb000"/><circle cx="1105.75" cy="355.225" r="40.28" fill="#ffb000" transform="translate(264.128 -6.733) scale(1.06899)"/><circle cx="1105.75" cy="355.225" r="40.28" transform="translate(-153.807 -140.476) scale(1.36307)"/><path d="M1412.626 399.992a42.837 42.837 0 01-9.52-26.994c0-23.764 19.29-43.058 43.05-43.058 6.26 0 12.2 1.336 17.57 3.74-1.13 14.7-9.13 43.547-51.1 66.312z"/></g><g><path d="M1426.266 998.976s-18.69-2.864-5.59-21.233c3.77-5.28 19.52-12.47 28.85 9.357 0 0 17.35-8.227 21.71 13.595 0 0 16.2-7.837 21.76 14.168 0 0 16.44-2.095 18.61 20.48 3.24 33.67 5.93 57.86 7.91 84.68 0 0 4.95 51.47 41.62 83.3 0 0 22.12-73.59 102.49-49.55l74.87 29.6s42.36-14.39 62.69 15.2c14.26-10.78 37.27-29.94 43.52-35.72 3.08-2.85 9.36-5.19 12.69-3.4 2.79 1.5 4.67 6.92 1.39 10.55 0 0 6.94-5.81 12.64-.95 2.21 1.88 4.03 5.74 1.1 12.48 0 0 7.17-6.56 12.43-2.11 2.06 1.73 5.72 6.09.88 13.48 0 0 7.75-6.22 12.79-1.31 2.24 2.18 4.11 6.68-9.15 23.23-3.6 4.48-7.27 8.92-11.01 13.32-34.34 40.9-90.97 55.29-140.66 35.72-31.9-12.5-61.28-24.07-61.28-24.07s40.69 73.9 40.41 116.68c-.24 38.11-16.79 77.7-64.1 89.21a79.16 79.16 0 01-33.46.9c-30.99-5.82-99.85-27.75-91.98-107.3 0 0-58.89-38.52-97.74-101.14a195.685 195.685 0 01-20.73-161.15c8.59-27.83 18.5-63.733 17.34-78.017z" fill="#a8cfcc"/><path d="M1852.846 1228.802s33.4-36.53 32.99-35.9c0 0 5.4-4.34 10.12-2.92-.04.05-.07.09-.11.13l-38.55 42.71a3.003 3.003 0 01-4.24.21c-1.23-1.1-1.32-3-.21-4.23zm-15.1-9.95s34.83-37.44 34.78-37.32c0 0 5.86-5.36 10.88-3.1l-41.26 44.5a3.001 3.001 0 01-4.24.16 3.011 3.011 0 01-.16-4.24zm21.17-48.95c.83-.65 5.6-4.11 10.25-2.24l-40.96 44.19a2.993 2.993 0 01-4.24.16 2.992 2.992 0 01-.16-4.24l35.11-37.87zM1491.176 1034.192c1.38-6.824 1.76-19.567 1.82-19.329 0 0 2.56-.327 5.79.667-.06 4.978-.39 13.268-1.73 19.852a2.995 2.995 0 01-3.53 2.35 3.005 3.005 0 01-2.35-3.54zm-13.96-34.845c.57 5.111 1.01 13.93-.58 25.182a2.999 2.999 0 11-5.94-.84c1.44-10.204 1.12-18.25.63-23.035.47-.214 2.84-1.208 5.89-1.307zm-26.72 16.068c1.81-16.08-1.31-29.116-.97-28.315 0 0 2.3-1.089 5.43-1.423 1.43 5.632 3.12 16.042 1.5 30.41a3.005 3.005 0 01-3.32 2.645 2.997 2.997 0 01-2.64-3.317zm-29.59-18.389c.28-4.5.37-7.46.37-7.46a3.009 3.009 0 013.1-2.905 3.003 3.003 0 012.9 3.093s-.8 11.794-1.01 9.222c0 0-2.72-.417-5.36-1.95zM1519.396 1118.352l.12 1.67s4.95 51.47 41.62 83.3c0 0 22.12-73.59 102.49-49.55l57.78 22.85 14.57 86.52c-31.18-12.22-59.45-23.35-59.45-23.35s40.69 73.9 40.41 116.68c-.24 38.11-16.79 77.7-64.1 89.21a79.16 79.16 0 01-33.46.9c-30.99-5.82-99.85-27.75-91.98-107.3 0 0-58.89-38.52-97.74-101.14a195.736 195.736 0 01-28.97-117.44l118.71-2.35z" fill="#82b5b2"/><path d="M1527.396 1339.282s34.45 20.68 62.74 33.9a2.859 2.859 0 01-1.29 5.51c-16.92-1.16-43.28-4.14-60.98-11.87-1.23-8.31-1.47-17.46-.47-27.54zm130.36-59.55c-75.72-51.05-100.21-79.52-96.62-76.41 0 0 1.15-3.83 3.89-9.46 11.51 11.44 42.05 39.63 98.32 77.57 7.01 4.72 30.75 19.95 46.73 46.5 4.14 13.73 6.94 27.23 6.86 38.54-.03 6.05-.48 12.13-1.4 18.13-.17-.5-.25-1.04-.25-1.6.48-56.57-47.48-86.51-57.53-93.27zm33.12-11.09c-7.38-8.64-20.78-24.6-28.63-33.96-.5-.59-.5-1.46 0-2.05.5-.59 1.36-.73 2.02-.32l12.27 7.5c.3.54 6.71 12.25 14.34 28.83z" fill="#044743"/><g><circle cx="1462.07" cy="1321.96" r="45.339" fill="#a8cfcc" transform="translate(320.028 26.099)"/><path d="M1796.036 1304.912c18.21 5.88 31.4 22.99 31.4 43.15 0 25.02-20.31 45.34-45.34 45.34-16.41 0-30.8-8.74-38.76-21.82l28.98-14.5c-.54 2.35-.36 4.97.68 7.45 2.45 5.85 8.72 8.81 13.99 6.6 5.28-2.21 7.58-8.75 5.13-14.6-1.23-2.95-3.45-5.16-6.01-6.35l16.34-8.18-6.41-37.09z"/></g><g><path d="M1254.59 1443.52s9.59-2.41 22.93-5.77c47.81-12.05 97.8 9.12 122.44 51.82 18.28 31.71 14.54 71.5-9.33 99.24-9.67 11.24-17.28 20.09-17.28 20.09s15.18-.31 32.85-.68c29.64-.61 55.71 19.5 62.65 48.33.59 2.64 1.24 5.28 1.93 7.9a89.133 89.133 0 0033.23 48.82c6.09 4.51 11.74 10.16 13 16.17 0 0-280.15-.35-411.91-.52-26.43-.03-50.56-15-62.34-38.65-11.77-23.66-9.17-51.93 6.73-73.04 0 0-101.199-103.65-96.981-224.35 2.291-65.56 61.931-103.26 105.891-83.87 74.72 32.94 135.7 83.16 196.19 134.51z" fill="url(#_Linear4)" transform="translate(327.576 30.362)"/><path d="M1442.906 1561.382s-49.63-46.83-85.3-80.5a3.85 3.85 0 00-5.22-.05 3.848 3.848 0 00-.46 5.19l73.12 94.62 17.86-19.26z" fill="#044743"/><path d="M1700.926 1639.262l13.77-.28c-6.69 5.81-15.92 13.45-27.44 22.05l.35 98.57-10-.01-.32-91.29c-28.9 20.55-69.25 44.89-118.2 63.19a5 5 0 01-6.44-2.93c-.96-2.58.35-5.47 2.94-6.43 73.17-27.36 126.7-68.47 150.68-89.09l-5.34 6.22zm-125.11-170.76c2.12 1.79 4.23 3.59 6.35 5.38l13.73-3.45c-21.7 9.07-168.31 74.08-229.97 199.24a69.54 69.54 0 0111.14-22.08s-2.4-2.46-6.44-7.06c58.44-95.09 162.47-151.78 205.19-172.03z" fill="#82b5b2"/></g></g><g><path d="M472.437 1714.153c-10.26-7.14 19.514-67.67 66.448-135.08 46.934-67.4 93.369-116.33 103.629-109.18.053.03.104.07.154.11l50.747 37.5c10.26 7.14-19.513 67.67-66.447 135.08-46.934 67.4-93.37 116.33-103.63 109.18a1.37 1.37 0 01-.154-.11l-50.747-37.5z" fill="#ffcd80"/><path d="M636.139 1470.093l.229-.09.227-.08.224-.08.016-.01.205-.07h.02l.198-.07.026-.01.189-.06h.03l.182-.06.035-.01.175-.04.039-.01.167-.05.043-.01.16-.03.047-.01.154-.04.05-.01.148-.03.052-.01.142-.02.056-.01.136-.02h.058l.13-.02.06-.01.126-.01h.062l.12-.01.065-.01h.181l.11-.01h.173l.069.01h.17l.098.01.07.01.094.01.072.01.089.01.072.01.085.01.073.02.082.01.073.02.078.02.073.02.075.02.145.05.14.05.14.05.135.06.066.03.066.04.064.03.064.04.063.04.062.03.062.04.06.05 4.413 3.26.005.05c.396 3.96-.453 9.64-2.598 16.7-1.841 6.07-4.645 13.26-8.304 21.36l49.138 33.78a327.347 327.347 0 01-3.485 7.31l-49.09-33.75a388.565 388.565 0 01-3.41 6.89l47.74 36.22c-1.22 2.33-2.493 4.71-3.82 7.15l-47.658-36.17c-8.09 15.27-18.205 32.41-29.893 50.45l45.903 38.03a1074.84 1074.84 0 01-4.448 6.71l-45.864-38a889.08 889.08 0 01-11.793 17.37c-13.706 19.68-27.452 37.75-40.343 53.29l46.416 37.08.05.04a588 588 0 01-5.115 6.15l-46.411-37.07c-.03-.02-.058-.05-.086-.07a532.526 532.526 0 01-8.204 9.41l45.578 38.11c.034.03.067.05.099.08a428.709 428.709 0 01-5.357 5.95l-45.701-38.21c-10.803 11.7-20.51 20.89-28.433 26.9-5.88 4.47-10.913 7.23-14.77 8.24-.146.04-.292.07-.437.11l-4.2-3.11-.058-.04-.06-.04-.057-.05-.057-.04-.056-.05-.055-.05-.054-.05-.054-.05-.104-.11-.1-.11-.096-.11-.094-.12-.045-.07-.044-.06-.044-.06-.042-.07-.043-.07-.04-.06-.041-.07-.037-.07-.041-.08-.034-.06-.04-.09-.031-.06-.04-.09-.028-.06-.038-.1-.027-.06-.037-.1-.023-.06-.036-.11-.022-.06-.034-.11-.02-.06-.033-.12-.017-.06-.031-.12-.016-.06-.03-.13-.013-.05-.028-.14-.012-.05-.026-.14-.01-.06-.025-.14-.008-.06-.023-.15-.006-.05-.021-.16-.005-.04-.02-.18-.003-.04-.016-.18-.003-.03-.013-.19-.003-.03-.01-.2-.002-.03-.008-.21-.001-.02-.005-.21v-.02l-.002-.24v-.24l.006-.25c.136-5.31 1.648-5.38 1.615-2.24-.01.98.058 1.85.242 2.58.114.46.199.87.503 1.08.304.21.715.15 1.185.1.754-.09 1.589-.32 2.508-.67 2.927-1.12 6.462-3.32 10.535-6.41 20.557-15.6 53.23-53.12 85.776-99.86s56.399-90.41 63.895-115.1c1.486-4.89 2.319-8.97 2.352-12.1.01-.98-.058-1.85-.242-2.59-.114-.46-.2-.86-.503-1.07-.304-.22-.715-.15-1.185-.1-.755.08-1.59.32-2.508.67-2.927 1.12-3.384-.33 1.546-2.3z" fill="#fea424"/></g><g><path d="M1918.186 1631.412c-7.4-1.24-13.05-7.68-13.05-15.43v-31.3c0-8.64 7.01-15.66 15.65-15.66h223.67c8.64 0 15.66 7.02 15.66 15.66v31.3c0 7.75-5.65 14.19-13.05 15.43 7.4 1.25 13.05 7.69 13.05 15.44v31.3c0 7.29-5 13.43-11.76 15.16 6.59 1.85 11.42 7.9 11.42 15.07v31.31c0 8.63-7.01 15.65-15.65 15.65h-223.67c-8.64 0-15.65-7.02-15.65-15.65v-31.31c0-7.29 4.99-13.42 11.75-15.16-6.59-1.85-11.42-7.9-11.42-15.07v-31.3c0-7.75 5.65-14.19 13.05-15.44z" fill="#ffc367"/><path d="M2124.196 1623.722h33.87a15.67 15.67 0 01-11 7.69c.48.08.96.19 1.43.31h-4.92v53.66h14.77c-2.03 3.88-5.65 6.82-9.99 7.93.08.02.15.04.22.07h-26.09v61.96h-8v-61.96h-75.93v61.96h-8v-61.96h-64.73v61.96h-8v-61.96h-8.15v61.96h-8v-61.96h-25.68c.19-.06.37-.11.56-.16a15.685 15.685 0 01-9.65-7.84h16.13v-53.66h-6.28c.46-.12.94-.23 1.43-.31a15.67 15.67 0 01-11-7.69h43.7v-54.7h8v54.7h17.12v-54.7h8v54.7h40.27v-54.7h8v54.7h83.92v-54.7h8v54.7zm-193.16 8v53.66h72.02v-53.66h-72.02zm80.02 0v53.66h45.92v-53.66h-45.92zm53.92 0v53.66h11.84v-53.66h-11.84zm19.84 0v53.66h50.76v-53.66h-50.76z" fill="#fea424"/></g><g><path d="M2195.216 1487.172c42.48-14.25 98.88 21.33 129.43 83.34 31.06 63.05 24.18 130.63-14.68 154.62l.19.4-41.32 21.46c-1.22.72-2.47 1.4-3.75 2.03-.54.26-1.09.52-1.63.77l-1.66.86-.06-.11c-42.86 17.85-101.79-17.99-133.28-81.9-32.31-65.59-23.56-136.07 19.53-157.3 0 0 37.31-19.86 40.03-21.2a58.34 58.34 0 016.45-2.71l.7-.36.05.1z" fill="#ffcd80"/><ellipse cx="1929.11" cy="1593.42" rx="65.501" ry="99.111" fill="#fea424" transform="matrix(.98819 -.44511 .45 .99903 -371.11 873.005)"/><path d="M2214.066 1484.052l.61-.01a67.14 67.14 0 00-16.68 5.64c-18.11 8.92-30.8 25.32-37.62 45.72-10.47 31.33-7.17 71.97 11.7 110.27 18.87 38.31 49.08 65.7 80.31 76.48 20.32 7.02 41.06 6.96 59.17-1.96a67.487 67.487 0 0014.64-9.8l-.15.18-.14.19-.14.18-.24.3-.13.17-.17.2-.12.15-.03.04-.23.27-.13.16-.2.24-.07.09-.08.08-.21.26-.12.14-.27.31-.1.11-.22.25-.11.13-.28.31-.1.11-.23.25-.1.11-.29.32-.1.11-.25.26-.08.08-.3.32-.1.1-.29.3-.03.04-.03.02-.3.3-.1.1-.31.32-.07.06-.28.27-.09.09-.32.31-.08.08-.29.26-.07.08-.34.31-.08.07-.3.28-.06.05-.34.3-.09.08-.34.31-.02.01-.35.3-.09.08-.35.3-.05.04-.32.27-.09.06-.35.3-.08.05-.31.26-.07.06-.37.28-.08.07-.34.26-.04.03-.38.29-.08.06-.38.28-.39.28-.09.07-.38.27-.04.03-.35.25-.09.06-.38.26-.07.05-.35.23-.07.05-.39.26-.08.06-.36.23-.05.03-.4.25-.09.06-.4.25.19.4-16.69 8.67c-6.79 1.07-13.76 1.25-20.8.58-.03.02-.07.04-.11.06l-36.55 20.24c-4.43-.15-8.93-.72-13.46-1.69l37.41-20.72c-3.4-.8-6.8-1.79-10.19-2.96-11.8-4.08-23.48-10.38-34.53-18.65l-34.63 22.24c-2.22-1.66-4.43-3.41-6.62-5.25l34.63-22.24c-2.57-2.16-5.1-4.43-7.58-6.8l-35.47 21.4a167.96 167.96 0 01-5.74-5.87l35.41-21.38c-11.67-12.36-22.05-27.14-30.33-43.95-1.96-3.98-3.76-7.98-5.4-12l-36.75 18.8c-1.02-2.5-1.99-5-2.9-7.5l36.77-18.81c-5.62-15.7-8.85-31.48-9.8-46.63l-37.59 15.74c-.18-2.88-.27-5.73-.28-8.55l37.57-15.74c-.09-12.27 1.35-24.03 4.24-34.88l-37.19 16.01c1.05-3.57 2.28-7.01 3.69-10.3l35.87-15.44.37.87c4.42-12.37 10.88-23.31 19.25-32.18 0 0 11.63-6.6 14.92-8.29l.34-.17a58.34 58.34 0 016.45-2.71l.7-.36.05.1.45-.15.07-.02.44-.14.08-.03.44-.13.05-.02.43-.13.06-.02.44-.12.08-.03.44-.12.07-.02.44-.12.03-.01.45-.12.08-.02.45-.11.07-.02.46-.11h.01l.47-.11.06-.02.45-.1.08-.01.46-.1.04-.01.46-.1h.03l.47-.1.07-.01.47-.09.05-.01.48-.09.49-.08.05-.01.48-.07.05-.01.49-.08.5-.07h.03l.48-.07.06-.01.48-.06h.04l.49-.06h.01l.49-.05.06-.01.47-.05.07-.01.49-.04.47-.04.08-.01.46-.03.1-.01.45-.03.09-.01.29-.01.43-.03.16-.01.52-.02h.06l.61-.03.62-.01h.01l.61-.01h.03z" fill="#fea424"/><g><path d="M2237.038 1646.613c14.25 5.273 28.023 5.432 41.676.789 16.077-5.947 21.026-14.977 15.37-27.275-4.894-9.927-13.24-14-25.035-12.221-5.411 1.046-11.17 2.217-17.543 3.386-11.529 1.905-21.824.508-30.62-4.066-9.063-4.699-15.908-11.95-20.711-21.689-5.726-11.612-6.867-22.216-3.075-31.934 3.445-9.595 11.6-16.684 24.199-21.392 15.658-5.137 31.354-5.223 46.996-.446l-2.212 20.386c-12.447-3.273-24.46-3.178-35.678.598-5.738 2.044-9.867 5.276-12.122 9.823-2.428 4.608-2.113 10.221.853 16.651 1.94 3.934 4.993 6.81 9.345 9.003 4.352 2.193 9.888 2.643 16.62 1.787a353.13 353.13 0 0014.924-2.895c12.48-2.463 23.216-1.003 32.381 4.32 8.9 5.198 15.745 12.448 20.455 22 12.04 25.659 3.808 43.785-24.346 54.254-18.255 6.503-37.124 5.957-56.34-1.51l4.863-19.569z" fill="#ffcd80" fill-rule="nonzero"/><path d="M2211.286 1515.852l69.11 171.67 21.988-6.452-72.43-170.697-18.668 5.479z" fill="#ffcd80"/></g></g><defs><linearGradient id="_Linear1" x1="0" y1="0" x2="1" y2="0" gradientUnits="userSpaceOnUse" gradientTransform="scale(-553.304) rotate(69.545 .587 -1.85)"><stop offset="0" stop-color="#e86135"/><stop offset=".59" stop-color="#ec6d47"/><stop offset=".8" stop-color="#f6886f"/><stop offset="1" stop-color="#ffa396"/></linearGradient><linearGradient id="_Linear2" x1="0" y1="0" x2="1" y2="0" gradientUnits="userSpaceOnUse" gradientTransform="scale(-422.878) rotate(32.355 1.424 -2.475)"><stop offset="0" stop-color="#e86135"/><stop offset="1" stop-color="#ffa396"/></linearGradient><linearGradient id="_Linear3" x1="0" y1="0" x2="1" y2="0" gradientUnits="userSpaceOnUse" gradientTransform="scale(444.413) rotate(79.704 .775 2.684)"><stop offset="0" stop-color="#ffb000"/><stop offset="1" stop-color="#fd9500"/></linearGradient><linearGradient id="_Linear4" x1="0" y1="0" x2="1" y2="0" gradientUnits="userSpaceOnUse" gradientTransform="scale(-481.46) rotate(59.108 1.747 -3.774)"><stop offset="0" stop-color="#a8cfcc"/><stop offset=".58" stop-color="#b9d5d1"/><stop offset=".8" stop-color="#dde3dc"/><stop offset="1" stop-color="#fff0e6"/></linearGradient></defs></svg>