<svg viewBox="0 0 2732 2048" xmlns="http://www.w3.org/2000/svg" fill-rule="evenodd" clip-rule="evenodd" stroke-linejoin="round" stroke-miterlimit="2"><path fill="#ffd593" d="M1675.922 391.462h638.256v861.353h-638.256z"/><circle cx="945.873" cy="530.917" r="121.215" fill="#fff" transform="translate(1188.928 26.286)"/><circle cx="2109.59" cy="529.157" r="42.214" fill="#b5d6d4" transform="translate(25.685 9.434)"/><path d="M2031.11 619.972c32.41-20.327 104.63-49.29 202.05 8.05-22.02 30.515-57.88 50.396-98.36 50.396-43.93 0-82.44-23.424-103.69-58.446z" fill="#b5d6d4"/><path d="M2137.52 496.436c20.99 1.104 37.93 17.565 39.8 38.341-35.94-6.414-39.71-29.509-39.8-38.34zm-44.26 38.035c2.07-21.37 20.11-38.094 42.01-38.094.65 0 1.29.014 1.93.043-4.81 26.03-30.72 35.092-43.94 38.051z"/><path d="M1943.366 595.691h-216.558v31.281h216.558v-31.28zm-18.107-65.907h-198.451v31.281h198.45v-31.28zm42.843-65.643h-241.294v31.282h241.294v-31.282zM2133.573 917.579h-320.547v25.973h320.547v-25.973zm-57.33-51.936h-263.217v25.973h263.218v-25.973zm57.33-54.04h-320.547v25.973h320.547v-25.973zM1813.025 976.698h320.548v25.973h-320.547zM2147.355 1191.26h-320.548v25.97h320.548v-25.97zm-71.256-54.04h-249.292v25.97H2076.1v-25.97z" fill="#fda527"/><g><path fill="#fda527" d="M1725.928 713.581h501.388v46.728h-501.388z"/></g><g><path fill="#fda527" d="M1736.942 1060.904h501.388v46.728h-501.388z"/></g><g><path fill="#b5d6d4" d="M1088.345 364.906H1726.6v861.353h-638.256z"/><circle cx="945.873" cy="530.917" r="121.215" fill="#fff" transform="translate(601.351 -.27)"/><path d="M1447.9 600.116c29.86-21.428 112.51-67.72 199.45-1.17-21.83 31.935-58.55 52.915-100.13 52.915-41.06 0-77.38-20.463-99.32-51.745z" fill="#ec7954"/><circle cx="1530.44" cy="492.277" r="42.858" fill="#ec7954" transform="translate(20.383 6.143)"/><circle cx="1530.44" cy="492.277" r="42.858" transform="matrix(.72742 0 0 .72742 511.084 148.044)"/><path d="M1507.99 499.966c-.01-.512-.02-1.028-.02-1.546 0-23.655 19.2-42.859 42.86-42.859 23.65 0 42.85 19.204 42.85 42.86 0 1.401-.06 2.788-.2 4.156-32.08-4.276-40.92-32.508-40.92-32.508-10.45 25.043-31.27 29.704-44.57 29.897z"/><path d="M1345.373 569.135H1139.23v31.28h206.142v-31.28zm35.152-65.907H1139.23v31.28h241.294v-31.28zm-50.581-65.643H1139.23v31.282h190.713v-31.282zM1547.993 880.033h-320.548v25.973h320.548v-25.973zm0-51.936h-320.548v25.973h320.548v-25.973zm0-54.04h-320.548v25.973h320.548v-25.973zM1547.993 1137.455h-320.548v25.97h320.548v-25.97zm0-51.93h-320.548v25.97h320.548v-25.97zm0-54.04h-320.548v25.97h320.548v-25.97z" fill="#95c0be"/><g><path fill="#95c0be" d="M1138.351 687.025h501.388v46.728h-501.388z"/></g><g><path fill="#95c0be" d="M1138.351 949.679h501.388v46.728h-501.388z"/></g></g><g><path fill="#fff3e4" d="M513.922 337.437h638.256v861.353H513.922z"/><circle cx="945.873" cy="530.917" r="121.215" fill="#fff" transform="translate(26.928 -27.739)"/><path d="M867.446 563.127c22.23-27.976 61.174-46.542 105.46-46.542 44.206 0 83.085 18.496 105.335 46.387-20.85 36.666-60.275 61.421-105.44 61.421-45.097 0-84.476-24.682-105.355-61.266z" fill="#fda527"/><path d="M957.113 517.382a156.142 156.142 0 0115.794-.797c7.378 0 14.608.515 21.642 1.505-1.2 6.998-5.902 11.96-11.29 14.192l13.93 89.651a121.554 121.554 0 01-24.388 2.46c-7.22 0-14.294-.633-21.173-1.847l18.242-90.196c-8.925-3.12-11.833-10.919-12.757-14.968z"/><circle cx="946.913" cy="453.988" r="42.265" fill="#fda527" transform="translate(25.354 6.164)"/><path d="M930.003 460.018c.072-23.264 18.982-42.13 42.265-42.13 23.326 0 42.265 18.937 42.265 42.264 0 1.83-.117 3.631-.342 5.396-28.1-3.05-39.95-32.67-39.95-32.67-10.131 21.55-32.392 26.225-44.238 27.14z"/><g><path d="M719.17 541.666H564.809v31.281H719.17v-31.28zm86.932-65.907H564.808v31.281h241.294v-31.28zm0-65.643H564.808v31.282h241.294v-31.282zM973.57 852.564H653.022v25.973H973.57v-25.973zm0-51.936H653.022v25.973H973.57v-25.973zm0-54.04H653.022v25.973H973.57v-25.973zM973.57 1109.986H653.022v25.97H973.57v-25.97zm0-51.93H653.022v25.97H973.57v-25.97zm0-54.04H653.022v25.97H973.57v-25.97zM563.928 659.556h501.388v46.728H563.928zM563.928 922.21h501.388v46.728H563.928z" fill="#ffb1a6"/></g></g><g><circle cx="945.873" cy="530.917" r="121.215" fill="#fff" transform="matrix(.8951 -.13378 .20702 1.3851 239.483 -39.747)"/><path d="M1101.879 639.81c25.09-26.768 60.74-46.027 102.51-52.269 36.42-5.443 72.08-.178 102.85 13.198-2.78 71.679-36.82 128.874-86.11 136.24-47.33 7.076-94.66-33.912-119.25-97.17z" fill="#fda527"/><path d="M1205.218 737.582l-.53-126.326c-12.79-2.792-18.84-13.64-21.19-19.392a190.042 190.042 0 0120.89-4.323 192.291 192.291 0 0129.33-2.117c.34 10.498-4.57 18.708-11.16 23.058l37.25 110.35c-11.35 9.674-24.37 16.01-38.68 18.148a72.19 72.19 0 01-15.91.602z"/><circle cx="946.913" cy="453.988" r="42.265" fill="#fda527" transform="matrix(1.33645 -.19975 .27665 1.46579 -203.18 28.648)"/><path d="M1131.396 513.197c-6.34-34.115 13.713-65.547 44.83-70.198 31.174-4.66 61.724 19.317 68.177 53.51.506 2.68.848 5.345 1.036 7.977-38.397 1.142-62.428-39.909-62.428-39.909-7.58 33.613-36.036 44.912-51.615 48.62z"/></g><g><path d="M1214.962 742.337l26.326 181.79c.912 6.329 6.798 10.722 13.12 9.806 6.331-.916 10.724-6.798 9.802-13.126l-26.315-181.791c-.922-6.328-6.798-10.722-13.13-9.806-6.322.917-10.715 6.798-9.803 13.127z" fill="#dd6140"/><path d="M1220.49 780.492l-5.53-38.156c-.91-6.328 3.48-12.21 9.81-13.126 6.33-.916 12.21 3.477 13.12 9.806l4.17 28.802c-8.05 7.046-15.27 10.88-21.57 12.674z"/><path d="M1219.162 727.02c-20.896 2.853-41.511-5.416-59.612-21.063-29.464-25.481-52.101-70.12-59.295-122.81-7.193-52.69 2.651-101.761 24.207-134.208 13.244-19.927 30.888-33.42 51.784-36.272 6.338-.865 10.785-6.711 9.92-13.046-.865-6.336-6.716-10.777-13.054-9.912-27.19 3.712-50.724 20.475-67.946 46.406-24.149 36.339-35.924 91.157-27.869 150.166 8.057 59.011 34.095 108.666 67.1 137.202 23.543 20.366 50.708 30.208 77.9 26.495 6.337-.865 10.783-6.712 9.918-13.047-.864-6.335-6.716-10.776-13.053-9.91z" fill="#dd6140"/><path d="M1176.246 412.667c20.907-2.854 41.523 5.415 59.623 21.063 29.464 25.48 52.1 70.118 59.293 122.808 7.194 52.69-2.65 101.763-24.205 134.21-13.244 19.926-30.888 33.418-51.795 36.273-6.337.865-10.774 6.71-9.909 13.045.865 6.335 6.706 10.778 13.043 9.912 27.202-3.713 50.724-20.474 67.957-46.407 24.143-36.338 35.917-91.156 27.861-150.166-8.056-59.01-34.092-108.665-67.092-137.202-23.554-20.365-50.708-30.207-77.91-26.494-6.337.865-10.773 6.711-9.908 13.046.865 6.336 6.705 10.777 13.042 9.912z" fill="#dd6140"/></g><g><path d="M1313.18 1229.33s-185.85 353.54-226.26 441.74c0 0-45.19 4.75-65.7 33.64h311.51l75.2-130.99s55.75 73.47 106.02 97.35c0 0-29.09 17.15-32.75 33.64h286.21l-204.29-318.79s146.44-274.61 0-354.33c-41.26-22.46-142.64-18.12-249.94 197.74z" fill="url(#_Linear1)" transform="translate(38.29 2.296)"/><path d="M1426.51 1110.756l-53.73 122.18c-39.97 90.9-29.72 196.06 27.05 277.54l.29.41 221.94-90.45 4.38 6.85-221.63 90.33c24.4 34.94 46.99 66.15 58.74 79.4.21.23.39.48.55.74-11.04-12.73-17.88-21.74-17.88-21.74l-5.16 8.98c-13.37-17.56-31.08-42.42-49.44-68.81a294.814 294.814 0 01-37.9-75.61l-106.86-8.35 1.79-3.45 2.21-4.26 100.26 7.84c-19.86-66.22-16.11-138.36 12.51-203.44l35.46-80.65c9.26-13.9 18.41-26.36 27.42-37.51zm178.17 282.57l-.04.09s-17.48-27.68-27.7-43.86a4.422 4.422 0 01.33-5.19 4.42 4.42 0 015.03-1.3l34.31 13.41c-8.8 19.73-15.2 31.74-15.2 31.74l3.27 5.11z" fill="#f49387"/><g><path d="M1876.49 532.56c11.6-10.122 28.18-28.704 31.47-38.385 4.79-14.077-5.25-15.996-10.64-11.788-22.43 17.516-53.12 31.056-53.12 31.056-57.71 25.12-200.13 179.758-200.13 179.758-83.7 81.77-216.04 87.48-252.75 87.413a84.048 84.048 0 00-36.36 8.09c-38.97 18.54-62.55 57.425-62.55 57.425s-14.87-15.933-27.89-23.174c-5.43-3-12.18-2.057-16.58 2.314-12.55-2.337-24.96 4.677-29.43 16.631-1 2.694-1.83 5.164-2.24 7.054 0 0-11.66 4.675-12.26 17.297 0 0-13.74 5.708-13.8 19.127 0 0-20.41 21.011 0 41.53 0 0 13.91 8.175 17.28-9.728l7.45 242.116a96.651 96.651 0 0034.12 70.75c25.72 21.8 62.7 24.12 90.95 5.71 1.89-1.23 3.71-2.41 5.44-3.54a111.153 111.153 0 0031.65-31.23c13.81-20.62 31.49-54.55 33.17-95.11v-84.3s65.28 26.07 111.45-73.42c0 0 30.92 5.206 72.86-4.936 25.09-6.067 54.13-17.628 82.86-39.085a214.202 214.202 0 0051.13-54.266c26.86-40.9 96.1-146.457 115.63-176.824 0 0 23.8-34.885 44.23-52.465 0 0 19.95 19.222 36.33-21.294 0 0 7.87-19.109-13.74-27.873 0 0 1.59-21.35-18.91-21.638 2.04-14.584-5.13-17.888-15.62-17.216z" fill="#ffccc5"/><path d="M1713.79 621.29c20.75 12.294 60.73 40.206 103.75 92.786-28.88 44.234-69.76 106.545-88.97 135.793a214.202 214.202 0 01-51.13 54.266c-28.73 21.457-57.77 33.018-82.86 39.085-41.94 10.142-72.86 4.935-72.86 4.935-46.17 99.491-111.45 73.421-111.45 73.421v84.3c-1.68 40.56-19.36 74.49-33.17 95.11a111.153 111.153 0 01-31.65 31.23c-1.73 1.13-3.55 2.31-5.44 3.54-28.25 18.41-65.23 16.09-90.95-5.71a96.651 96.651 0 01-34.12-70.75l-5.03-163.429h68.21c-1.27-17.31-.21-107.414 6.93-130.433 2.79-9.01 5.58-15.667 8.62-21.27 5.36-8.127 27.56-39.415 61.29-55.46a84.048 84.048 0 0136.36-8.09c36.71.067 169.05-5.643 252.75-87.413 0 0 30.89-33.537 69.72-71.91z" fill="#f49387"/><path d="M1277.94 992.528h.25v158.698c0 1.17-.91 2.13-2.08 2.18-1.16.05-2.16-.82-2.26-1.98l-14-155.559h18.27c-.07-.916-.13-2.035-.18-3.339zm132.33 33.798l-5.84-125.588c-.03-.768.5-1.446 1.26-1.588.75-.14 1.5.297 1.74 1.027 6 19.547 18.31 64.212 26.25 124.38-14.09.74-23.41-2.98-23.41-2.98v4.75zm109.54-74.153c4.34-11.28 19.17-57.826-8.5-108.248a2.54 2.54 0 01.72-3.279 2.548 2.548 0 013.35.298c13.2 13.975 34.15 44.645 49.3 107.412-25.93 2.668-42.96-.2-42.96-.2a222.59 222.59 0 01-1.91 4.017z" fill="#b44335"/><path d="M1208.47 912.833c-.63 3.81-1.93 8.03-1.93 8.03l-11.93-6.39a4.005 4.005 0 01-1.72-5.39 4.006 4.006 0 015.39-1.72l10.19 5.47zm-15.18-37.615a18.55 18.55 0 014.65-.472c7.62.176 19.08 5.096 32.75 26.158a3.995 3.995 0 01-1.17 5.533 4.012 4.012 0 01-5.54-1.177c-11.27-17.369-19.94-22.37-26.23-22.516-4.87-.113-7.6 3.03-7.6 3.03l.06-.396c.02-4.08 1.3-7.448 3.08-10.16zm13.43-17.947c1.53-.194 3.27-.226 5.22.013 7.17.88 17.98 5.703 31.69 22.682a3.997 3.997 0 01-.6 5.625 3.995 3.995 0 01-5.62-.599c-22.21-27.5-33.4-18.74-33.4-18.74.17-3.622 1.25-6.589 2.71-8.98zm12.63-17.37c1.67-.212 3.56-.293 5.65-.139 7.72.566 18.56 4.355 30.52 18.053a4.006 4.006 0 01-.38 5.644 3.997 3.997 0 01-5.64-.382c-16.48-18.865-29.73-15.553-33.22-14.205.43-1.879 1.24-4.317 2.23-6.972.25-.682.54-1.349.84-2zm36.33-18.529c5.47 3.585 12.99 9.84 19.82 20.09a4.012 4.012 0 01-1.11 5.547 4.004 4.004 0 01-5.55-1.112c-9.6-14.414-21.66-20.77-20.9-20.628a13.919 13.919 0 017.74-3.897zm632.75-200.792c-2.23 1.92 19.09-21.915 19.09-21.915 4.18-3.466 8.9 1.45 5.89 5.415l-18.58 20.205c-3.93-1.319-6.4-3.705-6.4-3.705zm21.82-56.784c1.03 4.155.77 7.617.77 7.617.46.185-7.84 1.454-12.25 3.781-8.25 4.353-15.01 11.04-15.01 11.04a4.005 4.005 0 01-5.66-.035 4.004 4.004 0 01.04-5.657s7.61-7.523 16.9-12.423c4.87-2.572 10.19-4.338 15.21-4.323zm-18.13-22.4c.44 2.236.46 4.976 0 8.306-4.95 1.548-14.51 5.712-26.7 16.702a4.002 4.002 0 01-5.36-5.94c15.06-13.578 26.77-17.784 32.06-19.069zm-5.77-18.269c-3.41 3.52-6.8 6.77-9.86 9.432.47-.03-19.52 7.532-30.09 14.355a4.002 4.002 0 01-4.34-6.722c15.15-9.775 31.08-16.278 44.29-17.065z" fill="#f49387"/><g><circle cx="1353.19" cy="694.982" r="57.767" fill="#ffccc5" transform="translate(39.865 -13.627)"/><path d="M1405.85 625.013c25.74 5.833 44.97 28.858 44.97 56.341 0 31.882-25.89 57.767-57.77 57.767-.93 0-1.87-.023-2.79-.067-9.34-21.056 4.97-29.648 8.81-31.514a13.561 13.561 0 008.74 3.17c7.49 0 13.57-6.023 13.57-13.442 0-7.418-6.08-13.44-13.57-13.44-3.01 0-5.8.978-8.06 2.633-21.6-29.438-3.68-52.24 6.1-61.448zM1463.67 690.036c-.6-.166 3.87-2.539 5.02-3.298 3.18-2.094 6.31-4.317 9.26-6.728 8.92-7.31 14.55-16.099 20.74-25.653 21.02-32.45 54.85-65.257 95.63-66.86 72.13-2.839 112.11 78.812 101.61 141.466-7.96 47.523-58.35 72.416-103.4 65.778-26.76-3.945-52.59-19.354-70.55-39.377-10.55-11.764-18.51-25.56-27.2-38.688-7.82-11.83-16.06-24.934-31.11-26.64z"/></g></g></g><defs><linearGradient id="_Linear1" x1="0" y1="0" x2="1" y2="0" gradientUnits="userSpaceOnUse" gradientTransform="rotate(92.628 72.861 1284.098) scale(742.1012)"><stop offset="0" stop-color="#ffccc5"/><stop offset="1" stop-color="#f49387"/></linearGradient></defs></svg>