<?xml version="1.0" encoding="UTF-8" standalone="no"?>
<!DOCTYPE svg PUBLIC "-//W3C//DTD SVG 1.1//EN" "http://www.w3.org/Graphics/SVG/1.1/DTD/svg11.dtd">
<svg width="100%" height="100%" viewBox="0 0 158 100" version="1.1" xmlns="http://www.w3.org/2000/svg" xmlns:xlink="http://www.w3.org/1999/xlink" xml:space="preserve" xmlns:serif="http://www.serif.com/" style="fill-rule:evenodd;clip-rule:evenodd;stroke-linejoin:round;stroke-miterlimit:2;">
    <g transform="matrix(1,0,0,1,-74.6653,-193.678)">
        <path d="M79.415,288.018L90.815,288.018L90.815,246.498L97.655,246.498L97.535,235.578L90.815,235.578L90.815,209.418L98.735,209.418L98.735,198.738L79.415,198.738L79.415,288.018Z" style="fill-rule:nonzero;"/>
        <path d="M114.455,288.618C122.975,288.618 126.695,283.458 126.695,277.338L126.695,198.738L114.815,198.738L114.815,276.018C114.815,277.218 114.335,277.818 113.495,277.818C112.655,277.818 112.295,277.218 112.295,276.018L112.295,198.738L100.415,198.738L100.415,277.338C100.415,283.458 103.655,288.618 112.655,288.618L114.455,288.618Z" style="fill-rule:nonzero;"/>
        <path d="M133.535,288.018L145.055,288.018L145.055,209.418L150.335,209.418L150.335,198.738L128.375,198.738L128.375,209.418L133.535,209.418L133.535,288.018Z" style="fill-rule:nonzero;"/>
        <path d="M166.055,288.618C174.575,288.618 178.295,283.458 178.295,277.338L178.295,198.738L166.415,198.738L166.415,276.018C166.415,277.218 165.935,277.818 165.095,277.818C164.255,277.818 163.895,277.218 163.895,276.018L163.895,198.738L152.015,198.738L152.015,277.338C152.015,283.458 155.255,288.618 164.255,288.618L166.055,288.618Z" style="fill-rule:nonzero;"/>
        <path d="M191.975,207.738L192.935,207.738C194.015,207.738 194.135,208.218 194.135,209.298L194.135,235.338C194.135,236.418 193.655,236.898 192.815,236.898L191.975,236.898L191.975,207.738ZM191.975,246.978L192.815,246.978C194.135,246.978 194.135,247.698 194.135,248.538L194.135,285.138C194.135,286.458 194.375,287.418 194.975,288.018L206.375,288.018L206.375,287.778C206.015,286.938 205.895,286.098 205.895,284.778L205.895,246.738C205.895,243.018 203.495,241.098 201.575,240.258C203.375,239.418 205.655,237.498 205.655,232.818L205.655,207.018C205.655,201.378 202.655,198.738 198.455,198.738L180.215,198.738L180.215,288.018L191.975,288.018L191.975,246.978Z" style="fill-rule:nonzero;"/>
        <path d="M207.815,198.738L207.815,288.018L227.615,288.018L227.615,277.218L219.335,277.218L219.335,246.498L226.295,246.498L226.295,235.458L219.335,235.458L219.335,209.418L227.375,209.418L227.375,198.738L207.815,198.738Z" style="fill-rule:nonzero;"/>
    </g>
</svg>
