<?xml version="1.0" encoding="UTF-8" standalone="no"?>
<!DOCTYPE svg PUBLIC "-//W3C//DTD SVG 1.1//EN" "http://www.w3.org/Graphics/SVG/1.1/DTD/svg11.dtd">
<svg width="100%" height="100%" viewBox="0 0 186 100" version="1.1" xmlns="http://www.w3.org/2000/svg" xmlns:xlink="http://www.w3.org/1999/xlink" xml:space="preserve" xmlns:serif="http://www.serif.com/" style="fill-rule:evenodd;clip-rule:evenodd;stroke-linejoin:round;stroke-miterlimit:2;">
    <g transform="matrix(1,0,0,1,-60.6653,-193.378)">
        <path d="M82.595,249.498C87.275,249.498 90.755,246.618 90.755,240.498L90.755,207.738C90.755,201.378 87.275,198.738 82.475,198.738L65.435,198.738L65.435,288.018L77.075,288.018L77.075,249.498L82.595,249.498ZM77.075,207.858L77.915,207.858C79.235,207.858 79.355,208.578 79.355,209.658L79.355,238.098C79.355,239.418 78.875,240.018 77.915,240.018L77.075,240.018L77.075,207.858Z" style="fill-rule:nonzero;"/>
        <path d="M104.315,207.738L105.275,207.738C106.355,207.738 106.475,208.218 106.475,209.298L106.475,235.338C106.475,236.418 105.995,236.898 105.155,236.898L104.315,236.898L104.315,207.738ZM104.315,246.978L105.155,246.978C106.475,246.978 106.475,247.698 106.475,248.538L106.475,285.138C106.475,286.458 106.715,287.418 107.315,288.018L118.715,288.018L118.715,287.778C118.355,286.938 118.235,286.098 118.235,284.778L118.235,246.738C118.235,243.018 115.835,241.098 113.915,240.258C115.715,239.418 117.995,237.498 117.995,232.818L117.995,207.018C117.995,201.378 114.995,198.738 110.795,198.738L92.555,198.738L92.555,288.018L104.315,288.018L104.315,246.978Z" style="fill-rule:nonzero;"/>
        <path d="M146.675,211.698C146.675,203.418 142.955,198.138 134.315,198.138L132.635,198.138C123.995,198.138 120.155,203.178 120.155,211.698L120.155,275.298C120.155,283.818 124.475,288.618 132.635,288.618L134.315,288.618C142.115,288.618 146.675,283.938 146.675,275.298L146.675,211.698ZM134.795,276.258C134.795,277.578 134.315,278.178 133.475,278.178C132.635,278.178 132.155,277.578 132.155,276.258L132.155,210.498C132.155,209.178 132.635,208.458 133.475,208.458C134.315,208.458 134.795,209.178 134.795,210.498L134.795,276.258Z" style="fill-rule:nonzero;"/>
        <path d="M153.035,288.018L164.555,288.018L164.555,209.418L169.835,209.418L169.835,198.738L147.875,198.738L147.875,209.418L153.035,209.418L153.035,288.018Z" style="fill-rule:nonzero;"/>
        <path d="M171.515,198.738L171.515,288.018L191.315,288.018L191.315,277.218L183.035,277.218L183.035,246.498L189.995,246.498L189.995,235.458L183.035,235.458L183.035,209.418L191.075,209.418L191.075,198.738L171.515,198.738Z" style="fill-rule:nonzero;"/>
        <path d="M205.835,278.418C204.995,278.418 204.635,277.818 204.635,276.498L204.635,209.898C204.635,208.698 204.995,208.098 205.835,208.098C206.675,208.098 207.035,208.698 207.035,209.898L207.035,237.018L218.435,237.018L218.435,209.538C218.435,202.698 215.075,198.138 206.915,198.138L204.995,198.138C195.995,198.138 192.755,203.298 192.755,210.618L192.755,275.778C192.755,283.938 196.235,288.618 204.995,288.618L206.915,288.618C215.075,288.618 218.435,283.338 218.435,276.738L218.435,246.378L207.035,246.378L207.035,276.498C207.035,277.818 206.675,278.418 205.835,278.418Z" style="fill-rule:nonzero;"/>
        <path d="M224.795,288.018L236.315,288.018L236.315,209.418L241.595,209.418L241.595,198.738L219.635,198.738L219.635,209.418L224.795,209.418L224.795,288.018Z" style="fill-rule:nonzero;"/>
    </g>
</svg>
