<?xml version="1.0" encoding="UTF-8" standalone="no"?>
<!DOCTYPE svg PUBLIC "-//W3C//DTD SVG 1.1//EN" "http://www.w3.org/Graphics/SVG/1.1/DTD/svg11.dtd">
<svg width="100%" height="100%" viewBox="0 0 100 100" version="1.1" xmlns="http://www.w3.org/2000/svg" xmlns:xlink="http://www.w3.org/1999/xlink" xml:space="preserve" xmlns:serif="http://www.serif.com/" style="fill-rule:evenodd;clip-rule:evenodd;stroke-linejoin:round;stroke-miterlimit:2;" fill="currentColor">
    <g transform="matrix(1,0,0,1,-0.78,37.64)">
        <path d="M32.12,18.48C36.8,18.48 40.28,15.6 40.28,9.48L40.28,-23.28C40.28,-29.64 36.8,-32.28 32,-32.28L14.96,-32.28L14.96,57L26.6,57L26.6,18.48L32.12,18.48ZM26.6,-23.16L27.44,-23.16C28.76,-23.16 28.88,-22.44 28.88,-21.36L28.88,7.08C28.88,8.4 28.4,9 27.44,9L26.6,9L26.6,-23.16Z" style="fill-rule:nonzero;"/>
        <path d="M47.84,57L59.48,57L59.48,20.76L66.44,-32.28L56,-32.28L53.96,1.2L51.92,-32.28L40.4,-32.28L47.84,20.76L47.84,57Z" style="fill-rule:nonzero;"/>
        <path d="M67.28,57L78.68,57L78.68,15.48L85.52,15.48L85.4,4.56L78.68,4.56L78.68,-21.6L86.6,-21.6L86.6,-32.28L67.28,-32.28L67.28,57Z" style="fill-rule:nonzero;"/>
    </g>
</svg>
