<?xml version="1.0" encoding="UTF-8" standalone="no"?>
<!DOCTYPE svg PUBLIC "-//W3C//DTD SVG 1.1//EN" "http://www.w3.org/Graphics/SVG/1.1/DTD/svg11.dtd">
<svg width="100%" height="100%" viewBox="0 0 162 100" version="1.1" xmlns="http://www.w3.org/2000/svg" xmlns:xlink="http://www.w3.org/1999/xlink" xml:space="preserve" xmlns:serif="http://www.serif.com/" style="fill-rule:evenodd;clip-rule:evenodd;stroke-linejoin:round;stroke-miterlimit:2;">
    <g transform="matrix(1,0,0,1,-0.2,-0.36)">
        <path d="M18.88,95.6C27.04,95.6 30.88,91.04 30.88,83.36L30.88,60.32C30.88,54.08 29.32,50.96 24.88,46.76L18.64,40.52C17.2,38.96 16.84,38.24 16.84,35.96L16.84,15.68C16.84,14.72 17.2,14.24 18.04,14.24C18.88,14.24 19.24,14.72 19.24,15.68L19.24,39.2L30.4,39.2L30.4,15.2C30.4,9.44 27.88,5.12 19.36,5.12L16.72,5.12C8.2,5.12 5.08,9.44 5.08,16.16L5.08,36.44C5.08,42.08 6.52,45.8 10.36,49.52L16.72,55.76C18.52,57.56 18.76,58.4 18.76,60.8L18.76,83.96C18.76,85.28 18.28,85.88 17.44,85.88C16.6,85.88 16.24,85.28 16.24,83.96L16.24,56.96L4.72,56.96L4.72,84.8C4.72,92 8.56,95.6 16.24,95.6L18.88,95.6Z" style="fill-rule:nonzero;"/>
        <path d="M32.56,5.72L32.56,95L52.36,95L52.36,84.2L44.08,84.2L44.08,53.48L51.04,53.48L51.04,42.44L44.08,42.44L44.08,16.4L52.12,16.4L52.12,5.72L32.56,5.72Z" style="fill-rule:nonzero;"/>
        <path d="M66.88,85.4C66.04,85.4 65.68,84.8 65.68,83.48L65.68,16.88C65.68,15.68 66.04,15.08 66.88,15.08C67.72,15.08 68.08,15.68 68.08,16.88L68.08,44L79.48,44L79.48,16.52C79.48,9.68 76.12,5.12 67.96,5.12L66.04,5.12C57.04,5.12 53.8,10.28 53.8,17.6L53.8,82.76C53.8,90.92 57.28,95.6 66.04,95.6L67.96,95.6C76.12,95.6 79.48,90.32 79.48,83.72L79.48,53.36L68.08,53.36L68.08,83.48C68.08,84.8 67.72,85.4 66.88,85.4Z" style="fill-rule:nonzero;"/>
        <path d="M95.32,95.6C103.84,95.6 107.56,90.44 107.56,84.32L107.56,5.72L95.68,5.72L95.68,83C95.68,84.2 95.2,84.8 94.36,84.8C93.52,84.8 93.16,84.2 93.16,83L93.16,5.72L81.28,5.72L81.28,84.32C81.28,90.44 84.52,95.6 93.52,95.6L95.32,95.6Z" style="fill-rule:nonzero;"/>
        <path d="M121.24,14.72L122.2,14.72C123.28,14.72 123.4,15.2 123.4,16.28L123.4,42.32C123.4,43.4 122.92,43.88 122.08,43.88L121.24,43.88L121.24,14.72ZM121.24,53.96L122.08,53.96C123.4,53.96 123.4,54.68 123.4,55.52L123.4,92.12C123.4,93.44 123.64,94.4 124.24,95L135.64,95L135.64,94.76C135.28,93.92 135.16,93.08 135.16,91.76L135.16,53.72C135.16,50 132.76,48.08 130.84,47.24C132.64,46.4 134.92,44.48 134.92,39.8L134.92,14C134.92,8.36 131.92,5.72 127.72,5.72L109.48,5.72L109.48,95L121.24,95L121.24,53.96Z" style="fill-rule:nonzero;"/>
        <path d="M137.08,5.72L137.08,95L156.88,95L156.88,84.2L148.6,84.2L148.6,53.48L155.56,53.48L155.56,42.44L148.6,42.44L148.6,16.4L156.64,16.4L156.64,5.72L137.08,5.72Z" style="fill-rule:nonzero;"/>
    </g>
</svg>
