<?xml version="1.0" encoding="UTF-8" standalone="no"?>
<!DOCTYPE svg PUBLIC "-//W3C//DTD SVG 1.1//EN" "http://www.w3.org/Graphics/SVG/1.1/DTD/svg11.dtd">
<svg width="100%" height="100%" viewBox="0 0 100 100" version="1.1" xmlns="http://www.w3.org/2000/svg" xmlns:xlink="http://www.w3.org/1999/xlink" xml:space="preserve" xmlns:serif="http://www.serif.com/" style="fill-rule:evenodd;clip-rule:evenodd;stroke-linejoin:round;stroke-miterlimit:2;" fill="currentColor">
    <g transform="matrix(1,0,0,1,8.22,-0.36)">
        <path d="M19.88,95.6C28.04,95.6 31.88,91.04 31.88,83.36L31.88,60.32C31.88,54.08 30.32,50.96 25.88,46.76L19.64,40.52C18.2,38.96 17.84,38.24 17.84,35.96L17.84,15.68C17.84,14.72 18.2,14.24 19.04,14.24C19.88,14.24 20.24,14.72 20.24,15.68L20.24,39.2L31.4,39.2L31.4,15.2C31.4,9.44 28.88,5.12 20.36,5.12L17.72,5.12C9.2,5.12 6.08,9.44 6.08,16.16L6.08,36.44C6.08,42.08 7.52,45.8 11.36,49.52L17.72,55.76C19.52,57.56 19.76,58.4 19.76,60.8L19.76,83.96C19.76,85.28 19.28,85.88 18.44,85.88C17.6,85.88 17.24,85.28 17.24,83.96L17.24,56.96L5.72,56.96L5.72,84.8C5.72,92 9.56,95.6 17.24,95.6L19.88,95.6Z" style="fill-rule:nonzero;"/>
        <path d="M39.08,95L50.72,95L50.72,58.76L57.68,5.72L47.24,5.72L45.2,39.2L43.16,5.72L31.64,5.72L39.08,58.76L39.08,95Z" style="fill-rule:nonzero;"/>
        <path d="M58.52,95L69.92,95L69.92,53.48L76.76,53.48L76.64,42.56L69.92,42.56L69.92,16.4L77.84,16.4L77.84,5.72L58.52,5.72L58.52,95Z" style="fill-rule:nonzero;"/>
    </g>
</svg>
