<?xml version="1.0" encoding="UTF-8" standalone="no"?>
<!DOCTYPE svg PUBLIC "-//W3C//DTD SVG 1.1//EN" "http://www.w3.org/Graphics/SVG/1.1/DTD/svg11.dtd">
<svg width="100%" height="100%" viewBox="0 0 119 100" version="1.1" xmlns="http://www.w3.org/2000/svg" xmlns:xlink="http://www.w3.org/1999/xlink" xml:space="preserve" xmlns:serif="http://www.serif.com/" style="fill-rule:evenodd;clip-rule:evenodd;stroke-linejoin:round;stroke-miterlimit:2;">
    <g transform="matrix(1,0,0,1,-94.4153,-193.378)">
        <path d="M106.175,288.018L117.815,288.018L117.815,251.778L124.775,198.738L114.335,198.738L112.295,232.218L110.255,198.738L98.735,198.738L106.175,251.778L106.175,288.018Z" style="fill-rule:nonzero;"/>
        <path d="M151.175,211.698C151.175,203.418 147.455,198.138 138.815,198.138L137.135,198.138C128.495,198.138 124.655,203.178 124.655,211.698L124.655,275.298C124.655,283.818 128.975,288.618 137.135,288.618L138.815,288.618C146.615,288.618 151.175,283.938 151.175,275.298L151.175,211.698ZM139.295,276.258C139.295,277.578 138.815,278.178 137.975,278.178C137.135,278.178 136.655,277.578 136.655,276.258L136.655,210.498C136.655,209.178 137.135,208.458 137.975,208.458C138.815,208.458 139.295,209.178 139.295,210.498L139.295,276.258Z" style="fill-rule:nonzero;"/>
        <path d="M167.135,288.618C175.655,288.618 179.375,283.458 179.375,277.338L179.375,198.738L167.495,198.738L167.495,276.018C167.495,277.218 167.015,277.818 166.175,277.818C165.335,277.818 164.975,277.218 164.975,276.018L164.975,198.738L153.095,198.738L153.095,277.338C153.095,283.458 156.335,288.618 165.335,288.618L167.135,288.618Z" style="fill-rule:nonzero;"/>
        <path d="M193.055,207.738L194.015,207.738C195.095,207.738 195.215,208.218 195.215,209.298L195.215,235.338C195.215,236.418 194.735,236.898 193.895,236.898L193.055,236.898L193.055,207.738ZM193.055,246.978L193.895,246.978C195.215,246.978 195.215,247.698 195.215,248.538L195.215,285.138C195.215,286.458 195.455,287.418 196.055,288.018L207.455,288.018L207.455,287.778C207.095,286.938 206.975,286.098 206.975,284.778L206.975,246.738C206.975,243.018 204.575,241.098 202.655,240.258C204.455,239.418 206.735,237.498 206.735,232.818L206.735,207.018C206.735,201.378 203.735,198.738 199.535,198.738L181.295,198.738L181.295,288.018L193.055,288.018L193.055,246.978Z" style="fill-rule:nonzero;"/>
    </g>
</svg>
